G04 #@! TF.FileFunction,Copper,L1,Top,Signal*
%FSLAX46Y46*%
G04 Gerber Fmt 4.6, Leading zero omitted, Abs format (unit mm)*
G04 Created by KiCad (PCBNEW 4.0.6) date 10/18/17 16:54:05*
%MOMM*%
%LPD*%
G01*
G04 APERTURE LIST*
%ADD10C,0.100000*%
%ADD11R,1.750000X1.750000*%
%ADD12C,1.750000*%
%ADD13R,2.000000X1.400000*%
%ADD14C,1.524000*%
%ADD15R,4.000000X2.000000*%
%ADD16R,5.000000X2.000000*%
%ADD17R,2.000000X4.000000*%
%ADD18R,0.600000X0.500000*%
%ADD19R,2.999740X1.600200*%
%ADD20R,1.600200X2.999740*%
%ADD21R,1.250000X1.000000*%
%ADD22R,0.400000X1.350000*%
%ADD23O,1.250000X0.950000*%
%ADD24O,1.000000X1.550000*%
%ADD25C,1.000000*%
%ADD26R,0.700000X1.300000*%
%ADD27R,0.400000X0.600000*%
%ADD28R,0.850000X0.300000*%
%ADD29R,0.300000X0.850000*%
%ADD30R,1.837500X1.837500*%
%ADD31R,0.500000X0.600000*%
%ADD32R,0.750000X0.800000*%
%ADD33R,0.700000X0.500000*%
%ADD34R,2.032000X2.032000*%
%ADD35O,2.032000X2.032000*%
%ADD36R,1.000000X0.220000*%
%ADD37R,0.650000X0.750000*%
%ADD38R,1.600000X0.600000*%
%ADD39R,1.600000X2.900000*%
%ADD40C,0.500000*%
%ADD41C,0.300000*%
%ADD42C,0.800000*%
%ADD43C,0.200000*%
%ADD44C,0.400000*%
G04 APERTURE END LIST*
D10*
D11*
X81300000Y-138700000D03*
D12*
X83800000Y-138700000D03*
X86300000Y-138700000D03*
X88800000Y-138700000D03*
X91300000Y-138700000D03*
X93800000Y-138700000D03*
X96300000Y-138700000D03*
X98800000Y-138700000D03*
X101300000Y-138700000D03*
X103800000Y-138700000D03*
D13*
X123560000Y-117900000D03*
X123560000Y-120900000D03*
X130560000Y-117900000D03*
X130560000Y-120900000D03*
D14*
X67818000Y-109728000D03*
X67818000Y-114808000D03*
X67818000Y-117348000D03*
X67818000Y-119888000D03*
X67818000Y-122428000D03*
X67818000Y-124968000D03*
X67818000Y-127508000D03*
X67818000Y-132588000D03*
X67818000Y-135128000D03*
X67818000Y-137668000D03*
X67818000Y-140208000D03*
X67818000Y-142748000D03*
X67818000Y-145288000D03*
X116078000Y-145288000D03*
X116078000Y-142748000D03*
X116078000Y-140208000D03*
X116078000Y-137668000D03*
X116078000Y-135128000D03*
X116078000Y-132588000D03*
X116078000Y-130048000D03*
X116078000Y-127508000D03*
X116078000Y-123444000D03*
X116078000Y-120904000D03*
X116078000Y-118364000D03*
X116078000Y-115824000D03*
X116078000Y-113284000D03*
X116078000Y-110744000D03*
X116078000Y-108204000D03*
X116078000Y-105664000D03*
X116078000Y-103124000D03*
X116078000Y-100584000D03*
X67818000Y-112268000D03*
D15*
X71900000Y-66250000D03*
D16*
X71900000Y-72100000D03*
D17*
X67100000Y-69100000D03*
D18*
X89366000Y-129286000D03*
X90466000Y-129286000D03*
D19*
X78700360Y-88410000D03*
X83099640Y-88410000D03*
D20*
X80850000Y-94010360D03*
X80850000Y-98409640D03*
D21*
X103124000Y-123460000D03*
X103124000Y-125460000D03*
D22*
X84104900Y-63792540D03*
X83454900Y-63792540D03*
X82804900Y-63792540D03*
X82154900Y-63792540D03*
X81504900Y-63792540D03*
D23*
X85304900Y-63792540D03*
X80304900Y-63792540D03*
D24*
X86304900Y-61092540D03*
X79304900Y-61092540D03*
D11*
X123850000Y-92760000D03*
D12*
X123850000Y-90260000D03*
D11*
X124050000Y-84310000D03*
D12*
X124050000Y-81810000D03*
D25*
X89027000Y-105283000D03*
X89027000Y-106553000D03*
X90297000Y-105283000D03*
X90297000Y-106553000D03*
X91567000Y-105283000D03*
X91567000Y-106553000D03*
X92837000Y-105283000D03*
X92837000Y-106553000D03*
X94107000Y-105283000D03*
X94107000Y-106553000D03*
X95377000Y-105283000D03*
X95377000Y-106553000D03*
X96647000Y-105283000D03*
X96647000Y-106553000D03*
X97917000Y-105283000D03*
X97917000Y-106553000D03*
X99187000Y-105283000D03*
X99187000Y-106553000D03*
X100457000Y-105283000D03*
X100457000Y-106553000D03*
D26*
X101534000Y-88646000D03*
X99634000Y-88646000D03*
D27*
X78428000Y-116586000D03*
X77528000Y-116586000D03*
X78428000Y-117856000D03*
X77528000Y-117856000D03*
X78428000Y-119126000D03*
X77528000Y-119126000D03*
D28*
X86150000Y-119200000D03*
X86150000Y-119700000D03*
X86150000Y-120200000D03*
X86150000Y-120700000D03*
X86150000Y-121200000D03*
X86150000Y-121700000D03*
X86150000Y-122200000D03*
X86150000Y-122700000D03*
X86150000Y-123200000D03*
X86150000Y-123700000D03*
X86150000Y-124200000D03*
X86150000Y-124700000D03*
X86150000Y-125200000D03*
X86150000Y-125700000D03*
X86150000Y-126200000D03*
X86150000Y-126700000D03*
D29*
X86850000Y-127400000D03*
X87350000Y-127400000D03*
X87850000Y-127400000D03*
X88350000Y-127400000D03*
X88850000Y-127400000D03*
X89350000Y-127400000D03*
X89850000Y-127400000D03*
X90350000Y-127400000D03*
X90850000Y-127400000D03*
X91350000Y-127400000D03*
X91850000Y-127400000D03*
X92350000Y-127400000D03*
X92850000Y-127400000D03*
X93350000Y-127400000D03*
X93850000Y-127400000D03*
X94350000Y-127400000D03*
D28*
X95050000Y-126700000D03*
X95050000Y-126200000D03*
X95050000Y-125700000D03*
X95050000Y-125200000D03*
X95050000Y-124700000D03*
X95050000Y-124200000D03*
X95050000Y-123700000D03*
X95050000Y-123200000D03*
X95050000Y-122700000D03*
X95050000Y-122200000D03*
X95050000Y-121700000D03*
X95050000Y-121200000D03*
X95050000Y-120700000D03*
X95050000Y-120200000D03*
X95050000Y-119700000D03*
X95050000Y-119200000D03*
D29*
X94350000Y-118500000D03*
X93850000Y-118500000D03*
X93350000Y-118500000D03*
X92850000Y-118500000D03*
X92350000Y-118500000D03*
X91850000Y-118500000D03*
X91350000Y-118500000D03*
X90850000Y-118500000D03*
X90350000Y-118500000D03*
X89850000Y-118500000D03*
X89350000Y-118500000D03*
X88850000Y-118500000D03*
X88350000Y-118500000D03*
X87850000Y-118500000D03*
X87350000Y-118500000D03*
X86850000Y-118500000D03*
D30*
X93356250Y-125706250D03*
X93356250Y-123868750D03*
X93356250Y-122031250D03*
X93356250Y-120193750D03*
X91518750Y-125706250D03*
X91518750Y-123868750D03*
X91518750Y-122031250D03*
X91518750Y-120193750D03*
X89681250Y-125706250D03*
X89681250Y-123868750D03*
X89681250Y-122031250D03*
X89681250Y-120193750D03*
X87843750Y-125706250D03*
X87843750Y-123868750D03*
X87843750Y-122031250D03*
X87843750Y-120193750D03*
D18*
X90466000Y-133350000D03*
X89366000Y-133350000D03*
D31*
X101600000Y-90128000D03*
X101600000Y-91228000D03*
D32*
X102870000Y-90182000D03*
X102870000Y-91682000D03*
X103550000Y-85460000D03*
X103550000Y-83960000D03*
D31*
X105500000Y-85560000D03*
X105500000Y-84460000D03*
X91948000Y-129244000D03*
X91948000Y-130344000D03*
X88138000Y-129244000D03*
X88138000Y-130344000D03*
X91440000Y-117136000D03*
X91440000Y-116036000D03*
X93218000Y-130006000D03*
X93218000Y-131106000D03*
D18*
X84350000Y-122800000D03*
X83250000Y-122800000D03*
D31*
X99822000Y-124164000D03*
X99822000Y-125264000D03*
D32*
X101346000Y-123964000D03*
X101346000Y-125464000D03*
D33*
X73872000Y-116586000D03*
X74972000Y-116586000D03*
X73872000Y-117856000D03*
X74972000Y-117856000D03*
X73872000Y-119126000D03*
X74972000Y-119126000D03*
D34*
X69342000Y-82042000D03*
D35*
X66802000Y-82042000D03*
D34*
X69342000Y-76454000D03*
D35*
X66802000Y-76454000D03*
D36*
X107350000Y-92285000D03*
X113950000Y-92285000D03*
X107350000Y-91635000D03*
X113950000Y-91635000D03*
X107350000Y-90985000D03*
X113950000Y-90985000D03*
X107350000Y-90335000D03*
X113950000Y-90335000D03*
X107350000Y-89685000D03*
X113950000Y-89685000D03*
X107350000Y-89035000D03*
X113950000Y-89035000D03*
X107350000Y-88385000D03*
X113950000Y-88385000D03*
X107350000Y-87735000D03*
X113950000Y-87735000D03*
X107350000Y-87085000D03*
X113950000Y-87085000D03*
X107350000Y-86435000D03*
X113950000Y-86435000D03*
X107350000Y-85785000D03*
X113950000Y-85785000D03*
X107350000Y-85135000D03*
X113950000Y-85135000D03*
D13*
X123460000Y-130880000D03*
X123460000Y-133880000D03*
X130460000Y-130880000D03*
X130460000Y-133880000D03*
X123500000Y-124484000D03*
X123500000Y-127484000D03*
X130500000Y-124484000D03*
X130500000Y-127484000D03*
X71430000Y-123214000D03*
X71430000Y-126214000D03*
X78430000Y-123214000D03*
X78430000Y-126214000D03*
D37*
X90441000Y-130668000D03*
X89391000Y-130668000D03*
X90441000Y-131968000D03*
X89391000Y-131968000D03*
D38*
X75150000Y-95260000D03*
D39*
X70100000Y-92960000D03*
D38*
X75150000Y-92960000D03*
X75150000Y-90660000D03*
D40*
X83200000Y-123500000D03*
X77978000Y-98806000D03*
X74422000Y-123190000D03*
X108712000Y-88900000D03*
X81534000Y-65278000D03*
X86106000Y-88646000D03*
X104394000Y-84074000D03*
X101600000Y-92202000D03*
X112268000Y-86614000D03*
X91440000Y-115062000D03*
X72644000Y-117856000D03*
X92202000Y-131318000D03*
X88138000Y-132334000D03*
X87843750Y-123868750D03*
X104394000Y-125476000D03*
X76300000Y-94000000D03*
X84400000Y-123500000D03*
X126746000Y-130810000D03*
X126746000Y-124460000D03*
X127000000Y-117856000D03*
X98806000Y-124714000D03*
X99568000Y-87376000D03*
X90678000Y-116078000D03*
X94234000Y-130302000D03*
X87122000Y-129286000D03*
X96520000Y-120650000D03*
X105410000Y-118110000D03*
X100838000Y-118110000D03*
X105410000Y-117348000D03*
X100838000Y-117348000D03*
X77978000Y-112776000D03*
X89154000Y-116078000D03*
X88392000Y-116586000D03*
X77216000Y-108712000D03*
X85090000Y-128270000D03*
X78994000Y-128270000D03*
X100838000Y-119634000D03*
X104648000Y-118872000D03*
X104140000Y-121666000D03*
X97536000Y-124206000D03*
X98044000Y-122174000D03*
X101854000Y-122174000D03*
X99314000Y-121666000D03*
X102362000Y-121666000D03*
X104902000Y-93980000D03*
X105156000Y-88138000D03*
X100330000Y-121158000D03*
X102362000Y-120142000D03*
X104394000Y-93472000D03*
X104648000Y-87630000D03*
X103886000Y-92710000D03*
X103886000Y-86868000D03*
X95504000Y-109728000D03*
X94742000Y-110236000D03*
X93980000Y-117094000D03*
X100584000Y-101092000D03*
X99568000Y-100584000D03*
X87630000Y-111760000D03*
X86868000Y-112522000D03*
X84074000Y-112014000D03*
X82550000Y-112776000D03*
X81026000Y-112776000D03*
X79502000Y-113284000D03*
X92964000Y-112522000D03*
X91186000Y-111760000D03*
X90424000Y-112522000D03*
X82296000Y-120904000D03*
X83312000Y-121920000D03*
D41*
X110450000Y-91985000D02*
X110425000Y-91960000D01*
D42*
X71882000Y-87392000D02*
X75150000Y-90660000D01*
X71882000Y-85217000D02*
X71882000Y-87392000D01*
X77361000Y-90660000D02*
X75150000Y-90660000D01*
X78700360Y-88410000D02*
X78700360Y-89320640D01*
X78700360Y-89320640D02*
X77361000Y-90660000D01*
D43*
X75150000Y-90660000D02*
X75150000Y-90517000D01*
D42*
X71882000Y-85217000D02*
X71882000Y-76454000D01*
X71882000Y-85092000D02*
X71882000Y-85217000D01*
X71900000Y-72100000D02*
X79800000Y-72100000D01*
X84104900Y-67795100D02*
X84104900Y-65247100D01*
X79800000Y-72100000D02*
X84104900Y-67795100D01*
X69342000Y-76454000D02*
X71882000Y-76454000D01*
D44*
X107850000Y-85785000D02*
X107850000Y-85344000D01*
X107850000Y-85344000D02*
X107950000Y-85344000D01*
D41*
X107850000Y-85785000D02*
X107001000Y-85785000D01*
X107001000Y-85785000D02*
X106934000Y-85718000D01*
X106934000Y-85718000D02*
X106934000Y-85090000D01*
X106934000Y-85090000D02*
X106979000Y-85135000D01*
X106979000Y-85135000D02*
X107850000Y-85135000D01*
D44*
X107850000Y-92285000D02*
X109137000Y-92285000D01*
X108966000Y-85344000D02*
X107950000Y-85344000D01*
X109728000Y-86106000D02*
X108966000Y-85344000D01*
X109728000Y-91694000D02*
X109728000Y-86106000D01*
X109137000Y-92285000D02*
X109728000Y-91694000D01*
X107950000Y-85344000D02*
X107696000Y-85344000D01*
X106426000Y-85560000D02*
X106426000Y-85598000D01*
X106426000Y-85598000D02*
X106426000Y-85560000D01*
X84104900Y-63792540D02*
X84104900Y-65247100D01*
X84104900Y-65247100D02*
X84074000Y-65278000D01*
D42*
X103550000Y-85460000D02*
X81650360Y-85460000D01*
X81650360Y-85460000D02*
X78700360Y-88410000D01*
X103550000Y-85460000D02*
X105400000Y-85460000D01*
X105400000Y-85460000D02*
X105500000Y-85560000D01*
X105500000Y-85560000D02*
X106426000Y-85560000D01*
X106426000Y-85560000D02*
X106972000Y-85560000D01*
X106972000Y-85560000D02*
X107188000Y-85344000D01*
X71900000Y-72100000D02*
X71882000Y-76454000D01*
D10*
X103800000Y-138700000D02*
X103800000Y-139532000D01*
X83250000Y-122800000D02*
X83250000Y-123450000D01*
X83250000Y-123450000D02*
X83200000Y-123500000D01*
X77978000Y-96266000D02*
X76962000Y-95250000D01*
X77978000Y-98806000D02*
X80453640Y-98806000D01*
X75692000Y-95250000D02*
X76962000Y-95250000D01*
X77978000Y-98806000D02*
X77978000Y-96266000D01*
X71430000Y-123214000D02*
X74398000Y-123214000D01*
X74446000Y-123214000D02*
X74422000Y-123190000D01*
X74446000Y-123214000D02*
X78430000Y-123214000D01*
X74398000Y-123214000D02*
X74422000Y-123190000D01*
X107850000Y-88385000D02*
X108197000Y-88385000D01*
X108197000Y-88385000D02*
X108712000Y-88900000D01*
X105500000Y-84460000D02*
X104780000Y-84460000D01*
X104780000Y-84460000D02*
X104394000Y-84074000D01*
X81504900Y-63792540D02*
X81504900Y-65307100D01*
X81504900Y-65307100D02*
X81534000Y-65278000D01*
X83099640Y-88410000D02*
X85870000Y-88410000D01*
X85870000Y-88410000D02*
X86106000Y-88646000D01*
X104280000Y-83960000D02*
X103550000Y-83960000D01*
X104280000Y-83960000D02*
X104394000Y-84074000D01*
X104780000Y-84460000D02*
X104394000Y-84074000D01*
X102870000Y-91682000D02*
X102120000Y-91682000D01*
X101600000Y-92202000D02*
X101600000Y-91228000D01*
X102120000Y-91682000D02*
X101600000Y-92202000D01*
X113450000Y-90335000D02*
X112268000Y-90335000D01*
X112268000Y-90335000D02*
X112268000Y-90424000D01*
X113450000Y-90985000D02*
X112829000Y-90985000D01*
X112268000Y-90424000D02*
X112268000Y-86614000D01*
X112829000Y-90985000D02*
X112268000Y-90424000D01*
X113450000Y-87085000D02*
X112739000Y-87085000D01*
X112447000Y-86435000D02*
X112268000Y-86614000D01*
X112447000Y-86435000D02*
X113450000Y-86435000D01*
X112739000Y-87085000D02*
X112268000Y-86614000D01*
X80453640Y-98806000D02*
X80850000Y-98409640D01*
X83250000Y-122800000D02*
X83038000Y-122800000D01*
X101346000Y-125464000D02*
X100342000Y-125464000D01*
X91440000Y-116036000D02*
X91440000Y-115062000D01*
X73872000Y-117856000D02*
X72644000Y-117856000D01*
X73872000Y-117856000D02*
X73872000Y-116586000D01*
X73872000Y-119126000D02*
X73872000Y-117856000D01*
X90466000Y-129286000D02*
X90466000Y-130528000D01*
X90466000Y-130528000D02*
X89391000Y-131603000D01*
X89391000Y-131603000D02*
X89391000Y-132083000D01*
X93218000Y-131106000D02*
X92414000Y-131106000D01*
X91948000Y-131064000D02*
X92202000Y-131318000D01*
X91948000Y-131064000D02*
X91948000Y-130344000D01*
X92414000Y-131106000D02*
X92202000Y-131318000D01*
X89391000Y-132083000D02*
X88389000Y-132083000D01*
X88389000Y-132083000D02*
X88138000Y-132334000D01*
X89391000Y-132083000D02*
X89157000Y-132083000D01*
X88138000Y-131064000D02*
X88138000Y-130344000D01*
X89157000Y-132083000D02*
X88138000Y-131064000D01*
X89366000Y-133350000D02*
X89366000Y-132108000D01*
X90441000Y-129311000D02*
X90466000Y-129286000D01*
X87843750Y-125706250D02*
X87843750Y-123868750D01*
X99822000Y-125464000D02*
X100342000Y-125464000D01*
X100342000Y-125464000D02*
X103120000Y-125464000D01*
X103120000Y-125464000D02*
X103132000Y-125476000D01*
X103132000Y-125476000D02*
X104394000Y-125476000D01*
X87843750Y-120193750D02*
X89681250Y-120193750D01*
X89681250Y-120193750D02*
X91518750Y-120193750D01*
X91518750Y-120193750D02*
X93356250Y-120193750D01*
X93356250Y-120193750D02*
X93356250Y-122031250D01*
X93356250Y-122031250D02*
X91518750Y-122031250D01*
X91518750Y-122031250D02*
X89681250Y-122031250D01*
X89681250Y-122031250D02*
X87843750Y-122031250D01*
X87843750Y-122031250D02*
X87843750Y-123868750D01*
X87843750Y-123868750D02*
X89681250Y-123868750D01*
X89681250Y-123868750D02*
X91518750Y-123868750D01*
X91518750Y-123868750D02*
X93356250Y-123868750D01*
X93356250Y-123868750D02*
X93356250Y-125706250D01*
X93356250Y-125706250D02*
X91518750Y-125706250D01*
X91518750Y-125706250D02*
X89681250Y-125706250D01*
X89681250Y-125706250D02*
X87843750Y-125706250D01*
X91518750Y-122031250D02*
X89681250Y-122031250D01*
X89366000Y-133350000D02*
X89154000Y-133350000D01*
X89391000Y-132083000D02*
X89391000Y-132097000D01*
X75150000Y-92960000D02*
X75260000Y-92960000D01*
X75260000Y-92960000D02*
X76300000Y-94000000D01*
X80850000Y-94010360D02*
X76310360Y-94010360D01*
X76310360Y-94010360D02*
X76300000Y-94000000D01*
X86150000Y-122700000D02*
X84450000Y-122700000D01*
X84450000Y-122700000D02*
X84350000Y-122800000D01*
X84350000Y-122800000D02*
X84350000Y-123450000D01*
X84350000Y-123450000D02*
X84400000Y-123500000D01*
X130460000Y-130880000D02*
X126816000Y-130880000D01*
X126676000Y-130880000D02*
X126746000Y-130810000D01*
X126676000Y-130880000D02*
X123460000Y-130880000D01*
X126816000Y-130880000D02*
X126746000Y-130810000D01*
X130500000Y-124484000D02*
X126770000Y-124484000D01*
X126722000Y-124484000D02*
X126746000Y-124460000D01*
X126722000Y-124484000D02*
X123500000Y-124484000D01*
X126770000Y-124484000D02*
X126746000Y-124460000D01*
X130560000Y-117900000D02*
X127044000Y-117900000D01*
X126956000Y-117900000D02*
X127000000Y-117856000D01*
X126956000Y-117900000D02*
X123560000Y-117900000D01*
X127044000Y-117900000D02*
X127000000Y-117856000D01*
X99556000Y-123964000D02*
X98806000Y-124714000D01*
X99822000Y-123964000D02*
X99556000Y-123964000D01*
X95050000Y-123700000D02*
X99568000Y-123700000D01*
X99634000Y-88646000D02*
X99634000Y-89220000D01*
X99634000Y-89220000D02*
X100542000Y-90128000D01*
X100542000Y-90128000D02*
X101600000Y-90128000D01*
X102870000Y-90182000D02*
X103112000Y-90182000D01*
X103112000Y-90182000D02*
X103609000Y-89685000D01*
X103609000Y-89685000D02*
X107850000Y-89685000D01*
X99634000Y-88646000D02*
X99634000Y-87442000D01*
X99634000Y-87442000D02*
X99568000Y-87376000D01*
X102870000Y-90182000D02*
X101654000Y-90182000D01*
X101654000Y-90182000D02*
X101600000Y-90128000D01*
X103113000Y-89939000D02*
X102870000Y-90182000D01*
X84368000Y-122818000D02*
X84350000Y-122800000D01*
X99568000Y-123700000D02*
X101082000Y-123700000D01*
X101082000Y-123700000D02*
X101346000Y-123964000D01*
X91440000Y-117136000D02*
X90974000Y-117136000D01*
X90678000Y-116840000D02*
X90678000Y-116078000D01*
X90974000Y-117136000D02*
X90678000Y-116840000D01*
X93218000Y-130006000D02*
X93938000Y-130006000D01*
X93938000Y-130006000D02*
X94234000Y-130302000D01*
X93218000Y-130006000D02*
X93218000Y-129794000D01*
X93218000Y-129794000D02*
X92668000Y-129244000D01*
X92668000Y-129244000D02*
X91948000Y-129244000D01*
X91948000Y-129244000D02*
X91850000Y-129146000D01*
X91850000Y-129146000D02*
X91850000Y-127400000D01*
X91850000Y-127400000D02*
X91350000Y-127400000D01*
X88138000Y-129244000D02*
X87164000Y-129244000D01*
X87164000Y-129244000D02*
X87122000Y-129286000D01*
X89850000Y-127400000D02*
X89850000Y-128082000D01*
X88858000Y-128524000D02*
X88138000Y-129244000D01*
X89408000Y-128524000D02*
X88858000Y-128524000D01*
X89850000Y-128082000D02*
X89408000Y-128524000D01*
X91440000Y-117136000D02*
X91440000Y-118410000D01*
X91440000Y-118410000D02*
X91350000Y-118500000D01*
X86132000Y-122682000D02*
X86150000Y-122700000D01*
X99568000Y-123700000D02*
X99558000Y-123700000D01*
X99558000Y-123700000D02*
X99822000Y-123964000D01*
D42*
X123850000Y-92760000D02*
X119176000Y-92760000D01*
X118364000Y-91948000D02*
X114300000Y-91948000D01*
X119176000Y-92760000D02*
X118364000Y-91948000D01*
D41*
X113450000Y-92285000D02*
X114217000Y-92285000D01*
X114241000Y-91635000D02*
X113450000Y-91635000D01*
X114300000Y-91694000D02*
X114241000Y-91635000D01*
X114300000Y-92202000D02*
X114300000Y-91948000D01*
X114300000Y-91948000D02*
X114300000Y-91694000D01*
X114217000Y-92285000D02*
X114300000Y-92202000D01*
D42*
X123850000Y-90260000D02*
X119724000Y-90260000D01*
X118872000Y-89408000D02*
X114046000Y-89408000D01*
X119724000Y-90260000D02*
X118872000Y-89408000D01*
D41*
X113450000Y-89685000D02*
X114277000Y-89685000D01*
X114181000Y-89035000D02*
X113450000Y-89035000D01*
X114300000Y-89154000D02*
X114181000Y-89035000D01*
X114300000Y-89662000D02*
X114300000Y-89154000D01*
X114277000Y-89685000D02*
X114300000Y-89662000D01*
D42*
X124050000Y-81810000D02*
X119612000Y-81810000D01*
X116078000Y-85344000D02*
X114300000Y-85344000D01*
X119612000Y-81810000D02*
X116078000Y-85344000D01*
D41*
X113450000Y-85785000D02*
X114233000Y-85785000D01*
X114255000Y-85135000D02*
X113450000Y-85135000D01*
X114300000Y-85090000D02*
X114255000Y-85135000D01*
X114300000Y-85718000D02*
X114300000Y-85344000D01*
X114300000Y-85344000D02*
X114300000Y-85090000D01*
X114233000Y-85785000D02*
X114300000Y-85718000D01*
D42*
X124050000Y-84310000D02*
X119144000Y-84310000D01*
X115316000Y-88138000D02*
X114046000Y-88138000D01*
X119144000Y-84310000D02*
X115316000Y-88138000D01*
D41*
X113450000Y-88385000D02*
X114293000Y-88385000D01*
X114151000Y-87735000D02*
X113450000Y-87735000D01*
X114300000Y-87884000D02*
X114151000Y-87735000D01*
X114300000Y-88378000D02*
X114300000Y-87884000D01*
X114293000Y-88385000D02*
X114300000Y-88378000D01*
D43*
X95050000Y-120700000D02*
X96470000Y-120700000D01*
X96470000Y-120700000D02*
X96520000Y-120650000D01*
X95050000Y-119700000D02*
X99248000Y-119700000D01*
X110744000Y-123444000D02*
X116078000Y-123444000D01*
X105410000Y-118110000D02*
X110744000Y-123444000D01*
X99248000Y-119700000D02*
X100838000Y-118110000D01*
X116078000Y-120904000D02*
X123556000Y-120904000D01*
X123556000Y-120904000D02*
X123560000Y-120900000D01*
X123560000Y-120900000D02*
X130560000Y-120900000D01*
X95050000Y-119200000D02*
X98986000Y-119200000D01*
X108966000Y-120904000D02*
X116078000Y-120904000D01*
X105410000Y-117348000D02*
X108966000Y-120904000D01*
X98986000Y-119200000D02*
X100838000Y-117348000D01*
X123460000Y-133880000D02*
X130460000Y-133880000D01*
X116078000Y-130048000D02*
X117094000Y-130048000D01*
X120926000Y-133880000D02*
X123460000Y-133880000D01*
X117094000Y-130048000D02*
X120926000Y-133880000D01*
X95050000Y-125200000D02*
X96752000Y-125200000D01*
X101600000Y-130048000D02*
X116078000Y-130048000D01*
X96752000Y-125200000D02*
X101600000Y-130048000D01*
X86850000Y-118500000D02*
X86850000Y-117838000D01*
X77978000Y-113284000D02*
X77978000Y-112776000D01*
X79502000Y-114808000D02*
X77978000Y-113284000D01*
X83820000Y-114808000D02*
X79502000Y-114808000D01*
X86850000Y-117838000D02*
X83820000Y-114808000D01*
X86150000Y-126200000D02*
X82842000Y-126200000D01*
X69850000Y-142748000D02*
X67818000Y-142748000D01*
X71120000Y-141478000D02*
X69850000Y-142748000D01*
X71120000Y-133858000D02*
X71120000Y-141478000D01*
X71374000Y-133604000D02*
X71120000Y-133858000D01*
X77978000Y-133604000D02*
X71374000Y-133604000D01*
X82550000Y-129032000D02*
X77978000Y-133604000D01*
X82550000Y-126492000D02*
X82550000Y-129032000D01*
X82842000Y-126200000D02*
X82550000Y-126492000D01*
X86150000Y-126700000D02*
X83358000Y-126700000D01*
X69596000Y-145288000D02*
X67818000Y-145288000D01*
X71628000Y-143256000D02*
X69596000Y-145288000D01*
X71628000Y-134366000D02*
X71628000Y-143256000D01*
X71882000Y-134112000D02*
X71628000Y-134366000D01*
X78232000Y-134112000D02*
X71882000Y-134112000D01*
X83058000Y-129286000D02*
X78232000Y-134112000D01*
X83058000Y-127000000D02*
X83058000Y-129286000D01*
X83358000Y-126700000D02*
X83058000Y-127000000D01*
X89850000Y-118500000D02*
X89850000Y-117790000D01*
X89154000Y-117094000D02*
X89154000Y-116078000D01*
X89850000Y-117790000D02*
X89154000Y-117094000D01*
X89350000Y-118500000D02*
X89350000Y-117798000D01*
X88392000Y-116840000D02*
X88392000Y-116586000D01*
X89350000Y-117798000D02*
X88392000Y-116840000D01*
X78430000Y-126214000D02*
X71430000Y-126214000D01*
X91694000Y-108712000D02*
X97536000Y-108712000D01*
X97536000Y-108712000D02*
X97790000Y-108458000D01*
X97917000Y-106553000D02*
X97917000Y-108331000D01*
X97917000Y-108331000D02*
X97790000Y-108458000D01*
X77216000Y-108712000D02*
X77470000Y-108712000D01*
X77470000Y-108712000D02*
X91694000Y-108712000D01*
X88350000Y-127400000D02*
X88350000Y-127804000D01*
X88350000Y-127804000D02*
X87884000Y-128270000D01*
X87884000Y-128270000D02*
X85598000Y-128270000D01*
X85598000Y-128270000D02*
X85090000Y-128270000D01*
X78994000Y-128270000D02*
X78450000Y-127726000D01*
X78450000Y-127726000D02*
X78450000Y-126403000D01*
X107850000Y-91635000D02*
X106739000Y-91635000D01*
X106739000Y-91635000D02*
X106426000Y-91948000D01*
X100838000Y-119634000D02*
X100330000Y-120142000D01*
X100330000Y-120142000D02*
X95108000Y-120142000D01*
X95108000Y-120142000D02*
X95050000Y-120200000D01*
X104648000Y-96520000D02*
X104648000Y-118872000D01*
X106426000Y-94742000D02*
X104648000Y-96520000D01*
X106426000Y-91948000D02*
X106426000Y-94742000D01*
X95050000Y-124200000D02*
X96272000Y-124200000D01*
X97536000Y-124206000D02*
X96272000Y-124200000D01*
X107850000Y-90985000D02*
X106373000Y-90985000D01*
X104140000Y-96266000D02*
X104140000Y-121666000D01*
X105918000Y-94488000D02*
X104140000Y-96266000D01*
X105918000Y-91440000D02*
X105918000Y-94488000D01*
X106373000Y-90985000D02*
X105918000Y-91440000D01*
X107850000Y-90335000D02*
X106007000Y-90335000D01*
X103632000Y-96012000D02*
X103632000Y-121158000D01*
X105410000Y-94234000D02*
X103632000Y-96012000D01*
X105410000Y-90932000D02*
X105410000Y-94234000D01*
X106007000Y-90335000D02*
X105410000Y-90932000D01*
X98018000Y-122200000D02*
X95050000Y-122200000D01*
X98044000Y-122174000D02*
X98018000Y-122200000D01*
X102616000Y-122174000D02*
X101854000Y-122174000D01*
X103632000Y-121158000D02*
X102616000Y-122174000D01*
X107850000Y-87735000D02*
X105559000Y-87735000D01*
X99280000Y-121700000D02*
X95050000Y-121700000D01*
X99314000Y-121666000D02*
X99280000Y-121700000D01*
X102870000Y-121158000D02*
X102362000Y-121666000D01*
X102870000Y-96012000D02*
X102870000Y-121158000D01*
X104902000Y-93980000D02*
X102870000Y-96012000D01*
X105559000Y-87735000D02*
X105156000Y-88138000D01*
X107850000Y-87085000D02*
X105193000Y-87085000D01*
X100288000Y-121200000D02*
X95050000Y-121200000D01*
X100330000Y-121158000D02*
X100288000Y-121200000D01*
X102362000Y-95504000D02*
X102362000Y-120142000D01*
X104394000Y-93472000D02*
X102362000Y-95504000D01*
X105156000Y-87122000D02*
X104648000Y-87630000D01*
X105193000Y-87085000D02*
X105156000Y-87122000D01*
X101854000Y-94742000D02*
X101854000Y-121158000D01*
X103886000Y-92710000D02*
X101854000Y-94742000D01*
X104319000Y-86435000D02*
X103886000Y-86868000D01*
X101854000Y-121158000D02*
X100312000Y-122700000D01*
X95050000Y-122700000D02*
X100312000Y-122700000D01*
X104319000Y-86435000D02*
X107850000Y-86435000D01*
X67818000Y-132588000D02*
X69342000Y-132588000D01*
X82048000Y-124200000D02*
X86150000Y-124200000D01*
X80518000Y-125730000D02*
X82048000Y-124200000D01*
X80518000Y-128016000D02*
X80518000Y-125730000D01*
X76962000Y-131572000D02*
X80518000Y-128016000D01*
X70358000Y-131572000D02*
X76962000Y-131572000D01*
X69342000Y-132588000D02*
X70358000Y-131572000D01*
X86150000Y-124700000D02*
X82056000Y-124700000D01*
X69342000Y-135128000D02*
X67818000Y-135128000D01*
X69596000Y-134874000D02*
X69342000Y-135128000D01*
X69596000Y-132842000D02*
X69596000Y-134874000D01*
X70358000Y-132080000D02*
X69596000Y-132842000D01*
X77216000Y-132080000D02*
X70358000Y-132080000D01*
X81026000Y-128270000D02*
X77216000Y-132080000D01*
X81026000Y-125730000D02*
X81026000Y-128270000D01*
X82056000Y-124700000D02*
X81026000Y-125730000D01*
X86150000Y-125200000D02*
X82064000Y-125200000D01*
X69596000Y-137668000D02*
X67818000Y-137668000D01*
X70104000Y-137160000D02*
X69596000Y-137668000D01*
X70104000Y-133096000D02*
X70104000Y-137160000D01*
X70612000Y-132588000D02*
X70104000Y-133096000D01*
X77470000Y-132588000D02*
X70612000Y-132588000D01*
X81534000Y-128524000D02*
X77470000Y-132588000D01*
X81534000Y-125730000D02*
X81534000Y-128524000D01*
X82064000Y-125200000D02*
X81534000Y-125730000D01*
X71120000Y-133096000D02*
X77470000Y-133096000D01*
X71120000Y-133096000D02*
X70866000Y-133096000D01*
X70866000Y-133096000D02*
X70612000Y-133350000D01*
X70612000Y-133350000D02*
X70612000Y-139192000D01*
X70612000Y-139192000D02*
X69596000Y-140208000D01*
X67818000Y-140208000D02*
X69596000Y-140208000D01*
X82326000Y-125700000D02*
X86150000Y-125700000D01*
X82042000Y-125984000D02*
X82326000Y-125700000D01*
X82042000Y-128778000D02*
X82042000Y-125984000D01*
X77724000Y-133096000D02*
X82042000Y-128778000D01*
X77470000Y-133096000D02*
X77724000Y-133096000D01*
X123500000Y-127484000D02*
X130500000Y-127484000D01*
X116078000Y-127508000D02*
X123476000Y-127508000D01*
X123476000Y-127508000D02*
X123500000Y-127484000D01*
X95050000Y-124700000D02*
X97014000Y-124700000D01*
X99822000Y-127508000D02*
X116078000Y-127508000D01*
X97014000Y-124700000D02*
X99822000Y-127508000D01*
X94350000Y-118500000D02*
X94350000Y-117994000D01*
X95504000Y-116840000D02*
X95504000Y-109728000D01*
X94350000Y-117994000D02*
X95504000Y-116840000D01*
X93850000Y-118500000D02*
X93850000Y-117986000D01*
X94742000Y-117094000D02*
X94742000Y-110236000D01*
X93850000Y-117986000D02*
X94742000Y-117094000D01*
X93350000Y-118500000D02*
X93350000Y-117724000D01*
X93350000Y-117724000D02*
X93980000Y-117094000D01*
X77528000Y-116586000D02*
X74972000Y-116586000D01*
X77528000Y-117856000D02*
X74972000Y-117856000D01*
X77528000Y-119126000D02*
X74972000Y-119126000D01*
D41*
X83454900Y-63792540D02*
X82804900Y-63792540D01*
D43*
X77724000Y-101092000D02*
X100584000Y-101092000D01*
X75692000Y-103124000D02*
X77724000Y-101092000D01*
X75692000Y-114808000D02*
X75692000Y-103124000D01*
X76200000Y-115316000D02*
X75692000Y-114808000D01*
X81788000Y-115316000D02*
X76200000Y-115316000D01*
X86150000Y-119200000D02*
X85672000Y-119200000D01*
X85672000Y-119200000D02*
X81788000Y-115316000D01*
X86150000Y-119700000D02*
X85410000Y-119700000D01*
X77216000Y-100584000D02*
X99568000Y-100584000D01*
X74930000Y-102870000D02*
X77216000Y-100584000D01*
X74930000Y-115062000D02*
X74930000Y-102870000D01*
X75692000Y-115824000D02*
X74930000Y-115062000D01*
X81534000Y-115824000D02*
X75692000Y-115824000D01*
X85410000Y-119700000D02*
X81534000Y-115824000D01*
X90850000Y-118500000D02*
X90850000Y-117520000D01*
X88392000Y-112522000D02*
X87630000Y-111760000D01*
X88900000Y-112522000D02*
X88392000Y-112522000D01*
X90170000Y-113792000D02*
X88900000Y-112522000D01*
X90170000Y-116840000D02*
X90170000Y-113792000D01*
X90850000Y-117520000D02*
X90170000Y-116840000D01*
X90350000Y-118500000D02*
X90350000Y-117782000D01*
X87376000Y-113030000D02*
X86868000Y-112522000D01*
X88900000Y-113030000D02*
X87376000Y-113030000D01*
X89662000Y-113792000D02*
X88900000Y-113030000D01*
X89662000Y-117094000D02*
X89662000Y-113792000D01*
X90350000Y-117782000D02*
X89662000Y-117094000D01*
X88850000Y-118500000D02*
X88850000Y-117806000D01*
X84074000Y-113030000D02*
X84074000Y-112014000D01*
X88850000Y-117806000D02*
X84074000Y-113030000D01*
X88350000Y-118500000D02*
X88350000Y-117814000D01*
X82550000Y-113030000D02*
X82550000Y-112776000D01*
X83058000Y-113538000D02*
X82550000Y-113030000D01*
X84074000Y-113538000D02*
X83058000Y-113538000D01*
X88350000Y-117814000D02*
X84074000Y-113538000D01*
X87850000Y-118500000D02*
X87850000Y-117822000D01*
X81026000Y-113538000D02*
X81026000Y-112776000D01*
X81487998Y-113999998D02*
X81026000Y-113538000D01*
X84027998Y-113999998D02*
X81487998Y-113999998D01*
X87850000Y-117822000D02*
X84027998Y-113999998D01*
X87350000Y-118500000D02*
X87350000Y-117830000D01*
X79502000Y-113538000D02*
X79502000Y-113284000D01*
X80264000Y-114300000D02*
X79502000Y-113538000D01*
X83820000Y-114300000D02*
X80264000Y-114300000D01*
X87350000Y-117830000D02*
X83820000Y-114300000D01*
X92850000Y-118500000D02*
X92850000Y-117716000D01*
X92964000Y-113030000D02*
X92964000Y-112522000D01*
X93218000Y-113284000D02*
X92964000Y-113030000D01*
X93218000Y-117348000D02*
X93218000Y-113284000D01*
X92850000Y-117716000D02*
X93218000Y-117348000D01*
X92350000Y-118500000D02*
X92350000Y-117708000D01*
X91186000Y-112268000D02*
X91186000Y-111760000D01*
X92710000Y-113792000D02*
X91186000Y-112268000D01*
X92710000Y-117348000D02*
X92710000Y-113792000D01*
X92350000Y-117708000D02*
X92710000Y-117348000D01*
X91850000Y-118500000D02*
X91850000Y-117700000D01*
X92202000Y-114300000D02*
X90424000Y-112522000D01*
X92202000Y-117348000D02*
X92202000Y-114300000D01*
X91850000Y-117700000D02*
X92202000Y-117348000D01*
X92350000Y-127400000D02*
X92350000Y-127910000D01*
X83856000Y-136144000D02*
X81300000Y-138700000D01*
X88646000Y-136144000D02*
X83856000Y-136144000D01*
X90424000Y-134366000D02*
X88646000Y-136144000D01*
X98298000Y-134366000D02*
X90424000Y-134366000D01*
X98806000Y-133858000D02*
X98298000Y-134366000D01*
X98806000Y-131826000D02*
X98806000Y-133858000D01*
X96774000Y-129794000D02*
X98806000Y-131826000D01*
X94234000Y-129794000D02*
X96774000Y-129794000D01*
X92350000Y-127910000D02*
X94234000Y-129794000D01*
X92850000Y-127400000D02*
X92850000Y-127902000D01*
X85848000Y-136652000D02*
X83800000Y-138700000D01*
X88900000Y-136652000D02*
X85848000Y-136652000D01*
X90678000Y-134874000D02*
X88900000Y-136652000D01*
X98552000Y-134874000D02*
X90678000Y-134874000D01*
X99314000Y-134112000D02*
X98552000Y-134874000D01*
X99314000Y-131572000D02*
X99314000Y-134112000D01*
X97028000Y-129286000D02*
X99314000Y-131572000D01*
X94234000Y-129286000D02*
X97028000Y-129286000D01*
X92850000Y-127902000D02*
X94234000Y-129286000D01*
X93350000Y-127400000D02*
X93350000Y-127894000D01*
X87840000Y-137160000D02*
X86300000Y-138700000D01*
X89154000Y-137160000D02*
X87840000Y-137160000D01*
X90932000Y-135382000D02*
X89154000Y-137160000D01*
X98806000Y-135382000D02*
X90932000Y-135382000D01*
X99822000Y-134366000D02*
X98806000Y-135382000D01*
X99822000Y-134620000D02*
X99822000Y-134366000D01*
X99822000Y-131318000D02*
X99822000Y-134620000D01*
X97282000Y-128778000D02*
X99822000Y-131318000D01*
X94234000Y-128778000D02*
X97282000Y-128778000D01*
X93350000Y-127894000D02*
X94234000Y-128778000D01*
X86360000Y-138640000D02*
X86300000Y-138700000D01*
X93850000Y-127400000D02*
X93850000Y-127886000D01*
X91610000Y-135890000D02*
X88800000Y-138700000D01*
X99060000Y-135890000D02*
X91610000Y-135890000D01*
X100330000Y-134620000D02*
X99060000Y-135890000D01*
X100330000Y-131318000D02*
X100330000Y-134620000D01*
X97282000Y-128270000D02*
X100330000Y-131318000D01*
X94234000Y-128270000D02*
X97282000Y-128270000D01*
X93850000Y-127886000D02*
X94234000Y-128270000D01*
X94350000Y-127400000D02*
X96920000Y-127400000D01*
X93602000Y-136398000D02*
X91300000Y-138700000D01*
X99314000Y-136398000D02*
X93602000Y-136398000D01*
X100838000Y-134874000D02*
X99314000Y-136398000D01*
X100838000Y-131318000D02*
X100838000Y-134874000D01*
X96920000Y-127400000D02*
X100838000Y-131318000D01*
X95050000Y-126700000D02*
X96728000Y-126700000D01*
X95594000Y-136906000D02*
X93800000Y-138700000D01*
X99397734Y-136906000D02*
X95594000Y-136906000D01*
X101346000Y-134957734D02*
X99397734Y-136906000D01*
X101346000Y-131318000D02*
X101346000Y-134957734D01*
X96728000Y-126700000D02*
X101346000Y-131318000D01*
X101854000Y-131318000D02*
X101854000Y-134874000D01*
X96736000Y-126200000D02*
X101854000Y-131318000D01*
X95050000Y-126200000D02*
X96736000Y-126200000D01*
X97586000Y-137414000D02*
X96300000Y-138700000D01*
X99314000Y-137414000D02*
X97586000Y-137414000D01*
X101854000Y-134874000D02*
X99314000Y-137414000D01*
X95050000Y-125700000D02*
X96744000Y-125700000D01*
X102362000Y-135138000D02*
X98800000Y-138700000D01*
X102362000Y-131318000D02*
X102362000Y-135138000D01*
X96744000Y-125700000D02*
X102362000Y-131318000D01*
X86150000Y-121700000D02*
X85378000Y-121700000D01*
X82804000Y-121412000D02*
X82296000Y-120904000D01*
X85090000Y-121412000D02*
X82804000Y-121412000D01*
X85378000Y-121700000D02*
X85090000Y-121412000D01*
X86150000Y-122200000D02*
X85370000Y-122200000D01*
X85090000Y-121920000D02*
X83312000Y-121920000D01*
X85370000Y-122200000D02*
X85090000Y-121920000D01*
D10*
X89391000Y-130553000D02*
X89391000Y-129311000D01*
X89391000Y-129311000D02*
X90350000Y-128606000D01*
X90350000Y-128606000D02*
X90350000Y-127400000D01*
X89366000Y-130528000D02*
X89391000Y-130553000D01*
X90466000Y-133350000D02*
X90466000Y-132108000D01*
X90466000Y-132108000D02*
X90441000Y-132083000D01*
X90850000Y-127400000D02*
X90850000Y-128188000D01*
X91186000Y-131338000D02*
X90441000Y-132083000D01*
X91186000Y-128778000D02*
X91186000Y-131338000D01*
X90850000Y-128188000D02*
X91186000Y-128778000D01*
X90416000Y-132108000D02*
X90441000Y-132083000D01*
D41*
X107850000Y-89035000D02*
X101923000Y-89035000D01*
X101923000Y-89035000D02*
X101534000Y-88646000D01*
X101669000Y-88781000D02*
X101534000Y-88646000D01*
D43*
X86150000Y-120200000D02*
X85402000Y-120200000D01*
X80264000Y-116586000D02*
X78428000Y-116586000D01*
X83312000Y-119634000D02*
X80264000Y-116586000D01*
X84836000Y-119634000D02*
X83312000Y-119634000D01*
X85402000Y-120200000D02*
X84836000Y-119634000D01*
X86150000Y-120700000D02*
X85394000Y-120700000D01*
X81026000Y-117856000D02*
X78428000Y-117856000D01*
X83312000Y-120142000D02*
X81026000Y-117856000D01*
X84836000Y-120142000D02*
X83312000Y-120142000D01*
X85394000Y-120700000D02*
X84836000Y-120142000D01*
X86150000Y-121200000D02*
X85386000Y-121200000D01*
X81534000Y-119126000D02*
X78428000Y-119126000D01*
X83058000Y-120650000D02*
X81534000Y-119126000D01*
X84836000Y-120650000D02*
X83058000Y-120650000D01*
X85386000Y-121200000D02*
X84836000Y-120650000D01*
X95050000Y-123200000D02*
X102864000Y-123200000D01*
X102864000Y-123200000D02*
X103124000Y-123460000D01*
D41*
X67820000Y-117350000D02*
X67818000Y-117348000D01*
X67856000Y-119850000D02*
X67818000Y-119888000D01*
M02*
