G04 #@! TF.FileFunction,Soldermask,Bot*
%FSLAX46Y46*%
G04 Gerber Fmt 4.6, Leading zero omitted, Abs format (unit mm)*
G04 Created by KiCad (PCBNEW 4.0.6) date 10/11/17 14:20:55*
%MOMM*%
%LPD*%
G01*
G04 APERTURE LIST*
%ADD10C,0.100000*%
%ADD11C,1.924000*%
%ADD12R,4.400000X2.400000*%
%ADD13R,5.400000X2.400000*%
%ADD14R,2.400000X4.400000*%
%ADD15O,1.650000X1.350000*%
%ADD16O,1.400000X1.950000*%
%ADD17R,2.150000X2.150000*%
%ADD18C,2.150000*%
%ADD19C,1.400000*%
%ADD20R,2.432000X2.432000*%
%ADD21O,2.432000X2.432000*%
G04 APERTURE END LIST*
D10*
D11*
X67818000Y-109728000D03*
X67818000Y-114808000D03*
X67818000Y-117348000D03*
X67818000Y-119888000D03*
X67818000Y-122428000D03*
X67818000Y-124968000D03*
X67818000Y-127508000D03*
X67818000Y-132588000D03*
X67818000Y-135128000D03*
X67818000Y-137668000D03*
X67818000Y-140208000D03*
X67818000Y-142748000D03*
X67818000Y-145288000D03*
X116078000Y-145288000D03*
X116078000Y-142748000D03*
X116078000Y-140208000D03*
X116078000Y-137668000D03*
X116078000Y-135128000D03*
X116078000Y-132588000D03*
X116078000Y-130048000D03*
X116078000Y-127508000D03*
X116078000Y-123444000D03*
X116078000Y-120904000D03*
X116078000Y-118364000D03*
X116078000Y-115824000D03*
X116078000Y-113284000D03*
X116078000Y-110744000D03*
X116078000Y-108204000D03*
X116078000Y-105664000D03*
X116078000Y-103124000D03*
X116078000Y-100584000D03*
X67818000Y-112268000D03*
D12*
X71900000Y-66250000D03*
D13*
X71900000Y-72100000D03*
D14*
X67100000Y-69100000D03*
D15*
X85304900Y-63792540D03*
X80304900Y-63792540D03*
D16*
X86304900Y-61092540D03*
X79304900Y-61092540D03*
D17*
X123850000Y-92760000D03*
D18*
X123850000Y-90260000D03*
D17*
X124050000Y-84310000D03*
D18*
X124050000Y-81810000D03*
D19*
X89027000Y-105283000D03*
X89027000Y-106553000D03*
X90297000Y-105283000D03*
X90297000Y-106553000D03*
X91567000Y-105283000D03*
X91567000Y-106553000D03*
X92837000Y-105283000D03*
X92837000Y-106553000D03*
X94107000Y-105283000D03*
X94107000Y-106553000D03*
X95377000Y-105283000D03*
X95377000Y-106553000D03*
X96647000Y-105283000D03*
X96647000Y-106553000D03*
X97917000Y-105283000D03*
X97917000Y-106553000D03*
X99187000Y-105283000D03*
X99187000Y-106553000D03*
X100457000Y-105283000D03*
X100457000Y-106553000D03*
D17*
X81300000Y-138700000D03*
D18*
X83800000Y-138700000D03*
X86300000Y-138700000D03*
X88800000Y-138700000D03*
X91300000Y-138700000D03*
X93800000Y-138700000D03*
X96300000Y-138700000D03*
X98800000Y-138700000D03*
X101300000Y-138700000D03*
X103800000Y-138700000D03*
D11*
X98044000Y-120650000D03*
X111252000Y-140208000D03*
X111252000Y-137668000D03*
X111760000Y-118364000D03*
X111760000Y-115824000D03*
X111760000Y-113284000D03*
X111760000Y-110744000D03*
X111252000Y-135128000D03*
X111252000Y-132588000D03*
X87630000Y-110236000D03*
X85852000Y-111252000D03*
X84074000Y-110236000D03*
X82550000Y-111506000D03*
X81026000Y-110236000D03*
X79502000Y-111506000D03*
X92964000Y-111252000D03*
X91186000Y-110236000D03*
X89408000Y-111252000D03*
X80264000Y-120650000D03*
X81534000Y-122174000D03*
X77978000Y-110236000D03*
D20*
X69342000Y-82042000D03*
D21*
X66802000Y-82042000D03*
D20*
X69342000Y-76454000D03*
D21*
X66802000Y-76454000D03*
M02*
