G04 #@! TF.FileFunction,Legend,Bot*
%FSLAX46Y46*%
G04 Gerber Fmt 4.6, Leading zero omitted, Abs format (unit mm)*
G04 Created by KiCad (PCBNEW 4.0.2+dfsg1-stable) date on. 18. okt. 2017 kl. 17.34 +0200*
%MOMM*%
G01*
G04 APERTURE LIST*
%ADD10C,0.100000*%
%ADD11C,0.150000*%
G04 APERTURE END LIST*
D10*
D11*
X100233333Y-119752381D02*
X100233333Y-120466667D01*
X100280953Y-120609524D01*
X100376191Y-120704762D01*
X100519048Y-120752381D01*
X100614286Y-120752381D01*
X99328571Y-119752381D02*
X99519048Y-119752381D01*
X99614286Y-119800000D01*
X99661905Y-119847619D01*
X99757143Y-119990476D01*
X99804762Y-120180952D01*
X99804762Y-120561905D01*
X99757143Y-120657143D01*
X99709524Y-120704762D01*
X99614286Y-120752381D01*
X99423809Y-120752381D01*
X99328571Y-120704762D01*
X99280952Y-120657143D01*
X99233333Y-120561905D01*
X99233333Y-120323810D01*
X99280952Y-120228571D01*
X99328571Y-120180952D01*
X99423809Y-120133333D01*
X99614286Y-120133333D01*
X99709524Y-120180952D01*
X99757143Y-120228571D01*
X99804762Y-120323810D01*
X109267523Y-139660381D02*
X109267523Y-140374667D01*
X109315143Y-140517524D01*
X109410381Y-140612762D01*
X109553238Y-140660381D01*
X109648476Y-140660381D01*
X108267523Y-140660381D02*
X108838952Y-140660381D01*
X108553238Y-140660381D02*
X108553238Y-139660381D01*
X108648476Y-139803238D01*
X108743714Y-139898476D01*
X108838952Y-139946095D01*
X107648476Y-139660381D02*
X107553237Y-139660381D01*
X107457999Y-139708000D01*
X107410380Y-139755619D01*
X107362761Y-139850857D01*
X107315142Y-140041333D01*
X107315142Y-140279429D01*
X107362761Y-140469905D01*
X107410380Y-140565143D01*
X107457999Y-140612762D01*
X107553237Y-140660381D01*
X107648476Y-140660381D01*
X107743714Y-140612762D01*
X107791333Y-140565143D01*
X107838952Y-140469905D01*
X107886571Y-140279429D01*
X107886571Y-140041333D01*
X107838952Y-139850857D01*
X107791333Y-139755619D01*
X107743714Y-139708000D01*
X107648476Y-139660381D01*
X109521523Y-137120381D02*
X109521523Y-137834667D01*
X109569143Y-137977524D01*
X109664381Y-138072762D01*
X109807238Y-138120381D01*
X109902476Y-138120381D01*
X108521523Y-138120381D02*
X109092952Y-138120381D01*
X108807238Y-138120381D02*
X108807238Y-137120381D01*
X108902476Y-137263238D01*
X108997714Y-137358476D01*
X109092952Y-137406095D01*
X107569142Y-138120381D02*
X108140571Y-138120381D01*
X107854857Y-138120381D02*
X107854857Y-137120381D01*
X107950095Y-137263238D01*
X108045333Y-137358476D01*
X108140571Y-137406095D01*
X110029523Y-117816381D02*
X110029523Y-118530667D01*
X110077143Y-118673524D01*
X110172381Y-118768762D01*
X110315238Y-118816381D01*
X110410476Y-118816381D01*
X109029523Y-118816381D02*
X109600952Y-118816381D01*
X109315238Y-118816381D02*
X109315238Y-117816381D01*
X109410476Y-117959238D01*
X109505714Y-118054476D01*
X109600952Y-118102095D01*
X108648571Y-117911619D02*
X108600952Y-117864000D01*
X108505714Y-117816381D01*
X108267618Y-117816381D01*
X108172380Y-117864000D01*
X108124761Y-117911619D01*
X108077142Y-118006857D01*
X108077142Y-118102095D01*
X108124761Y-118244952D01*
X108696190Y-118816381D01*
X108077142Y-118816381D01*
X110029523Y-115276381D02*
X110029523Y-115990667D01*
X110077143Y-116133524D01*
X110172381Y-116228762D01*
X110315238Y-116276381D01*
X110410476Y-116276381D01*
X109029523Y-116276381D02*
X109600952Y-116276381D01*
X109315238Y-116276381D02*
X109315238Y-115276381D01*
X109410476Y-115419238D01*
X109505714Y-115514476D01*
X109600952Y-115562095D01*
X108696190Y-115276381D02*
X108077142Y-115276381D01*
X108410476Y-115657333D01*
X108267618Y-115657333D01*
X108172380Y-115704952D01*
X108124761Y-115752571D01*
X108077142Y-115847810D01*
X108077142Y-116085905D01*
X108124761Y-116181143D01*
X108172380Y-116228762D01*
X108267618Y-116276381D01*
X108553333Y-116276381D01*
X108648571Y-116228762D01*
X108696190Y-116181143D01*
X110029523Y-112736381D02*
X110029523Y-113450667D01*
X110077143Y-113593524D01*
X110172381Y-113688762D01*
X110315238Y-113736381D01*
X110410476Y-113736381D01*
X109029523Y-113736381D02*
X109600952Y-113736381D01*
X109315238Y-113736381D02*
X109315238Y-112736381D01*
X109410476Y-112879238D01*
X109505714Y-112974476D01*
X109600952Y-113022095D01*
X108172380Y-113069714D02*
X108172380Y-113736381D01*
X108410476Y-112688762D02*
X108648571Y-113403048D01*
X108029523Y-113403048D01*
X110029523Y-110196381D02*
X110029523Y-110910667D01*
X110077143Y-111053524D01*
X110172381Y-111148762D01*
X110315238Y-111196381D01*
X110410476Y-111196381D01*
X109029523Y-111196381D02*
X109600952Y-111196381D01*
X109315238Y-111196381D02*
X109315238Y-110196381D01*
X109410476Y-110339238D01*
X109505714Y-110434476D01*
X109600952Y-110482095D01*
X108124761Y-110196381D02*
X108600952Y-110196381D01*
X108648571Y-110672571D01*
X108600952Y-110624952D01*
X108505714Y-110577333D01*
X108267618Y-110577333D01*
X108172380Y-110624952D01*
X108124761Y-110672571D01*
X108077142Y-110767810D01*
X108077142Y-111005905D01*
X108124761Y-111101143D01*
X108172380Y-111148762D01*
X108267618Y-111196381D01*
X108505714Y-111196381D01*
X108600952Y-111148762D01*
X108648571Y-111101143D01*
X109267523Y-134580381D02*
X109267523Y-135294667D01*
X109315143Y-135437524D01*
X109410381Y-135532762D01*
X109553238Y-135580381D01*
X109648476Y-135580381D01*
X108267523Y-135580381D02*
X108838952Y-135580381D01*
X108553238Y-135580381D02*
X108553238Y-134580381D01*
X108648476Y-134723238D01*
X108743714Y-134818476D01*
X108838952Y-134866095D01*
X107410380Y-134580381D02*
X107600857Y-134580381D01*
X107696095Y-134628000D01*
X107743714Y-134675619D01*
X107838952Y-134818476D01*
X107886571Y-135008952D01*
X107886571Y-135389905D01*
X107838952Y-135485143D01*
X107791333Y-135532762D01*
X107696095Y-135580381D01*
X107505618Y-135580381D01*
X107410380Y-135532762D01*
X107362761Y-135485143D01*
X107315142Y-135389905D01*
X107315142Y-135151810D01*
X107362761Y-135056571D01*
X107410380Y-135008952D01*
X107505618Y-134961333D01*
X107696095Y-134961333D01*
X107791333Y-135008952D01*
X107838952Y-135056571D01*
X107886571Y-135151810D01*
X109267523Y-132040381D02*
X109267523Y-132754667D01*
X109315143Y-132897524D01*
X109410381Y-132992762D01*
X109553238Y-133040381D01*
X109648476Y-133040381D01*
X108267523Y-133040381D02*
X108838952Y-133040381D01*
X108553238Y-133040381D02*
X108553238Y-132040381D01*
X108648476Y-132183238D01*
X108743714Y-132278476D01*
X108838952Y-132326095D01*
X107934190Y-132040381D02*
X107267523Y-132040381D01*
X107696095Y-133040381D01*
X88439523Y-112228381D02*
X88439523Y-112942667D01*
X88487143Y-113085524D01*
X88582381Y-113180762D01*
X88725238Y-113228381D01*
X88820476Y-113228381D01*
X88010952Y-112323619D02*
X87963333Y-112276000D01*
X87868095Y-112228381D01*
X87629999Y-112228381D01*
X87534761Y-112276000D01*
X87487142Y-112323619D01*
X87439523Y-112418857D01*
X87439523Y-112514095D01*
X87487142Y-112656952D01*
X88058571Y-113228381D01*
X87439523Y-113228381D01*
X86582380Y-112561714D02*
X86582380Y-113228381D01*
X86820476Y-112180762D02*
X87058571Y-112895048D01*
X86439523Y-112895048D01*
X86661523Y-113752381D02*
X86661523Y-114466667D01*
X86709143Y-114609524D01*
X86804381Y-114704762D01*
X86947238Y-114752381D01*
X87042476Y-114752381D01*
X86232952Y-113847619D02*
X86185333Y-113800000D01*
X86090095Y-113752381D01*
X85851999Y-113752381D01*
X85756761Y-113800000D01*
X85709142Y-113847619D01*
X85661523Y-113942857D01*
X85661523Y-114038095D01*
X85709142Y-114180952D01*
X86280571Y-114752381D01*
X85661523Y-114752381D01*
X84756761Y-113752381D02*
X85232952Y-113752381D01*
X85280571Y-114228571D01*
X85232952Y-114180952D01*
X85137714Y-114133333D01*
X84899618Y-114133333D01*
X84804380Y-114180952D01*
X84756761Y-114228571D01*
X84709142Y-114323810D01*
X84709142Y-114561905D01*
X84756761Y-114657143D01*
X84804380Y-114704762D01*
X84899618Y-114752381D01*
X85137714Y-114752381D01*
X85232952Y-114704762D01*
X85280571Y-114657143D01*
X84883523Y-112228381D02*
X84883523Y-112942667D01*
X84931143Y-113085524D01*
X85026381Y-113180762D01*
X85169238Y-113228381D01*
X85264476Y-113228381D01*
X84454952Y-112323619D02*
X84407333Y-112276000D01*
X84312095Y-112228381D01*
X84073999Y-112228381D01*
X83978761Y-112276000D01*
X83931142Y-112323619D01*
X83883523Y-112418857D01*
X83883523Y-112514095D01*
X83931142Y-112656952D01*
X84502571Y-113228381D01*
X83883523Y-113228381D01*
X83026380Y-112228381D02*
X83216857Y-112228381D01*
X83312095Y-112276000D01*
X83359714Y-112323619D01*
X83454952Y-112466476D01*
X83502571Y-112656952D01*
X83502571Y-113037905D01*
X83454952Y-113133143D01*
X83407333Y-113180762D01*
X83312095Y-113228381D01*
X83121618Y-113228381D01*
X83026380Y-113180762D01*
X82978761Y-113133143D01*
X82931142Y-113037905D01*
X82931142Y-112799810D01*
X82978761Y-112704571D01*
X83026380Y-112656952D01*
X83121618Y-112609333D01*
X83312095Y-112609333D01*
X83407333Y-112656952D01*
X83454952Y-112704571D01*
X83502571Y-112799810D01*
X83359523Y-113752381D02*
X83359523Y-114466667D01*
X83407143Y-114609524D01*
X83502381Y-114704762D01*
X83645238Y-114752381D01*
X83740476Y-114752381D01*
X82930952Y-113847619D02*
X82883333Y-113800000D01*
X82788095Y-113752381D01*
X82549999Y-113752381D01*
X82454761Y-113800000D01*
X82407142Y-113847619D01*
X82359523Y-113942857D01*
X82359523Y-114038095D01*
X82407142Y-114180952D01*
X82978571Y-114752381D01*
X82359523Y-114752381D01*
X82026190Y-113752381D02*
X81359523Y-113752381D01*
X81788095Y-114752381D01*
X81835523Y-112228381D02*
X81835523Y-112942667D01*
X81883143Y-113085524D01*
X81978381Y-113180762D01*
X82121238Y-113228381D01*
X82216476Y-113228381D01*
X81406952Y-112323619D02*
X81359333Y-112276000D01*
X81264095Y-112228381D01*
X81025999Y-112228381D01*
X80930761Y-112276000D01*
X80883142Y-112323619D01*
X80835523Y-112418857D01*
X80835523Y-112514095D01*
X80883142Y-112656952D01*
X81454571Y-113228381D01*
X80835523Y-113228381D01*
X80264095Y-112656952D02*
X80359333Y-112609333D01*
X80406952Y-112561714D01*
X80454571Y-112466476D01*
X80454571Y-112418857D01*
X80406952Y-112323619D01*
X80359333Y-112276000D01*
X80264095Y-112228381D01*
X80073618Y-112228381D01*
X79978380Y-112276000D01*
X79930761Y-112323619D01*
X79883142Y-112418857D01*
X79883142Y-112466476D01*
X79930761Y-112561714D01*
X79978380Y-112609333D01*
X80073618Y-112656952D01*
X80264095Y-112656952D01*
X80359333Y-112704571D01*
X80406952Y-112752190D01*
X80454571Y-112847429D01*
X80454571Y-113037905D01*
X80406952Y-113133143D01*
X80359333Y-113180762D01*
X80264095Y-113228381D01*
X80073618Y-113228381D01*
X79978380Y-113180762D01*
X79930761Y-113133143D01*
X79883142Y-113037905D01*
X79883142Y-112847429D01*
X79930761Y-112752190D01*
X79978380Y-112704571D01*
X80073618Y-112656952D01*
X80311523Y-113752381D02*
X80311523Y-114466667D01*
X80359143Y-114609524D01*
X80454381Y-114704762D01*
X80597238Y-114752381D01*
X80692476Y-114752381D01*
X79882952Y-113847619D02*
X79835333Y-113800000D01*
X79740095Y-113752381D01*
X79501999Y-113752381D01*
X79406761Y-113800000D01*
X79359142Y-113847619D01*
X79311523Y-113942857D01*
X79311523Y-114038095D01*
X79359142Y-114180952D01*
X79930571Y-114752381D01*
X79311523Y-114752381D01*
X78835333Y-114752381D02*
X78644857Y-114752381D01*
X78549618Y-114704762D01*
X78501999Y-114657143D01*
X78406761Y-114514286D01*
X78359142Y-114323810D01*
X78359142Y-113942857D01*
X78406761Y-113847619D01*
X78454380Y-113800000D01*
X78549618Y-113752381D01*
X78740095Y-113752381D01*
X78835333Y-113800000D01*
X78882952Y-113847619D01*
X78930571Y-113942857D01*
X78930571Y-114180952D01*
X78882952Y-114276190D01*
X78835333Y-114323810D01*
X78740095Y-114371429D01*
X78549618Y-114371429D01*
X78454380Y-114323810D01*
X78406761Y-114276190D01*
X78359142Y-114180952D01*
X93773523Y-113752381D02*
X93773523Y-114466667D01*
X93821143Y-114609524D01*
X93916381Y-114704762D01*
X94059238Y-114752381D01*
X94154476Y-114752381D01*
X93392571Y-113752381D02*
X92773523Y-113752381D01*
X93106857Y-114133333D01*
X92963999Y-114133333D01*
X92868761Y-114180952D01*
X92821142Y-114228571D01*
X92773523Y-114323810D01*
X92773523Y-114561905D01*
X92821142Y-114657143D01*
X92868761Y-114704762D01*
X92963999Y-114752381D01*
X93249714Y-114752381D01*
X93344952Y-114704762D01*
X93392571Y-114657143D01*
X92154476Y-113752381D02*
X92059237Y-113752381D01*
X91963999Y-113800000D01*
X91916380Y-113847619D01*
X91868761Y-113942857D01*
X91821142Y-114133333D01*
X91821142Y-114371429D01*
X91868761Y-114561905D01*
X91916380Y-114657143D01*
X91963999Y-114704762D01*
X92059237Y-114752381D01*
X92154476Y-114752381D01*
X92249714Y-114704762D01*
X92297333Y-114657143D01*
X92344952Y-114561905D01*
X92392571Y-114371429D01*
X92392571Y-114133333D01*
X92344952Y-113942857D01*
X92297333Y-113847619D01*
X92249714Y-113800000D01*
X92154476Y-113752381D01*
X91995523Y-112228381D02*
X91995523Y-112942667D01*
X92043143Y-113085524D01*
X92138381Y-113180762D01*
X92281238Y-113228381D01*
X92376476Y-113228381D01*
X91614571Y-112228381D02*
X90995523Y-112228381D01*
X91328857Y-112609333D01*
X91185999Y-112609333D01*
X91090761Y-112656952D01*
X91043142Y-112704571D01*
X90995523Y-112799810D01*
X90995523Y-113037905D01*
X91043142Y-113133143D01*
X91090761Y-113180762D01*
X91185999Y-113228381D01*
X91471714Y-113228381D01*
X91566952Y-113180762D01*
X91614571Y-113133143D01*
X90043142Y-113228381D02*
X90614571Y-113228381D01*
X90328857Y-113228381D02*
X90328857Y-112228381D01*
X90424095Y-112371238D01*
X90519333Y-112466476D01*
X90614571Y-112514095D01*
X90217523Y-113752381D02*
X90217523Y-114466667D01*
X90265143Y-114609524D01*
X90360381Y-114704762D01*
X90503238Y-114752381D01*
X90598476Y-114752381D01*
X89836571Y-113752381D02*
X89217523Y-113752381D01*
X89550857Y-114133333D01*
X89407999Y-114133333D01*
X89312761Y-114180952D01*
X89265142Y-114228571D01*
X89217523Y-114323810D01*
X89217523Y-114561905D01*
X89265142Y-114657143D01*
X89312761Y-114704762D01*
X89407999Y-114752381D01*
X89693714Y-114752381D01*
X89788952Y-114704762D01*
X89836571Y-114657143D01*
X88836571Y-113847619D02*
X88788952Y-113800000D01*
X88693714Y-113752381D01*
X88455618Y-113752381D01*
X88360380Y-113800000D01*
X88312761Y-113847619D01*
X88265142Y-113942857D01*
X88265142Y-114038095D01*
X88312761Y-114180952D01*
X88884190Y-114752381D01*
X88265142Y-114752381D01*
X78787523Y-120102381D02*
X78787523Y-120816667D01*
X78835143Y-120959524D01*
X78930381Y-121054762D01*
X79073238Y-121102381D01*
X79168476Y-121102381D01*
X78406571Y-120102381D02*
X77787523Y-120102381D01*
X78120857Y-120483333D01*
X77977999Y-120483333D01*
X77882761Y-120530952D01*
X77835142Y-120578571D01*
X77787523Y-120673810D01*
X77787523Y-120911905D01*
X77835142Y-121007143D01*
X77882761Y-121054762D01*
X77977999Y-121102381D01*
X78263714Y-121102381D01*
X78358952Y-121054762D01*
X78406571Y-121007143D01*
X76930380Y-120435714D02*
X76930380Y-121102381D01*
X77168476Y-120054762D02*
X77406571Y-120769048D01*
X76787523Y-120769048D01*
X80057523Y-121626381D02*
X80057523Y-122340667D01*
X80105143Y-122483524D01*
X80200381Y-122578762D01*
X80343238Y-122626381D01*
X80438476Y-122626381D01*
X79676571Y-121626381D02*
X79057523Y-121626381D01*
X79390857Y-122007333D01*
X79247999Y-122007333D01*
X79152761Y-122054952D01*
X79105142Y-122102571D01*
X79057523Y-122197810D01*
X79057523Y-122435905D01*
X79105142Y-122531143D01*
X79152761Y-122578762D01*
X79247999Y-122626381D01*
X79533714Y-122626381D01*
X79628952Y-122578762D01*
X79676571Y-122531143D01*
X78152761Y-121626381D02*
X78628952Y-121626381D01*
X78676571Y-122102571D01*
X78628952Y-122054952D01*
X78533714Y-122007333D01*
X78295618Y-122007333D01*
X78200380Y-122054952D01*
X78152761Y-122102571D01*
X78105142Y-122197810D01*
X78105142Y-122435905D01*
X78152761Y-122531143D01*
X78200380Y-122578762D01*
X78295618Y-122626381D01*
X78533714Y-122626381D01*
X78628952Y-122578762D01*
X78676571Y-122531143D01*
X78057333Y-112228381D02*
X78057333Y-112942667D01*
X78104953Y-113085524D01*
X78200191Y-113180762D01*
X78343048Y-113228381D01*
X78438286Y-113228381D01*
X77676381Y-112228381D02*
X77009714Y-112228381D01*
X77438286Y-113228381D01*
M02*
