G04 #@! TF.FileFunction,Soldermask,Top*
%FSLAX46Y46*%
G04 Gerber Fmt 4.6, Leading zero omitted, Abs format (unit mm)*
G04 Created by KiCad (PCBNEW 4.0.6) date 10/11/17 14:16:52*
%MOMM*%
%LPD*%
G01*
G04 APERTURE LIST*
%ADD10C,0.100000*%
%ADD11R,2.400000X1.800000*%
%ADD12C,1.924000*%
%ADD13R,4.400000X2.400000*%
%ADD14R,5.400000X2.400000*%
%ADD15R,2.400000X4.400000*%
%ADD16R,1.000000X0.900000*%
%ADD17R,3.399740X2.000200*%
%ADD18R,2.000200X3.399740*%
%ADD19R,1.650000X1.400000*%
%ADD20R,0.800000X1.750000*%
%ADD21O,1.650000X1.350000*%
%ADD22O,1.400000X1.950000*%
%ADD23R,2.150000X2.150000*%
%ADD24C,2.150000*%
%ADD25C,1.400000*%
%ADD26R,1.100000X1.700000*%
%ADD27R,0.800000X1.000000*%
%ADD28R,1.250000X0.700000*%
%ADD29R,0.700000X1.250000*%
%ADD30R,2.237500X2.237500*%
%ADD31R,0.900000X1.000000*%
%ADD32R,1.150000X1.200000*%
%ADD33R,1.100000X0.900000*%
%ADD34R,2.432000X2.432000*%
%ADD35O,2.432000X2.432000*%
%ADD36R,1.400000X0.620000*%
%ADD37R,1.050000X1.150000*%
%ADD38R,2.000000X1.000000*%
%ADD39R,2.000000X3.300000*%
G04 APERTURE END LIST*
D10*
D11*
X123560000Y-117900000D03*
X123560000Y-120900000D03*
X130560000Y-117900000D03*
X130560000Y-120900000D03*
D12*
X67818000Y-109728000D03*
X67818000Y-114808000D03*
X67818000Y-117348000D03*
X67818000Y-119888000D03*
X67818000Y-122428000D03*
X67818000Y-124968000D03*
X67818000Y-127508000D03*
X67818000Y-132588000D03*
X67818000Y-135128000D03*
X67818000Y-137668000D03*
X67818000Y-140208000D03*
X67818000Y-142748000D03*
X67818000Y-145288000D03*
X116078000Y-145288000D03*
X116078000Y-142748000D03*
X116078000Y-140208000D03*
X116078000Y-137668000D03*
X116078000Y-135128000D03*
X116078000Y-132588000D03*
X116078000Y-130048000D03*
X116078000Y-127508000D03*
X116078000Y-123444000D03*
X116078000Y-120904000D03*
X116078000Y-118364000D03*
X116078000Y-115824000D03*
X116078000Y-113284000D03*
X116078000Y-110744000D03*
X116078000Y-108204000D03*
X116078000Y-105664000D03*
X116078000Y-103124000D03*
X116078000Y-100584000D03*
X67818000Y-112268000D03*
D13*
X71900000Y-66250000D03*
D14*
X71900000Y-72100000D03*
D15*
X67100000Y-69100000D03*
D16*
X89366000Y-129286000D03*
X90466000Y-129286000D03*
D17*
X78700360Y-88410000D03*
X83099640Y-88410000D03*
D18*
X80850000Y-94010360D03*
X80850000Y-98409640D03*
D19*
X103124000Y-123460000D03*
X103124000Y-125460000D03*
D20*
X84104900Y-63792540D03*
X83454900Y-63792540D03*
X82804900Y-63792540D03*
X82154900Y-63792540D03*
X81504900Y-63792540D03*
D21*
X85304900Y-63792540D03*
X80304900Y-63792540D03*
D22*
X86304900Y-61092540D03*
X79304900Y-61092540D03*
D23*
X123850000Y-92760000D03*
D24*
X123850000Y-90260000D03*
D23*
X124050000Y-84310000D03*
D24*
X124050000Y-81810000D03*
D25*
X89027000Y-105283000D03*
X89027000Y-106553000D03*
X90297000Y-105283000D03*
X90297000Y-106553000D03*
X91567000Y-105283000D03*
X91567000Y-106553000D03*
X92837000Y-105283000D03*
X92837000Y-106553000D03*
X94107000Y-105283000D03*
X94107000Y-106553000D03*
X95377000Y-105283000D03*
X95377000Y-106553000D03*
X96647000Y-105283000D03*
X96647000Y-106553000D03*
X97917000Y-105283000D03*
X97917000Y-106553000D03*
X99187000Y-105283000D03*
X99187000Y-106553000D03*
X100457000Y-105283000D03*
X100457000Y-106553000D03*
D23*
X81300000Y-138700000D03*
D24*
X83800000Y-138700000D03*
X86300000Y-138700000D03*
X88800000Y-138700000D03*
X91300000Y-138700000D03*
X93800000Y-138700000D03*
X96300000Y-138700000D03*
X98800000Y-138700000D03*
X101300000Y-138700000D03*
X103800000Y-138700000D03*
D26*
X101534000Y-88646000D03*
X99634000Y-88646000D03*
D27*
X78428000Y-116586000D03*
X77528000Y-116586000D03*
X78428000Y-117856000D03*
X77528000Y-117856000D03*
X78428000Y-119126000D03*
X77528000Y-119126000D03*
D28*
X86150000Y-119200000D03*
X86150000Y-119700000D03*
X86150000Y-120200000D03*
X86150000Y-120700000D03*
X86150000Y-121200000D03*
X86150000Y-121700000D03*
X86150000Y-122200000D03*
X86150000Y-122700000D03*
X86150000Y-123200000D03*
X86150000Y-123700000D03*
X86150000Y-124200000D03*
X86150000Y-124700000D03*
X86150000Y-125200000D03*
X86150000Y-125700000D03*
X86150000Y-126200000D03*
X86150000Y-126700000D03*
D29*
X86850000Y-127400000D03*
X87350000Y-127400000D03*
X87850000Y-127400000D03*
X88350000Y-127400000D03*
X88850000Y-127400000D03*
X89350000Y-127400000D03*
X89850000Y-127400000D03*
X90350000Y-127400000D03*
X90850000Y-127400000D03*
X91350000Y-127400000D03*
X91850000Y-127400000D03*
X92350000Y-127400000D03*
X92850000Y-127400000D03*
X93350000Y-127400000D03*
X93850000Y-127400000D03*
X94350000Y-127400000D03*
D28*
X95050000Y-126700000D03*
X95050000Y-126200000D03*
X95050000Y-125700000D03*
X95050000Y-125200000D03*
X95050000Y-124700000D03*
X95050000Y-124200000D03*
X95050000Y-123700000D03*
X95050000Y-123200000D03*
X95050000Y-122700000D03*
X95050000Y-122200000D03*
X95050000Y-121700000D03*
X95050000Y-121200000D03*
X95050000Y-120700000D03*
X95050000Y-120200000D03*
X95050000Y-119700000D03*
X95050000Y-119200000D03*
D29*
X94350000Y-118500000D03*
X93850000Y-118500000D03*
X93350000Y-118500000D03*
X92850000Y-118500000D03*
X92350000Y-118500000D03*
X91850000Y-118500000D03*
X91350000Y-118500000D03*
X90850000Y-118500000D03*
X90350000Y-118500000D03*
X89850000Y-118500000D03*
X89350000Y-118500000D03*
X88850000Y-118500000D03*
X88350000Y-118500000D03*
X87850000Y-118500000D03*
X87350000Y-118500000D03*
X86850000Y-118500000D03*
D30*
X93356250Y-125706250D03*
X93356250Y-123868750D03*
X93356250Y-122031250D03*
X93356250Y-120193750D03*
X91518750Y-125706250D03*
X91518750Y-123868750D03*
X91518750Y-122031250D03*
X91518750Y-120193750D03*
X89681250Y-125706250D03*
X89681250Y-123868750D03*
X89681250Y-122031250D03*
X89681250Y-120193750D03*
X87843750Y-125706250D03*
X87843750Y-123868750D03*
X87843750Y-122031250D03*
X87843750Y-120193750D03*
D16*
X90466000Y-133350000D03*
X89366000Y-133350000D03*
D31*
X101600000Y-90128000D03*
X101600000Y-91228000D03*
D32*
X102870000Y-90182000D03*
X102870000Y-91682000D03*
X103550000Y-85460000D03*
X103550000Y-83960000D03*
D31*
X105500000Y-85560000D03*
X105500000Y-84460000D03*
X91948000Y-129244000D03*
X91948000Y-130344000D03*
X88138000Y-129244000D03*
X88138000Y-130344000D03*
X91440000Y-117136000D03*
X91440000Y-116036000D03*
X93218000Y-130006000D03*
X93218000Y-131106000D03*
D16*
X84878000Y-122682000D03*
X83778000Y-122682000D03*
D31*
X99822000Y-124164000D03*
X99822000Y-125264000D03*
D32*
X101346000Y-123964000D03*
X101346000Y-125464000D03*
D33*
X73872000Y-116586000D03*
X74972000Y-116586000D03*
X73872000Y-117856000D03*
X74972000Y-117856000D03*
X73872000Y-119126000D03*
X74972000Y-119126000D03*
D34*
X69342000Y-82042000D03*
D35*
X66802000Y-82042000D03*
D34*
X69342000Y-76454000D03*
D35*
X66802000Y-76454000D03*
D36*
X107350000Y-92285000D03*
X113950000Y-92285000D03*
X107350000Y-91635000D03*
X113950000Y-91635000D03*
X107350000Y-90985000D03*
X113950000Y-90985000D03*
X107350000Y-90335000D03*
X113950000Y-90335000D03*
X107350000Y-89685000D03*
X113950000Y-89685000D03*
X107350000Y-89035000D03*
X113950000Y-89035000D03*
X107350000Y-88385000D03*
X113950000Y-88385000D03*
X107350000Y-87735000D03*
X113950000Y-87735000D03*
X107350000Y-87085000D03*
X113950000Y-87085000D03*
X107350000Y-86435000D03*
X113950000Y-86435000D03*
X107350000Y-85785000D03*
X113950000Y-85785000D03*
X107350000Y-85135000D03*
X113950000Y-85135000D03*
D11*
X123460000Y-130880000D03*
X123460000Y-133880000D03*
X130460000Y-130880000D03*
X130460000Y-133880000D03*
X123500000Y-124484000D03*
X123500000Y-127484000D03*
X130500000Y-124484000D03*
X130500000Y-127484000D03*
X71430000Y-123214000D03*
X71430000Y-126214000D03*
X78430000Y-123214000D03*
X78430000Y-126214000D03*
D37*
X90441000Y-130668000D03*
X89391000Y-130668000D03*
X90441000Y-131968000D03*
X89391000Y-131968000D03*
D38*
X75150000Y-95260000D03*
D39*
X70100000Y-92960000D03*
D38*
X75150000Y-92960000D03*
X75150000Y-90660000D03*
M02*
