M48
;DRILL file {KiCad 4.0.2+dfsg1-stable} date on. 18. okt. 2017 kl. 17.35 +0200
;FORMAT={-:-/ absolute / metric / decimal}
FMAT,2
METRIC,TZ
T1C0.300
T2C0.500
T3C0.550
T4C0.750
T5C0.762
T6C0.800
T7C1.000
T8C1.016
T9C1.050
T10C1.100
%
G90
G05
M71
T1
X72.644Y-117.856
X74.422Y-123.19
X76.3Y-94.
X77.216Y-108.712
X77.978Y-98.806
X77.978Y-112.776
X78.994Y-128.27
X79.502Y-113.284
X81.026Y-112.776
X81.534Y-65.278
X82.296Y-120.904
X82.55Y-112.776
X83.2Y-123.5
X83.312Y-121.92
X84.074Y-112.014
X84.4Y-123.5
X85.09Y-128.27
X86.106Y-88.646
X86.868Y-112.522
X87.122Y-129.286
X87.63Y-111.76
X87.844Y-123.869
X88.138Y-132.334
X88.392Y-116.586
X89.154Y-116.078
X90.424Y-112.522
X90.678Y-116.078
X91.186Y-111.76
X91.44Y-115.062
X92.202Y-131.318
X92.964Y-112.522
X93.98Y-117.094
X94.234Y-130.302
X94.742Y-110.236
X95.504Y-109.728
X96.52Y-120.65
X97.536Y-124.206
X98.044Y-122.174
X98.806Y-124.714
X99.314Y-121.666
X99.568Y-87.376
X99.568Y-100.584
X100.33Y-121.158
X100.584Y-101.092
X100.838Y-117.348
X100.838Y-118.11
X100.838Y-119.634
X101.6Y-92.202
X101.854Y-122.174
X102.362Y-120.142
X102.362Y-121.666
X103.886Y-86.868
X103.886Y-92.71
X104.14Y-121.666
X104.394Y-84.074
X104.394Y-93.472
X104.394Y-125.476
X104.648Y-87.63
X104.648Y-118.872
X104.902Y-93.98
X105.156Y-88.138
X105.41Y-117.348
X105.41Y-118.11
X108.712Y-88.9
X112.268Y-86.614
X126.746Y-124.46
X126.746Y-130.81
X127.Y-117.856
T4
X89.027Y-105.283
X89.027Y-106.553
X90.297Y-105.283
X90.297Y-106.553
X91.567Y-105.283
X91.567Y-106.553
X92.837Y-105.283
X92.837Y-106.553
X94.107Y-105.283
X94.107Y-106.553
X95.377Y-105.283
X95.377Y-106.553
X96.647Y-105.283
X96.647Y-106.553
X97.917Y-105.283
X97.917Y-106.553
X99.187Y-105.283
X99.187Y-106.553
X100.457Y-105.283
X100.457Y-106.553
T5
X67.818Y-109.728
X67.818Y-112.268
X67.818Y-114.808
X67.818Y-117.348
X67.818Y-119.888
X67.818Y-122.428
X67.818Y-124.968
X67.818Y-127.508
X67.818Y-132.588
X67.818Y-135.128
X67.818Y-137.668
X67.818Y-140.208
X67.818Y-142.748
X67.818Y-145.288
X116.078Y-100.584
X116.078Y-103.124
X116.078Y-105.664
X116.078Y-108.204
X116.078Y-110.744
X116.078Y-113.284
X116.078Y-115.824
X116.078Y-118.364
X116.078Y-120.904
X116.078Y-123.444
X116.078Y-127.508
X116.078Y-130.048
X116.078Y-132.588
X116.078Y-135.128
X116.078Y-137.668
X116.078Y-140.208
X116.078Y-142.748
X116.078Y-145.288
T7
X81.3Y-138.7
X83.8Y-138.7
X86.3Y-138.7
X88.8Y-138.7
X91.3Y-138.7
X93.8Y-138.7
X96.3Y-138.7
X98.8Y-138.7
X101.3Y-138.7
X103.8Y-138.7
T8
X66.802Y-76.454
X66.802Y-82.042
X69.342Y-76.454
X69.342Y-82.042
T9
X123.85Y-90.26
X123.85Y-92.76
X124.05Y-81.81
X124.05Y-84.31
T2
X79.305Y-60.768G85X79.305Y-61.418
G05
X86.305Y-60.768G85X86.305Y-61.418
G05
T3
X80.455Y-63.793G85X80.155Y-63.793
G05
X85.455Y-63.793G85X85.155Y-63.793
G05
T6
X67.1Y-70.25G85X67.1Y-67.95
G05
X73.05Y-66.25G85X70.75Y-66.25
G05
T10
X73.15Y-72.1G85X70.65Y-72.1
G05
T0
M30
