G04 #@! TF.FileFunction,Legend,Top*
%FSLAX46Y46*%
G04 Gerber Fmt 4.6, Leading zero omitted, Abs format (unit mm)*
G04 Created by KiCad (PCBNEW 4.0.2+dfsg1-stable) date on. 18. okt. 2017 kl. 17.34 +0200*
%MOMM*%
G01*
G04 APERTURE LIST*
%ADD10C,0.100000*%
%ADD11C,0.300000*%
%ADD12C,1.000000*%
%ADD13C,0.120000*%
%ADD14C,0.150000*%
%ADD15C,0.010000*%
%ADD16C,0.203200*%
G04 APERTURE END LIST*
D10*
D11*
X88376095Y-60316333D02*
X88971333Y-60316333D01*
X88257048Y-60673476D02*
X88673714Y-59423476D01*
X89090381Y-60673476D01*
X89685619Y-60673476D02*
X89566572Y-60613952D01*
X89507048Y-60494905D01*
X89507048Y-59423476D01*
X90638001Y-60613952D02*
X90518953Y-60673476D01*
X90280858Y-60673476D01*
X90161810Y-60613952D01*
X90102286Y-60494905D01*
X90102286Y-60018714D01*
X90161810Y-59899667D01*
X90280858Y-59840143D01*
X90518953Y-59840143D01*
X90638001Y-59899667D01*
X90697524Y-60018714D01*
X90697524Y-60137762D01*
X90102286Y-60256810D01*
X91114191Y-60673476D02*
X91768953Y-59840143D01*
X91114191Y-59840143D02*
X91768953Y-60673476D01*
X92780858Y-60673476D02*
X92780858Y-60018714D01*
X92721335Y-59899667D01*
X92602287Y-59840143D01*
X92364192Y-59840143D01*
X92245144Y-59899667D01*
X92780858Y-60613952D02*
X92661811Y-60673476D01*
X92364192Y-60673476D01*
X92245144Y-60613952D01*
X92185620Y-60494905D01*
X92185620Y-60375857D01*
X92245144Y-60256810D01*
X92364192Y-60197286D01*
X92661811Y-60197286D01*
X92780858Y-60137762D01*
X93376096Y-59840143D02*
X93376096Y-60673476D01*
X93376096Y-59959190D02*
X93435620Y-59899667D01*
X93554667Y-59840143D01*
X93733239Y-59840143D01*
X93852287Y-59899667D01*
X93911810Y-60018714D01*
X93911810Y-60673476D01*
X95042762Y-60673476D02*
X95042762Y-59423476D01*
X95042762Y-60613952D02*
X94923715Y-60673476D01*
X94685619Y-60673476D01*
X94566572Y-60613952D01*
X94507048Y-60554429D01*
X94447524Y-60435381D01*
X94447524Y-60078238D01*
X94507048Y-59959190D01*
X94566572Y-59899667D01*
X94685619Y-59840143D01*
X94923715Y-59840143D01*
X95042762Y-59899667D01*
X96114191Y-60613952D02*
X95995143Y-60673476D01*
X95757048Y-60673476D01*
X95638000Y-60613952D01*
X95578476Y-60494905D01*
X95578476Y-60018714D01*
X95638000Y-59899667D01*
X95757048Y-59840143D01*
X95995143Y-59840143D01*
X96114191Y-59899667D01*
X96173714Y-60018714D01*
X96173714Y-60137762D01*
X95578476Y-60256810D01*
X96709429Y-60673476D02*
X96709429Y-59840143D01*
X96709429Y-60078238D02*
X96768953Y-59959190D01*
X96828477Y-59899667D01*
X96947524Y-59840143D01*
X97066572Y-59840143D01*
X98376096Y-60316333D02*
X98971334Y-60316333D01*
X98257049Y-60673476D02*
X98673715Y-59423476D01*
X99090382Y-60673476D01*
X99685620Y-60673476D02*
X99566573Y-60613952D01*
X99507049Y-60494905D01*
X99507049Y-59423476D01*
X99983240Y-59840143D02*
X100459430Y-59840143D01*
X100161811Y-60673476D02*
X100161811Y-59602048D01*
X100221335Y-59483000D01*
X100340382Y-59423476D01*
X100459430Y-59423476D01*
X88435619Y-62068714D02*
X88852286Y-62068714D01*
X89030857Y-62723476D02*
X88435619Y-62723476D01*
X88435619Y-61473476D01*
X89030857Y-61473476D01*
X89566571Y-62723476D02*
X89566571Y-61890143D01*
X89566571Y-62009190D02*
X89626095Y-61949667D01*
X89745142Y-61890143D01*
X89923714Y-61890143D01*
X90042762Y-61949667D01*
X90102285Y-62068714D01*
X90102285Y-62723476D01*
X90102285Y-62068714D02*
X90161809Y-61949667D01*
X90280857Y-61890143D01*
X90459428Y-61890143D01*
X90578476Y-61949667D01*
X90638000Y-62068714D01*
X90638000Y-62723476D01*
X91233238Y-62723476D02*
X91233238Y-61473476D01*
X91233238Y-61949667D02*
X91352286Y-61890143D01*
X91590381Y-61890143D01*
X91709429Y-61949667D01*
X91768952Y-62009190D01*
X91828476Y-62128238D01*
X91828476Y-62485381D01*
X91768952Y-62604429D01*
X91709429Y-62663952D01*
X91590381Y-62723476D01*
X91352286Y-62723476D01*
X91233238Y-62663952D01*
X92364190Y-62723476D02*
X92364190Y-61890143D01*
X92364190Y-62128238D02*
X92423714Y-62009190D01*
X92483238Y-61949667D01*
X92602285Y-61890143D01*
X92721333Y-61890143D01*
X93138000Y-62723476D02*
X93138000Y-61890143D01*
X93138000Y-61473476D02*
X93078476Y-61533000D01*
X93138000Y-61592524D01*
X93197524Y-61533000D01*
X93138000Y-61473476D01*
X93138000Y-61592524D01*
X93733238Y-62723476D02*
X93733238Y-61473476D01*
X93852286Y-62247286D02*
X94209429Y-62723476D01*
X94209429Y-61890143D02*
X93733238Y-62366333D01*
X95697524Y-62068714D02*
X96114191Y-62068714D01*
X96292762Y-62723476D02*
X95697524Y-62723476D01*
X95697524Y-61473476D01*
X96292762Y-61473476D01*
X96828476Y-62723476D02*
X96828476Y-61890143D01*
X96828476Y-61473476D02*
X96768952Y-61533000D01*
X96828476Y-61592524D01*
X96888000Y-61533000D01*
X96828476Y-61473476D01*
X96828476Y-61592524D01*
X97423714Y-61890143D02*
X97423714Y-62723476D01*
X97423714Y-62009190D02*
X97483238Y-61949667D01*
X97602285Y-61890143D01*
X97780857Y-61890143D01*
X97899905Y-61949667D01*
X97959428Y-62068714D01*
X97959428Y-62723476D01*
X99090380Y-62723476D02*
X99090380Y-62068714D01*
X99030857Y-61949667D01*
X98911809Y-61890143D01*
X98673714Y-61890143D01*
X98554666Y-61949667D01*
X99090380Y-62663952D02*
X98971333Y-62723476D01*
X98673714Y-62723476D01*
X98554666Y-62663952D01*
X98495142Y-62544905D01*
X98495142Y-62425857D01*
X98554666Y-62306810D01*
X98673714Y-62247286D01*
X98971333Y-62247286D01*
X99090380Y-62187762D01*
X99685618Y-61890143D02*
X99685618Y-62723476D01*
X99685618Y-62009190D02*
X99745142Y-61949667D01*
X99864189Y-61890143D01*
X100042761Y-61890143D01*
X100161809Y-61949667D01*
X100221332Y-62068714D01*
X100221332Y-62723476D01*
X101352284Y-61890143D02*
X101352284Y-62902048D01*
X101292761Y-63021095D01*
X101233237Y-63080619D01*
X101114189Y-63140143D01*
X100935618Y-63140143D01*
X100816570Y-63080619D01*
X101352284Y-62663952D02*
X101233237Y-62723476D01*
X100995141Y-62723476D01*
X100876094Y-62663952D01*
X100816570Y-62604429D01*
X100757046Y-62485381D01*
X100757046Y-62128238D01*
X100816570Y-62009190D01*
X100876094Y-61949667D01*
X100995141Y-61890143D01*
X101233237Y-61890143D01*
X101352284Y-61949667D01*
X89149905Y-64654429D02*
X89090381Y-64713952D01*
X88911810Y-64773476D01*
X88792762Y-64773476D01*
X88614190Y-64713952D01*
X88495143Y-64594905D01*
X88435619Y-64475857D01*
X88376095Y-64237762D01*
X88376095Y-64059190D01*
X88435619Y-63821095D01*
X88495143Y-63702048D01*
X88614190Y-63583000D01*
X88792762Y-63523476D01*
X88911810Y-63523476D01*
X89090381Y-63583000D01*
X89149905Y-63642524D01*
X90221333Y-64773476D02*
X90221333Y-64118714D01*
X90161810Y-63999667D01*
X90042762Y-63940143D01*
X89804667Y-63940143D01*
X89685619Y-63999667D01*
X90221333Y-64713952D02*
X90102286Y-64773476D01*
X89804667Y-64773476D01*
X89685619Y-64713952D01*
X89626095Y-64594905D01*
X89626095Y-64475857D01*
X89685619Y-64356810D01*
X89804667Y-64297286D01*
X90102286Y-64297286D01*
X90221333Y-64237762D01*
X90816571Y-64773476D02*
X90816571Y-63940143D01*
X90816571Y-64178238D02*
X90876095Y-64059190D01*
X90935619Y-63999667D01*
X91054666Y-63940143D01*
X91173714Y-63940143D01*
X91768952Y-64773476D02*
X91649905Y-64713952D01*
X91590381Y-64594905D01*
X91590381Y-63523476D01*
X93197524Y-64118714D02*
X93614191Y-64118714D01*
X93792762Y-64773476D02*
X93197524Y-64773476D01*
X93197524Y-63523476D01*
X93792762Y-63523476D01*
X94328476Y-64773476D02*
X94328476Y-63940143D01*
X94328476Y-64178238D02*
X94388000Y-64059190D01*
X94447524Y-63999667D01*
X94566571Y-63940143D01*
X94685619Y-63940143D01*
X95102286Y-64773476D02*
X95102286Y-63940143D01*
X95102286Y-63523476D02*
X95042762Y-63583000D01*
X95102286Y-63642524D01*
X95161810Y-63583000D01*
X95102286Y-63523476D01*
X95102286Y-63642524D01*
X95697524Y-64773476D02*
X95697524Y-63523476D01*
X95816572Y-64297286D02*
X96173715Y-64773476D01*
X96173715Y-63940143D02*
X95697524Y-64416333D01*
X98078477Y-64118714D02*
X97661810Y-64118714D01*
X97661810Y-64773476D02*
X97661810Y-63523476D01*
X98257048Y-63523476D01*
X98733239Y-64773476D02*
X98733239Y-63940143D01*
X98733239Y-64178238D02*
X98792763Y-64059190D01*
X98852287Y-63999667D01*
X98971334Y-63940143D01*
X99090382Y-63940143D01*
X99507049Y-64773476D02*
X99507049Y-63940143D01*
X99507049Y-63523476D02*
X99447525Y-63583000D01*
X99507049Y-63642524D01*
X99566573Y-63583000D01*
X99507049Y-63523476D01*
X99507049Y-63642524D01*
X100578478Y-64713952D02*
X100459430Y-64773476D01*
X100221335Y-64773476D01*
X100102287Y-64713952D01*
X100042763Y-64594905D01*
X100042763Y-64118714D01*
X100102287Y-63999667D01*
X100221335Y-63940143D01*
X100459430Y-63940143D01*
X100578478Y-63999667D01*
X100638001Y-64118714D01*
X100638001Y-64237762D01*
X100042763Y-64356810D01*
X101709430Y-64773476D02*
X101709430Y-63523476D01*
X101709430Y-64713952D02*
X101590383Y-64773476D01*
X101352287Y-64773476D01*
X101233240Y-64713952D01*
X101173716Y-64654429D01*
X101114192Y-64535381D01*
X101114192Y-64178238D01*
X101173716Y-64059190D01*
X101233240Y-63999667D01*
X101352287Y-63940143D01*
X101590383Y-63940143D01*
X101709430Y-63999667D01*
X102780859Y-64713952D02*
X102661811Y-64773476D01*
X102423716Y-64773476D01*
X102304668Y-64713952D01*
X102245144Y-64594905D01*
X102245144Y-64118714D01*
X102304668Y-63999667D01*
X102423716Y-63940143D01*
X102661811Y-63940143D01*
X102780859Y-63999667D01*
X102840382Y-64118714D01*
X102840382Y-64237762D01*
X102245144Y-64356810D01*
X103376097Y-64773476D02*
X103376097Y-63940143D01*
X103376097Y-64059190D02*
X103435621Y-63999667D01*
X103554668Y-63940143D01*
X103733240Y-63940143D01*
X103852288Y-63999667D01*
X103911811Y-64118714D01*
X103911811Y-64773476D01*
X103911811Y-64118714D02*
X103971335Y-63999667D01*
X104090383Y-63940143D01*
X104268954Y-63940143D01*
X104388002Y-63999667D01*
X104447526Y-64118714D01*
X104447526Y-64773476D01*
X105578478Y-64773476D02*
X105578478Y-64118714D01*
X105518955Y-63999667D01*
X105399907Y-63940143D01*
X105161812Y-63940143D01*
X105042764Y-63999667D01*
X105578478Y-64713952D02*
X105459431Y-64773476D01*
X105161812Y-64773476D01*
X105042764Y-64713952D01*
X104983240Y-64594905D01*
X104983240Y-64475857D01*
X105042764Y-64356810D01*
X105161812Y-64297286D01*
X105459431Y-64297286D01*
X105578478Y-64237762D01*
X106173716Y-63940143D02*
X106173716Y-64773476D01*
X106173716Y-64059190D02*
X106233240Y-63999667D01*
X106352287Y-63940143D01*
X106530859Y-63940143D01*
X106649907Y-63999667D01*
X106709430Y-64118714D01*
X106709430Y-64773476D01*
X107304668Y-63940143D02*
X107304668Y-64773476D01*
X107304668Y-64059190D02*
X107364192Y-63999667D01*
X107483239Y-63940143D01*
X107661811Y-63940143D01*
X107780859Y-63999667D01*
X107840382Y-64118714D01*
X107840382Y-64773476D01*
X88435619Y-66168714D02*
X88852286Y-66168714D01*
X89030857Y-66823476D02*
X88435619Y-66823476D01*
X88435619Y-65573476D01*
X89030857Y-65573476D01*
X90102285Y-66823476D02*
X90102285Y-65573476D01*
X90102285Y-66763952D02*
X89983238Y-66823476D01*
X89745142Y-66823476D01*
X89626095Y-66763952D01*
X89566571Y-66704429D01*
X89507047Y-66585381D01*
X89507047Y-66228238D01*
X89566571Y-66109190D01*
X89626095Y-66049667D01*
X89745142Y-65990143D01*
X89983238Y-65990143D01*
X90102285Y-66049667D01*
X90578475Y-65990143D02*
X90876094Y-66823476D01*
X91173714Y-65990143D01*
X92185618Y-66823476D02*
X92185618Y-66168714D01*
X92126095Y-66049667D01*
X92007047Y-65990143D01*
X91768952Y-65990143D01*
X91649904Y-66049667D01*
X92185618Y-66763952D02*
X92066571Y-66823476D01*
X91768952Y-66823476D01*
X91649904Y-66763952D01*
X91590380Y-66644905D01*
X91590380Y-66525857D01*
X91649904Y-66406810D01*
X91768952Y-66347286D01*
X92066571Y-66347286D01*
X92185618Y-66287762D01*
X92780856Y-66823476D02*
X92780856Y-65990143D01*
X92780856Y-66228238D02*
X92840380Y-66109190D01*
X92899904Y-66049667D01*
X93018951Y-65990143D01*
X93137999Y-65990143D01*
X94090380Y-66823476D02*
X94090380Y-65573476D01*
X94090380Y-66763952D02*
X93971333Y-66823476D01*
X93733237Y-66823476D01*
X93614190Y-66763952D01*
X93554666Y-66704429D01*
X93495142Y-66585381D01*
X93495142Y-66228238D01*
X93554666Y-66109190D01*
X93614190Y-66049667D01*
X93733237Y-65990143D01*
X93971333Y-65990143D01*
X94090380Y-66049667D01*
X96292761Y-65633000D02*
X96173713Y-65573476D01*
X95995142Y-65573476D01*
X95816570Y-65633000D01*
X95697523Y-65752048D01*
X95637999Y-65871095D01*
X95578475Y-66109190D01*
X95578475Y-66287762D01*
X95637999Y-66525857D01*
X95697523Y-66644905D01*
X95816570Y-66763952D01*
X95995142Y-66823476D01*
X96114190Y-66823476D01*
X96292761Y-66763952D01*
X96352285Y-66704429D01*
X96352285Y-66287762D01*
X96114190Y-66287762D01*
X96887999Y-65990143D02*
X96887999Y-67061571D01*
X96828475Y-67180619D01*
X96709428Y-67240143D01*
X96649904Y-67240143D01*
X96887999Y-65573476D02*
X96828475Y-65633000D01*
X96887999Y-65692524D01*
X96947523Y-65633000D01*
X96887999Y-65573476D01*
X96887999Y-65692524D01*
X97959428Y-66763952D02*
X97840380Y-66823476D01*
X97602285Y-66823476D01*
X97483237Y-66763952D01*
X97423713Y-66644905D01*
X97423713Y-66168714D01*
X97483237Y-66049667D01*
X97602285Y-65990143D01*
X97840380Y-65990143D01*
X97959428Y-66049667D01*
X98018951Y-66168714D01*
X98018951Y-66287762D01*
X97423713Y-66406810D01*
X98495142Y-66763952D02*
X98614190Y-66823476D01*
X98852285Y-66823476D01*
X98971333Y-66763952D01*
X99030857Y-66644905D01*
X99030857Y-66585381D01*
X98971333Y-66466333D01*
X98852285Y-66406810D01*
X98673714Y-66406810D01*
X98554666Y-66347286D01*
X98495142Y-66228238D01*
X98495142Y-66168714D01*
X98554666Y-66049667D01*
X98673714Y-65990143D01*
X98852285Y-65990143D01*
X98971333Y-66049667D01*
X99507047Y-66763952D02*
X99626095Y-66823476D01*
X99864190Y-66823476D01*
X99983238Y-66763952D01*
X100042762Y-66644905D01*
X100042762Y-66585381D01*
X99983238Y-66466333D01*
X99864190Y-66406810D01*
X99685619Y-66406810D01*
X99566571Y-66347286D01*
X99507047Y-66228238D01*
X99507047Y-66168714D01*
X99566571Y-66049667D01*
X99685619Y-65990143D01*
X99864190Y-65990143D01*
X99983238Y-66049667D01*
X100578476Y-66823476D02*
X100578476Y-65990143D01*
X100578476Y-65573476D02*
X100518952Y-65633000D01*
X100578476Y-65692524D01*
X100638000Y-65633000D01*
X100578476Y-65573476D01*
X100578476Y-65692524D01*
X101173714Y-65990143D02*
X101173714Y-66823476D01*
X101173714Y-66109190D02*
X101233238Y-66049667D01*
X101352285Y-65990143D01*
X101530857Y-65990143D01*
X101649905Y-66049667D01*
X101709428Y-66168714D01*
X101709428Y-66823476D01*
X102840380Y-65990143D02*
X102840380Y-67002048D01*
X102780857Y-67121095D01*
X102721333Y-67180619D01*
X102602285Y-67240143D01*
X102423714Y-67240143D01*
X102304666Y-67180619D01*
X102840380Y-66763952D02*
X102721333Y-66823476D01*
X102483237Y-66823476D01*
X102364190Y-66763952D01*
X102304666Y-66704429D01*
X102245142Y-66585381D01*
X102245142Y-66228238D01*
X102304666Y-66109190D01*
X102364190Y-66049667D01*
X102483237Y-65990143D01*
X102721333Y-65990143D01*
X102840380Y-66049667D01*
X104804666Y-66168714D02*
X104983237Y-66228238D01*
X105042761Y-66287762D01*
X105102285Y-66406810D01*
X105102285Y-66585381D01*
X105042761Y-66704429D01*
X104983237Y-66763952D01*
X104864190Y-66823476D01*
X104387999Y-66823476D01*
X104387999Y-65573476D01*
X104804666Y-65573476D01*
X104923713Y-65633000D01*
X104983237Y-65692524D01*
X105042761Y-65811571D01*
X105042761Y-65930619D01*
X104983237Y-66049667D01*
X104923713Y-66109190D01*
X104804666Y-66168714D01*
X104387999Y-66168714D01*
X106173713Y-66823476D02*
X106173713Y-66168714D01*
X106114190Y-66049667D01*
X105995142Y-65990143D01*
X105757047Y-65990143D01*
X105637999Y-66049667D01*
X106173713Y-66763952D02*
X106054666Y-66823476D01*
X105757047Y-66823476D01*
X105637999Y-66763952D01*
X105578475Y-66644905D01*
X105578475Y-66525857D01*
X105637999Y-66406810D01*
X105757047Y-66347286D01*
X106054666Y-66347286D01*
X106173713Y-66287762D01*
X106768951Y-66823476D02*
X106768951Y-65573476D01*
X106887999Y-66347286D02*
X107245142Y-66823476D01*
X107245142Y-65990143D02*
X106768951Y-66466333D01*
X107780856Y-66823476D02*
X107780856Y-65573476D01*
X107899904Y-66347286D02*
X108257047Y-66823476D01*
X108257047Y-65990143D02*
X107780856Y-66466333D01*
X109268952Y-66763952D02*
X109149904Y-66823476D01*
X108911809Y-66823476D01*
X108792761Y-66763952D01*
X108733237Y-66644905D01*
X108733237Y-66168714D01*
X108792761Y-66049667D01*
X108911809Y-65990143D01*
X109149904Y-65990143D01*
X109268952Y-66049667D01*
X109328475Y-66168714D01*
X109328475Y-66287762D01*
X108733237Y-66406810D01*
X109864190Y-65990143D02*
X109864190Y-66823476D01*
X109864190Y-66109190D02*
X109923714Y-66049667D01*
X110042761Y-65990143D01*
X110221333Y-65990143D01*
X110340381Y-66049667D01*
X110399904Y-66168714D01*
X110399904Y-66823476D01*
X89149905Y-68754429D02*
X89090381Y-68813952D01*
X88911810Y-68873476D01*
X88792762Y-68873476D01*
X88614190Y-68813952D01*
X88495143Y-68694905D01*
X88435619Y-68575857D01*
X88376095Y-68337762D01*
X88376095Y-68159190D01*
X88435619Y-67921095D01*
X88495143Y-67802048D01*
X88614190Y-67683000D01*
X88792762Y-67623476D01*
X88911810Y-67623476D01*
X89090381Y-67683000D01*
X89149905Y-67742524D01*
X89685619Y-68873476D02*
X89685619Y-67623476D01*
X90221333Y-68873476D02*
X90221333Y-68218714D01*
X90161810Y-68099667D01*
X90042762Y-68040143D01*
X89864190Y-68040143D01*
X89745143Y-68099667D01*
X89685619Y-68159190D01*
X90816571Y-68873476D02*
X90816571Y-68040143D01*
X90816571Y-68278238D02*
X90876095Y-68159190D01*
X90935619Y-68099667D01*
X91054666Y-68040143D01*
X91173714Y-68040143D01*
X91590381Y-68873476D02*
X91590381Y-68040143D01*
X91590381Y-67623476D02*
X91530857Y-67683000D01*
X91590381Y-67742524D01*
X91649905Y-67683000D01*
X91590381Y-67623476D01*
X91590381Y-67742524D01*
X92126095Y-68813952D02*
X92245143Y-68873476D01*
X92483238Y-68873476D01*
X92602286Y-68813952D01*
X92661810Y-68694905D01*
X92661810Y-68635381D01*
X92602286Y-68516333D01*
X92483238Y-68456810D01*
X92304667Y-68456810D01*
X92185619Y-68397286D01*
X92126095Y-68278238D01*
X92126095Y-68218714D01*
X92185619Y-68099667D01*
X92304667Y-68040143D01*
X92483238Y-68040143D01*
X92602286Y-68099667D01*
X93018953Y-68040143D02*
X93495143Y-68040143D01*
X93197524Y-67623476D02*
X93197524Y-68694905D01*
X93257048Y-68813952D01*
X93376095Y-68873476D01*
X93495143Y-68873476D01*
X94090381Y-68873476D02*
X93971334Y-68813952D01*
X93911810Y-68754429D01*
X93852286Y-68635381D01*
X93852286Y-68278238D01*
X93911810Y-68159190D01*
X93971334Y-68099667D01*
X94090381Y-68040143D01*
X94268953Y-68040143D01*
X94388001Y-68099667D01*
X94447524Y-68159190D01*
X94507048Y-68278238D01*
X94507048Y-68635381D01*
X94447524Y-68754429D01*
X94388001Y-68813952D01*
X94268953Y-68873476D01*
X94090381Y-68873476D01*
X94864191Y-68040143D02*
X95340381Y-68040143D01*
X95042762Y-68873476D02*
X95042762Y-67802048D01*
X95102286Y-67683000D01*
X95221333Y-67623476D01*
X95340381Y-67623476D01*
X95578477Y-68040143D02*
X96054667Y-68040143D01*
X95757048Y-68873476D02*
X95757048Y-67802048D01*
X95816572Y-67683000D01*
X95935619Y-67623476D01*
X96054667Y-67623476D01*
X96947525Y-68813952D02*
X96828477Y-68873476D01*
X96590382Y-68873476D01*
X96471334Y-68813952D01*
X96411810Y-68694905D01*
X96411810Y-68218714D01*
X96471334Y-68099667D01*
X96590382Y-68040143D01*
X96828477Y-68040143D01*
X96947525Y-68099667D01*
X97007048Y-68218714D01*
X97007048Y-68337762D01*
X96411810Y-68456810D01*
X97542763Y-68873476D02*
X97542763Y-68040143D01*
X97542763Y-68278238D02*
X97602287Y-68159190D01*
X97661811Y-68099667D01*
X97780858Y-68040143D01*
X97899906Y-68040143D01*
X99923716Y-67683000D02*
X99804668Y-67623476D01*
X99626097Y-67623476D01*
X99447525Y-67683000D01*
X99328478Y-67802048D01*
X99268954Y-67921095D01*
X99209430Y-68159190D01*
X99209430Y-68337762D01*
X99268954Y-68575857D01*
X99328478Y-68694905D01*
X99447525Y-68813952D01*
X99626097Y-68873476D01*
X99745145Y-68873476D01*
X99923716Y-68813952D01*
X99983240Y-68754429D01*
X99983240Y-68337762D01*
X99745145Y-68337762D01*
X100518954Y-68873476D02*
X100518954Y-68040143D01*
X100518954Y-68278238D02*
X100578478Y-68159190D01*
X100638002Y-68099667D01*
X100757049Y-68040143D01*
X100876097Y-68040143D01*
X101828478Y-68873476D02*
X101828478Y-68218714D01*
X101768955Y-68099667D01*
X101649907Y-68040143D01*
X101411812Y-68040143D01*
X101292764Y-68099667D01*
X101828478Y-68813952D02*
X101709431Y-68873476D01*
X101411812Y-68873476D01*
X101292764Y-68813952D01*
X101233240Y-68694905D01*
X101233240Y-68575857D01*
X101292764Y-68456810D01*
X101411812Y-68397286D01*
X101709431Y-68397286D01*
X101828478Y-68337762D01*
X102423716Y-68040143D02*
X102423716Y-68873476D01*
X102423716Y-68159190D02*
X102483240Y-68099667D01*
X102602287Y-68040143D01*
X102780859Y-68040143D01*
X102899907Y-68099667D01*
X102959430Y-68218714D01*
X102959430Y-68873476D01*
X88376095Y-70863952D02*
X88554667Y-70923476D01*
X88852286Y-70923476D01*
X88971333Y-70863952D01*
X89030857Y-70804429D01*
X89090381Y-70685381D01*
X89090381Y-70566333D01*
X89030857Y-70447286D01*
X88971333Y-70387762D01*
X88852286Y-70328238D01*
X88614190Y-70268714D01*
X88495143Y-70209190D01*
X88435619Y-70149667D01*
X88376095Y-70030619D01*
X88376095Y-69911571D01*
X88435619Y-69792524D01*
X88495143Y-69733000D01*
X88614190Y-69673476D01*
X88911810Y-69673476D01*
X89090381Y-69733000D01*
X89626095Y-70923476D02*
X89626095Y-70090143D01*
X89626095Y-69673476D02*
X89566571Y-69733000D01*
X89626095Y-69792524D01*
X89685619Y-69733000D01*
X89626095Y-69673476D01*
X89626095Y-69792524D01*
X90221333Y-70090143D02*
X90221333Y-70923476D01*
X90221333Y-70209190D02*
X90280857Y-70149667D01*
X90399904Y-70090143D01*
X90578476Y-70090143D01*
X90697524Y-70149667D01*
X90757047Y-70268714D01*
X90757047Y-70923476D01*
X91887999Y-70923476D02*
X91887999Y-69673476D01*
X91887999Y-70863952D02*
X91768952Y-70923476D01*
X91530856Y-70923476D01*
X91411809Y-70863952D01*
X91352285Y-70804429D01*
X91292761Y-70685381D01*
X91292761Y-70328238D01*
X91352285Y-70209190D01*
X91411809Y-70149667D01*
X91530856Y-70090143D01*
X91768952Y-70090143D01*
X91887999Y-70149667D01*
X92483237Y-70923476D02*
X92483237Y-70090143D01*
X92483237Y-70328238D02*
X92542761Y-70209190D01*
X92602285Y-70149667D01*
X92721332Y-70090143D01*
X92840380Y-70090143D01*
X93733238Y-70863952D02*
X93614190Y-70923476D01*
X93376095Y-70923476D01*
X93257047Y-70863952D01*
X93197523Y-70744905D01*
X93197523Y-70268714D01*
X93257047Y-70149667D01*
X93376095Y-70090143D01*
X93614190Y-70090143D01*
X93733238Y-70149667D01*
X93792761Y-70268714D01*
X93792761Y-70387762D01*
X93197523Y-70506810D01*
X95280857Y-70923476D02*
X95280857Y-69673476D01*
X95280857Y-70268714D02*
X95995143Y-70268714D01*
X95995143Y-70923476D02*
X95995143Y-69673476D01*
X97126095Y-70923476D02*
X97126095Y-70268714D01*
X97066572Y-70149667D01*
X96947524Y-70090143D01*
X96709429Y-70090143D01*
X96590381Y-70149667D01*
X97126095Y-70863952D02*
X97007048Y-70923476D01*
X96709429Y-70923476D01*
X96590381Y-70863952D01*
X96530857Y-70744905D01*
X96530857Y-70625857D01*
X96590381Y-70506810D01*
X96709429Y-70447286D01*
X97007048Y-70447286D01*
X97126095Y-70387762D01*
X97721333Y-70090143D02*
X97721333Y-70923476D01*
X97721333Y-70209190D02*
X97780857Y-70149667D01*
X97899904Y-70090143D01*
X98078476Y-70090143D01*
X98197524Y-70149667D01*
X98257047Y-70268714D01*
X98257047Y-70923476D01*
X98792761Y-70863952D02*
X98911809Y-70923476D01*
X99149904Y-70923476D01*
X99268952Y-70863952D01*
X99328476Y-70744905D01*
X99328476Y-70685381D01*
X99268952Y-70566333D01*
X99149904Y-70506810D01*
X98971333Y-70506810D01*
X98852285Y-70447286D01*
X98792761Y-70328238D01*
X98792761Y-70268714D01*
X98852285Y-70149667D01*
X98971333Y-70090143D01*
X99149904Y-70090143D01*
X99268952Y-70149667D01*
X100340381Y-70863952D02*
X100221333Y-70923476D01*
X99983238Y-70923476D01*
X99864190Y-70863952D01*
X99804666Y-70744905D01*
X99804666Y-70268714D01*
X99864190Y-70149667D01*
X99983238Y-70090143D01*
X100221333Y-70090143D01*
X100340381Y-70149667D01*
X100399904Y-70268714D01*
X100399904Y-70387762D01*
X99804666Y-70506810D01*
X100935619Y-70090143D02*
X100935619Y-70923476D01*
X100935619Y-70209190D02*
X100995143Y-70149667D01*
X101114190Y-70090143D01*
X101292762Y-70090143D01*
X101411810Y-70149667D01*
X101471333Y-70268714D01*
X101471333Y-70923476D01*
X88435619Y-72973476D02*
X88435619Y-71723476D01*
X88435619Y-72318714D02*
X89149905Y-72318714D01*
X89149905Y-72973476D02*
X89149905Y-71723476D01*
X90280857Y-72973476D02*
X90280857Y-72318714D01*
X90221334Y-72199667D01*
X90102286Y-72140143D01*
X89864191Y-72140143D01*
X89745143Y-72199667D01*
X90280857Y-72913952D02*
X90161810Y-72973476D01*
X89864191Y-72973476D01*
X89745143Y-72913952D01*
X89685619Y-72794905D01*
X89685619Y-72675857D01*
X89745143Y-72556810D01*
X89864191Y-72497286D01*
X90161810Y-72497286D01*
X90280857Y-72437762D01*
X89983238Y-71842524D02*
X89864191Y-71783000D01*
X89804667Y-71663952D01*
X89864191Y-71544905D01*
X89983238Y-71485381D01*
X90102286Y-71544905D01*
X90161810Y-71663952D01*
X90102286Y-71783000D01*
X89983238Y-71842524D01*
X90757047Y-72140143D02*
X91054666Y-72973476D01*
X91352286Y-72140143D01*
X92364190Y-72973476D02*
X92364190Y-72318714D01*
X92304667Y-72199667D01*
X92185619Y-72140143D01*
X91947524Y-72140143D01*
X91828476Y-72199667D01*
X92364190Y-72913952D02*
X92245143Y-72973476D01*
X91947524Y-72973476D01*
X91828476Y-72913952D01*
X91768952Y-72794905D01*
X91768952Y-72675857D01*
X91828476Y-72556810D01*
X91947524Y-72497286D01*
X92245143Y-72497286D01*
X92364190Y-72437762D01*
X92959428Y-72973476D02*
X92959428Y-72140143D01*
X92959428Y-72378238D02*
X93018952Y-72259190D01*
X93078476Y-72199667D01*
X93197523Y-72140143D01*
X93316571Y-72140143D01*
X94268952Y-72973476D02*
X94268952Y-71723476D01*
X94268952Y-72913952D02*
X94149905Y-72973476D01*
X93911809Y-72973476D01*
X93792762Y-72913952D01*
X93733238Y-72854429D01*
X93673714Y-72735381D01*
X93673714Y-72378238D01*
X93733238Y-72259190D01*
X93792762Y-72199667D01*
X93911809Y-72140143D01*
X94149905Y-72140143D01*
X94268952Y-72199667D01*
X95816571Y-72973476D02*
X95816571Y-71723476D01*
X95816571Y-72318714D02*
X96530857Y-72318714D01*
X96530857Y-72973476D02*
X96530857Y-71723476D01*
X97602286Y-72913952D02*
X97483238Y-72973476D01*
X97245143Y-72973476D01*
X97126095Y-72913952D01*
X97066571Y-72794905D01*
X97066571Y-72318714D01*
X97126095Y-72199667D01*
X97245143Y-72140143D01*
X97483238Y-72140143D01*
X97602286Y-72199667D01*
X97661809Y-72318714D01*
X97661809Y-72437762D01*
X97066571Y-72556810D01*
X98376095Y-72973476D02*
X98257048Y-72913952D01*
X98197524Y-72794905D01*
X98197524Y-71723476D01*
X99030857Y-72973476D02*
X98911810Y-72913952D01*
X98852286Y-72794905D01*
X98852286Y-71723476D01*
X99983239Y-72913952D02*
X99864191Y-72973476D01*
X99626096Y-72973476D01*
X99507048Y-72913952D01*
X99447524Y-72794905D01*
X99447524Y-72318714D01*
X99507048Y-72199667D01*
X99626096Y-72140143D01*
X99864191Y-72140143D01*
X99983239Y-72199667D01*
X100042762Y-72318714D01*
X100042762Y-72437762D01*
X99447524Y-72556810D01*
X100578477Y-72973476D02*
X100578477Y-72140143D01*
X100578477Y-72259190D02*
X100638001Y-72199667D01*
X100757048Y-72140143D01*
X100935620Y-72140143D01*
X101054668Y-72199667D01*
X101114191Y-72318714D01*
X101114191Y-72973476D01*
X101114191Y-72318714D02*
X101173715Y-72199667D01*
X101292763Y-72140143D01*
X101471334Y-72140143D01*
X101590382Y-72199667D01*
X101649906Y-72318714D01*
X101649906Y-72973476D01*
X88376095Y-74666333D02*
X88971333Y-74666333D01*
X88257048Y-75023476D02*
X88673714Y-73773476D01*
X89090381Y-75023476D01*
X89507048Y-74190143D02*
X89507048Y-75023476D01*
X89507048Y-74309190D02*
X89566572Y-74249667D01*
X89685619Y-74190143D01*
X89864191Y-74190143D01*
X89983239Y-74249667D01*
X90042762Y-74368714D01*
X90042762Y-75023476D01*
X91114191Y-74963952D02*
X90995143Y-75023476D01*
X90757048Y-75023476D01*
X90638000Y-74963952D01*
X90578476Y-74844905D01*
X90578476Y-74368714D01*
X90638000Y-74249667D01*
X90757048Y-74190143D01*
X90995143Y-74190143D01*
X91114191Y-74249667D01*
X91173714Y-74368714D01*
X91173714Y-74487762D01*
X90578476Y-74606810D01*
X92661810Y-75023476D02*
X92661810Y-73773476D01*
X92661810Y-74368714D02*
X93376096Y-74368714D01*
X93376096Y-75023476D02*
X93376096Y-73773476D01*
X94149905Y-75023476D02*
X94030858Y-74963952D01*
X93971334Y-74904429D01*
X93911810Y-74785381D01*
X93911810Y-74428238D01*
X93971334Y-74309190D01*
X94030858Y-74249667D01*
X94149905Y-74190143D01*
X94328477Y-74190143D01*
X94447525Y-74249667D01*
X94507048Y-74309190D01*
X94566572Y-74428238D01*
X94566572Y-74785381D01*
X94507048Y-74904429D01*
X94447525Y-74963952D01*
X94328477Y-75023476D01*
X94149905Y-75023476D01*
X94983238Y-74190143D02*
X95280857Y-75023476D01*
X95578477Y-74190143D01*
X88376095Y-76716333D02*
X88971333Y-76716333D01*
X88257048Y-77073476D02*
X88673714Y-75823476D01*
X89090381Y-77073476D01*
X89507048Y-76240143D02*
X89507048Y-77073476D01*
X89507048Y-76359190D02*
X89566572Y-76299667D01*
X89685619Y-76240143D01*
X89864191Y-76240143D01*
X89983239Y-76299667D01*
X90042762Y-76418714D01*
X90042762Y-77073476D01*
X91173714Y-77073476D02*
X91173714Y-75823476D01*
X91173714Y-77013952D02*
X91054667Y-77073476D01*
X90816571Y-77073476D01*
X90697524Y-77013952D01*
X90638000Y-76954429D01*
X90578476Y-76835381D01*
X90578476Y-76478238D01*
X90638000Y-76359190D01*
X90697524Y-76299667D01*
X90816571Y-76240143D01*
X91054667Y-76240143D01*
X91173714Y-76299667D01*
X92245143Y-77013952D02*
X92126095Y-77073476D01*
X91888000Y-77073476D01*
X91768952Y-77013952D01*
X91709428Y-76894905D01*
X91709428Y-76418714D01*
X91768952Y-76299667D01*
X91888000Y-76240143D01*
X92126095Y-76240143D01*
X92245143Y-76299667D01*
X92304666Y-76418714D01*
X92304666Y-76537762D01*
X91709428Y-76656810D01*
X92840381Y-77073476D02*
X92840381Y-76240143D01*
X92840381Y-76478238D02*
X92899905Y-76359190D01*
X92959429Y-76299667D01*
X93078476Y-76240143D01*
X93197524Y-76240143D01*
X93554667Y-77013952D02*
X93673715Y-77073476D01*
X93911810Y-77073476D01*
X94030858Y-77013952D01*
X94090382Y-76894905D01*
X94090382Y-76835381D01*
X94030858Y-76716333D01*
X93911810Y-76656810D01*
X93733239Y-76656810D01*
X93614191Y-76597286D01*
X93554667Y-76478238D01*
X93554667Y-76418714D01*
X93614191Y-76299667D01*
X93733239Y-76240143D01*
X93911810Y-76240143D01*
X94030858Y-76299667D01*
X96173715Y-77073476D02*
X95578477Y-77073476D01*
X95578477Y-75823476D01*
X97126096Y-77073476D02*
X97126096Y-76418714D01*
X97066573Y-76299667D01*
X96947525Y-76240143D01*
X96709430Y-76240143D01*
X96590382Y-76299667D01*
X97126096Y-77013952D02*
X97007049Y-77073476D01*
X96709430Y-77073476D01*
X96590382Y-77013952D01*
X96530858Y-76894905D01*
X96530858Y-76775857D01*
X96590382Y-76656810D01*
X96709430Y-76597286D01*
X97007049Y-76597286D01*
X97126096Y-76537762D01*
X97721334Y-77073476D02*
X97721334Y-76240143D01*
X97721334Y-76478238D02*
X97780858Y-76359190D01*
X97840382Y-76299667D01*
X97959429Y-76240143D01*
X98078477Y-76240143D01*
X98435620Y-77013952D02*
X98554668Y-77073476D01*
X98792763Y-77073476D01*
X98911811Y-77013952D01*
X98971335Y-76894905D01*
X98971335Y-76835381D01*
X98911811Y-76716333D01*
X98792763Y-76656810D01*
X98614192Y-76656810D01*
X98495144Y-76597286D01*
X98435620Y-76478238D01*
X98435620Y-76418714D01*
X98495144Y-76299667D01*
X98614192Y-76240143D01*
X98792763Y-76240143D01*
X98911811Y-76299667D01*
X99983240Y-77013952D02*
X99864192Y-77073476D01*
X99626097Y-77073476D01*
X99507049Y-77013952D01*
X99447525Y-76894905D01*
X99447525Y-76418714D01*
X99507049Y-76299667D01*
X99626097Y-76240143D01*
X99864192Y-76240143D01*
X99983240Y-76299667D01*
X100042763Y-76418714D01*
X100042763Y-76537762D01*
X99447525Y-76656810D01*
X100578478Y-76240143D02*
X100578478Y-77073476D01*
X100578478Y-76359190D02*
X100638002Y-76299667D01*
X100757049Y-76240143D01*
X100935621Y-76240143D01*
X101054669Y-76299667D01*
X101114192Y-76418714D01*
X101114192Y-77073476D01*
X88435619Y-78468714D02*
X88852286Y-78468714D01*
X89030857Y-79123476D02*
X88435619Y-79123476D01*
X88435619Y-77873476D01*
X89030857Y-77873476D01*
X89566571Y-79123476D02*
X89566571Y-78290143D01*
X89566571Y-77873476D02*
X89507047Y-77933000D01*
X89566571Y-77992524D01*
X89626095Y-77933000D01*
X89566571Y-77873476D01*
X89566571Y-77992524D01*
X90161809Y-79123476D02*
X90161809Y-78290143D01*
X90161809Y-78528238D02*
X90221333Y-78409190D01*
X90280857Y-78349667D01*
X90399904Y-78290143D01*
X90518952Y-78290143D01*
X90935619Y-79123476D02*
X90935619Y-78290143D01*
X90935619Y-77873476D02*
X90876095Y-77933000D01*
X90935619Y-77992524D01*
X90995143Y-77933000D01*
X90935619Y-77873476D01*
X90935619Y-77992524D01*
X91530857Y-79123476D02*
X91530857Y-77873476D01*
X91649905Y-78647286D02*
X92007048Y-79123476D01*
X92007048Y-78290143D02*
X91530857Y-78766333D01*
X94090381Y-79123476D02*
X93495143Y-79123476D01*
X93495143Y-77873476D01*
X95042762Y-78290143D02*
X95042762Y-79123476D01*
X94507048Y-78290143D02*
X94507048Y-78944905D01*
X94566572Y-79063952D01*
X94685619Y-79123476D01*
X94864191Y-79123476D01*
X94983239Y-79063952D01*
X95042762Y-79004429D01*
X95638000Y-78290143D02*
X95638000Y-79123476D01*
X95638000Y-78409190D02*
X95697524Y-78349667D01*
X95816571Y-78290143D01*
X95995143Y-78290143D01*
X96114191Y-78349667D01*
X96173714Y-78468714D01*
X96173714Y-79123476D01*
X97304666Y-79123476D02*
X97304666Y-77873476D01*
X97304666Y-79063952D02*
X97185619Y-79123476D01*
X96947523Y-79123476D01*
X96828476Y-79063952D01*
X96768952Y-79004429D01*
X96709428Y-78885381D01*
X96709428Y-78528238D01*
X96768952Y-78409190D01*
X96828476Y-78349667D01*
X96947523Y-78290143D01*
X97185619Y-78290143D01*
X97304666Y-78349667D01*
X88376095Y-81113952D02*
X88554667Y-81173476D01*
X88852286Y-81173476D01*
X88971333Y-81113952D01*
X89030857Y-81054429D01*
X89090381Y-80935381D01*
X89090381Y-80816333D01*
X89030857Y-80697286D01*
X88971333Y-80637762D01*
X88852286Y-80578238D01*
X88614190Y-80518714D01*
X88495143Y-80459190D01*
X88435619Y-80399667D01*
X88376095Y-80280619D01*
X88376095Y-80161571D01*
X88435619Y-80042524D01*
X88495143Y-79983000D01*
X88614190Y-79923476D01*
X88911810Y-79923476D01*
X89090381Y-79983000D01*
X90102286Y-81113952D02*
X89983238Y-81173476D01*
X89745143Y-81173476D01*
X89626095Y-81113952D01*
X89566571Y-80994905D01*
X89566571Y-80518714D01*
X89626095Y-80399667D01*
X89745143Y-80340143D01*
X89983238Y-80340143D01*
X90102286Y-80399667D01*
X90161809Y-80518714D01*
X90161809Y-80637762D01*
X89566571Y-80756810D01*
X90697524Y-81173476D02*
X90697524Y-79923476D01*
X90697524Y-80399667D02*
X90816572Y-80340143D01*
X91054667Y-80340143D01*
X91173715Y-80399667D01*
X91233238Y-80459190D01*
X91292762Y-80578238D01*
X91292762Y-80935381D01*
X91233238Y-81054429D01*
X91173715Y-81113952D01*
X91054667Y-81173476D01*
X90816572Y-81173476D01*
X90697524Y-81113952D01*
X92364190Y-81173476D02*
X92364190Y-80518714D01*
X92304667Y-80399667D01*
X92185619Y-80340143D01*
X91947524Y-80340143D01*
X91828476Y-80399667D01*
X92364190Y-81113952D02*
X92245143Y-81173476D01*
X91947524Y-81173476D01*
X91828476Y-81113952D01*
X91768952Y-80994905D01*
X91768952Y-80875857D01*
X91828476Y-80756810D01*
X91947524Y-80697286D01*
X92245143Y-80697286D01*
X92364190Y-80637762D01*
X92899904Y-81113952D02*
X93018952Y-81173476D01*
X93257047Y-81173476D01*
X93376095Y-81113952D01*
X93435619Y-80994905D01*
X93435619Y-80935381D01*
X93376095Y-80816333D01*
X93257047Y-80756810D01*
X93078476Y-80756810D01*
X92959428Y-80697286D01*
X92899904Y-80578238D01*
X92899904Y-80518714D01*
X92959428Y-80399667D01*
X93078476Y-80340143D01*
X93257047Y-80340143D01*
X93376095Y-80399667D01*
X93792762Y-80340143D02*
X94268952Y-80340143D01*
X93971333Y-79923476D02*
X93971333Y-80994905D01*
X94030857Y-81113952D01*
X94149904Y-81173476D01*
X94268952Y-81173476D01*
X94685619Y-81173476D02*
X94685619Y-80340143D01*
X94685619Y-79923476D02*
X94626095Y-79983000D01*
X94685619Y-80042524D01*
X94745143Y-79983000D01*
X94685619Y-79923476D01*
X94685619Y-80042524D01*
X95816571Y-81173476D02*
X95816571Y-80518714D01*
X95757048Y-80399667D01*
X95638000Y-80340143D01*
X95399905Y-80340143D01*
X95280857Y-80399667D01*
X95816571Y-81113952D02*
X95697524Y-81173476D01*
X95399905Y-81173476D01*
X95280857Y-81113952D01*
X95221333Y-80994905D01*
X95221333Y-80875857D01*
X95280857Y-80756810D01*
X95399905Y-80697286D01*
X95697524Y-80697286D01*
X95816571Y-80637762D01*
X96411809Y-80340143D02*
X96411809Y-81173476D01*
X96411809Y-80459190D02*
X96471333Y-80399667D01*
X96590380Y-80340143D01*
X96768952Y-80340143D01*
X96888000Y-80399667D01*
X96947523Y-80518714D01*
X96947523Y-81173476D01*
X98733237Y-79923476D02*
X98971333Y-79923476D01*
X99090380Y-79983000D01*
X99209428Y-80102048D01*
X99268952Y-80340143D01*
X99268952Y-80756810D01*
X99209428Y-80994905D01*
X99090380Y-81113952D01*
X98971333Y-81173476D01*
X98733237Y-81173476D01*
X98614190Y-81113952D01*
X98495142Y-80994905D01*
X98435618Y-80756810D01*
X98435618Y-80340143D01*
X98495142Y-80102048D01*
X98614190Y-79983000D01*
X98733237Y-79923476D01*
X99983237Y-81173476D02*
X99864190Y-81113952D01*
X99804666Y-80994905D01*
X99804666Y-79923476D01*
X100995142Y-81173476D02*
X100995142Y-80518714D01*
X100935619Y-80399667D01*
X100816571Y-80340143D01*
X100578476Y-80340143D01*
X100459428Y-80399667D01*
X100995142Y-81113952D02*
X100876095Y-81173476D01*
X100578476Y-81173476D01*
X100459428Y-81113952D01*
X100399904Y-80994905D01*
X100399904Y-80875857D01*
X100459428Y-80756810D01*
X100578476Y-80697286D01*
X100876095Y-80697286D01*
X100995142Y-80637762D01*
X101411809Y-80340143D02*
X101887999Y-80340143D01*
X101590380Y-81173476D02*
X101590380Y-80102048D01*
X101649904Y-79983000D01*
X101768951Y-79923476D01*
X101887999Y-79923476D01*
X102245142Y-81113952D02*
X102364190Y-81173476D01*
X102602285Y-81173476D01*
X102721333Y-81113952D01*
X102780857Y-80994905D01*
X102780857Y-80935381D01*
X102721333Y-80816333D01*
X102602285Y-80756810D01*
X102423714Y-80756810D01*
X102304666Y-80697286D01*
X102245142Y-80578238D01*
X102245142Y-80518714D01*
X102304666Y-80399667D01*
X102423714Y-80340143D01*
X102602285Y-80340143D01*
X102721333Y-80399667D01*
X103257047Y-81113952D02*
X103376095Y-81173476D01*
X103614190Y-81173476D01*
X103733238Y-81113952D01*
X103792762Y-80994905D01*
X103792762Y-80935381D01*
X103733238Y-80816333D01*
X103614190Y-80756810D01*
X103435619Y-80756810D01*
X103316571Y-80697286D01*
X103257047Y-80578238D01*
X103257047Y-80518714D01*
X103316571Y-80399667D01*
X103435619Y-80340143D01*
X103614190Y-80340143D01*
X103733238Y-80399667D01*
X104507047Y-81173476D02*
X104388000Y-81113952D01*
X104328476Y-81054429D01*
X104268952Y-80935381D01*
X104268952Y-80578238D01*
X104328476Y-80459190D01*
X104388000Y-80399667D01*
X104507047Y-80340143D01*
X104685619Y-80340143D01*
X104804667Y-80399667D01*
X104864190Y-80459190D01*
X104923714Y-80578238D01*
X104923714Y-80935381D01*
X104864190Y-81054429D01*
X104804667Y-81113952D01*
X104685619Y-81173476D01*
X104507047Y-81173476D01*
X105459428Y-80340143D02*
X105459428Y-81173476D01*
X105459428Y-80459190D02*
X105518952Y-80399667D01*
X105637999Y-80340143D01*
X105816571Y-80340143D01*
X105935619Y-80399667D01*
X105995142Y-80518714D01*
X105995142Y-81173476D01*
D12*
X123547333Y-98489525D02*
X123547333Y-100394287D01*
X121547333Y-98108572D02*
X128547333Y-99441906D01*
X121547333Y-100775239D01*
X128547333Y-102108572D02*
X122880667Y-102108572D01*
X122214000Y-102299048D01*
X121880667Y-102489524D01*
X121547333Y-102870477D01*
X121547333Y-103632381D01*
X121880667Y-104013334D01*
X122214000Y-104203810D01*
X122880667Y-104394286D01*
X128547333Y-104394286D01*
X128547333Y-105727619D02*
X128547333Y-108013334D01*
X121547333Y-106870477D02*
X128547333Y-106870477D01*
X128547333Y-110108572D02*
X128547333Y-110870476D01*
X128214000Y-111251429D01*
X127547333Y-111632381D01*
X126214000Y-111822857D01*
X123880667Y-111822857D01*
X122547333Y-111632381D01*
X121880667Y-111251429D01*
X121547333Y-110870476D01*
X121547333Y-110108572D01*
X121880667Y-109727619D01*
X122547333Y-109346667D01*
X123880667Y-109156191D01*
X126214000Y-109156191D01*
X127547333Y-109346667D01*
X128214000Y-109727619D01*
X128547333Y-110108572D01*
X130214000Y-113346667D02*
X130547333Y-113727619D01*
X130547333Y-114299048D01*
X130214000Y-114680000D01*
X129547333Y-114870476D01*
X128880667Y-114870476D01*
X128214000Y-114680000D01*
X125880667Y-113346667D01*
X125880667Y-114870476D01*
D13*
X78750000Y-136250000D02*
X78750000Y-142200000D01*
X78750000Y-142200000D02*
X106350000Y-142200000D01*
X106350000Y-142200000D02*
X106350000Y-136250000D01*
X106350000Y-136250000D02*
X78750000Y-136250000D01*
X82050000Y-136250000D02*
X82050000Y-137000000D01*
X82050000Y-137000000D02*
X103050000Y-137000000D01*
X103050000Y-137000000D02*
X103050000Y-136250000D01*
X103050000Y-136250000D02*
X82050000Y-136250000D01*
X78750000Y-136250000D02*
X78750000Y-137000000D01*
X78750000Y-137000000D02*
X80550000Y-137000000D01*
X80550000Y-137000000D02*
X80550000Y-136250000D01*
X80550000Y-136250000D02*
X78750000Y-136250000D01*
X104550000Y-136250000D02*
X104550000Y-137000000D01*
X104550000Y-137000000D02*
X106350000Y-137000000D01*
X106350000Y-137000000D02*
X106350000Y-136250000D01*
X106350000Y-136250000D02*
X104550000Y-136250000D01*
X78750000Y-138500000D02*
X79500000Y-138500000D01*
X79500000Y-138500000D02*
X79500000Y-141450000D01*
X79500000Y-141450000D02*
X92550000Y-141450000D01*
X106350000Y-138500000D02*
X105600000Y-138500000D01*
X105600000Y-138500000D02*
X105600000Y-141450000D01*
X105600000Y-141450000D02*
X92550000Y-141450000D01*
X80950000Y-135950000D02*
X78450000Y-135950000D01*
X78450000Y-135950000D02*
X78450000Y-138450000D01*
D14*
X123060000Y-116700000D02*
X122060000Y-117700000D01*
X122060000Y-117700000D02*
X122060000Y-122100000D01*
X122060000Y-122100000D02*
X132060000Y-122100000D01*
X132060000Y-122100000D02*
X132060000Y-116700000D01*
X132060000Y-116700000D02*
X123060000Y-116700000D01*
X117348000Y-124714000D02*
X114808000Y-124714000D01*
X114808000Y-124714000D02*
X114808000Y-99314000D01*
X114808000Y-99314000D02*
X117348000Y-99314000D01*
X117348000Y-99314000D02*
X117348000Y-124714000D01*
X117348000Y-126238000D02*
X117348000Y-146558000D01*
X117348000Y-146558000D02*
X114808000Y-146558000D01*
X114808000Y-146558000D02*
X114808000Y-126238000D01*
X114808000Y-126238000D02*
X117348000Y-126238000D01*
X69088000Y-131318000D02*
X69088000Y-146558000D01*
X69088000Y-146558000D02*
X66548000Y-146558000D01*
X66548000Y-146558000D02*
X66548000Y-131318000D01*
X66548000Y-131318000D02*
X69088000Y-131318000D01*
X66548000Y-108458000D02*
X69088000Y-108458000D01*
X69088000Y-108458000D02*
X69088000Y-128778000D01*
X69088000Y-128778000D02*
X66548000Y-128778000D01*
X66548000Y-128778000D02*
X66548000Y-108458000D01*
X76300000Y-71460000D02*
X76300000Y-57960000D01*
X67500000Y-71460000D02*
X76300000Y-71460000D01*
X67500000Y-57960000D02*
X67500000Y-71460000D01*
X71900000Y-57960000D02*
X76300000Y-57960000D01*
X71900000Y-57960000D02*
X67500000Y-57960000D01*
X90166000Y-128811000D02*
X89666000Y-128811000D01*
X89666000Y-129761000D02*
X90166000Y-129761000D01*
X83186000Y-89045000D02*
X83186000Y-87648000D01*
X83059000Y-89299000D02*
X83059000Y-87521000D01*
X82932000Y-89680000D02*
X82932000Y-87140000D01*
X82805000Y-87013000D02*
X82805000Y-89807000D01*
X82678000Y-89934000D02*
X82678000Y-86886000D01*
X82551000Y-86759000D02*
X82551000Y-90061000D01*
X82424000Y-90188000D02*
X82424000Y-86632000D01*
X83567000Y-91077000D02*
X78995000Y-91077000D01*
X78995000Y-91077000D02*
X78233000Y-90315000D01*
X78233000Y-90315000D02*
X78233000Y-86505000D01*
X78233000Y-86505000D02*
X78995000Y-85743000D01*
X78995000Y-85743000D02*
X83567000Y-85743000D01*
X83567000Y-85743000D02*
X83567000Y-91077000D01*
X78741000Y-88410000D02*
X79503000Y-88410000D01*
X79122000Y-88791000D02*
X79122000Y-88029000D01*
X83313000Y-88410000D02*
G75*
G03X83313000Y-88410000I-2413000J0D01*
G01*
X80215000Y-98496000D02*
X81612000Y-98496000D01*
X79961000Y-98369000D02*
X81739000Y-98369000D01*
X79580000Y-98242000D02*
X82120000Y-98242000D01*
X82247000Y-98115000D02*
X79453000Y-98115000D01*
X79326000Y-97988000D02*
X82374000Y-97988000D01*
X82501000Y-97861000D02*
X79199000Y-97861000D01*
X79072000Y-97734000D02*
X82628000Y-97734000D01*
X78183000Y-98877000D02*
X78183000Y-94305000D01*
X78183000Y-94305000D02*
X78945000Y-93543000D01*
X78945000Y-93543000D02*
X82755000Y-93543000D01*
X82755000Y-93543000D02*
X83517000Y-94305000D01*
X83517000Y-94305000D02*
X83517000Y-98877000D01*
X83517000Y-98877000D02*
X78183000Y-98877000D01*
X80850000Y-94051000D02*
X80850000Y-94813000D01*
X80469000Y-94432000D02*
X81231000Y-94432000D01*
X83263000Y-96210000D02*
G75*
G03X83263000Y-96210000I-2413000J0D01*
G01*
X103974000Y-124960000D02*
X103974000Y-123960000D01*
X102274000Y-123960000D02*
X102274000Y-124960000D01*
X87154900Y-58412540D02*
X78454900Y-58412540D01*
X87154900Y-64817540D02*
X78454900Y-64817540D01*
X78454900Y-64817540D02*
X78454900Y-58412540D01*
X78454900Y-59642540D02*
X87154900Y-59642540D01*
X87154900Y-58412540D02*
X87154900Y-64817540D01*
D13*
X121400000Y-95310000D02*
X127350000Y-95310000D01*
X127350000Y-95310000D02*
X127350000Y-87710000D01*
X127350000Y-87710000D02*
X121400000Y-87710000D01*
X121400000Y-87710000D02*
X121400000Y-95310000D01*
X121400000Y-92010000D02*
X122150000Y-92010000D01*
X122150000Y-92010000D02*
X122150000Y-91010000D01*
X122150000Y-91010000D02*
X121400000Y-91010000D01*
X121400000Y-91010000D02*
X121400000Y-92010000D01*
X121400000Y-95310000D02*
X122150000Y-95310000D01*
X122150000Y-95310000D02*
X122150000Y-93510000D01*
X122150000Y-93510000D02*
X121400000Y-93510000D01*
X121400000Y-93510000D02*
X121400000Y-95310000D01*
X121400000Y-89510000D02*
X122150000Y-89510000D01*
X122150000Y-89510000D02*
X122150000Y-87710000D01*
X122150000Y-87710000D02*
X121400000Y-87710000D01*
X121400000Y-87710000D02*
X121400000Y-89510000D01*
X123650000Y-95310000D02*
X123650000Y-94560000D01*
X123650000Y-94560000D02*
X126600000Y-94560000D01*
X126600000Y-94560000D02*
X126600000Y-91510000D01*
X123650000Y-87710000D02*
X123650000Y-88460000D01*
X123650000Y-88460000D02*
X126600000Y-88460000D01*
X126600000Y-88460000D02*
X126600000Y-91510000D01*
X121100000Y-93110000D02*
X121100000Y-95610000D01*
X121100000Y-95610000D02*
X123600000Y-95610000D01*
X121600000Y-86860000D02*
X127550000Y-86860000D01*
X127550000Y-86860000D02*
X127550000Y-79260000D01*
X127550000Y-79260000D02*
X121600000Y-79260000D01*
X121600000Y-79260000D02*
X121600000Y-86860000D01*
X121600000Y-83560000D02*
X122350000Y-83560000D01*
X122350000Y-83560000D02*
X122350000Y-82560000D01*
X122350000Y-82560000D02*
X121600000Y-82560000D01*
X121600000Y-82560000D02*
X121600000Y-83560000D01*
X121600000Y-86860000D02*
X122350000Y-86860000D01*
X122350000Y-86860000D02*
X122350000Y-85060000D01*
X122350000Y-85060000D02*
X121600000Y-85060000D01*
X121600000Y-85060000D02*
X121600000Y-86860000D01*
X121600000Y-81060000D02*
X122350000Y-81060000D01*
X122350000Y-81060000D02*
X122350000Y-79260000D01*
X122350000Y-79260000D02*
X121600000Y-79260000D01*
X121600000Y-79260000D02*
X121600000Y-81060000D01*
X123850000Y-86860000D02*
X123850000Y-86110000D01*
X123850000Y-86110000D02*
X126800000Y-86110000D01*
X126800000Y-86110000D02*
X126800000Y-83060000D01*
X123850000Y-79260000D02*
X123850000Y-80010000D01*
X123850000Y-80010000D02*
X126800000Y-80010000D01*
X126800000Y-80010000D02*
X126800000Y-83060000D01*
X121300000Y-84660000D02*
X121300000Y-87160000D01*
X121300000Y-87160000D02*
X123800000Y-87160000D01*
D14*
X89152000Y-104408000D02*
X88152000Y-105408000D01*
X88152000Y-105408000D02*
X88152000Y-107428000D01*
X88152000Y-107428000D02*
X101332000Y-107428000D01*
X101332000Y-107428000D02*
X101332000Y-104408000D01*
X101332000Y-104408000D02*
X89152000Y-104408000D01*
X99984000Y-87771000D02*
X101184000Y-87771000D01*
X101184000Y-89521000D02*
X99984000Y-89521000D01*
X77728000Y-117111000D02*
X78228000Y-117111000D01*
X78228000Y-116061000D02*
X77728000Y-116061000D01*
X77728000Y-118381000D02*
X78228000Y-118381000D01*
X78228000Y-117331000D02*
X77728000Y-117331000D01*
X77728000Y-119651000D02*
X78228000Y-119651000D01*
X78228000Y-118601000D02*
X77728000Y-118601000D01*
X95300000Y-118250000D02*
X95300000Y-118825000D01*
X85900000Y-127650000D02*
X85900000Y-127075000D01*
X95300000Y-127650000D02*
X95300000Y-127075000D01*
X85900000Y-118250000D02*
X86475000Y-118250000D01*
X85900000Y-127650000D02*
X86475000Y-127650000D01*
X95300000Y-127650000D02*
X94725000Y-127650000D01*
X95300000Y-118250000D02*
X94725000Y-118250000D01*
X89666000Y-133825000D02*
X90166000Y-133825000D01*
X90166000Y-132875000D02*
X89666000Y-132875000D01*
X102075000Y-90928000D02*
X102075000Y-90428000D01*
X101125000Y-90428000D02*
X101125000Y-90928000D01*
X103470000Y-90582000D02*
X103470000Y-91282000D01*
X102270000Y-91282000D02*
X102270000Y-90582000D01*
X102950000Y-85060000D02*
X102950000Y-84360000D01*
X104150000Y-84360000D02*
X104150000Y-85060000D01*
X105025000Y-84760000D02*
X105025000Y-85260000D01*
X105975000Y-85260000D02*
X105975000Y-84760000D01*
X92423000Y-130044000D02*
X92423000Y-129544000D01*
X91473000Y-129544000D02*
X91473000Y-130044000D01*
X88613000Y-130044000D02*
X88613000Y-129544000D01*
X87663000Y-129544000D02*
X87663000Y-130044000D01*
X90965000Y-116336000D02*
X90965000Y-116836000D01*
X91915000Y-116836000D02*
X91915000Y-116336000D01*
X93693000Y-130806000D02*
X93693000Y-130306000D01*
X92743000Y-130306000D02*
X92743000Y-130806000D01*
X83550000Y-123275000D02*
X84050000Y-123275000D01*
X84050000Y-122325000D02*
X83550000Y-122325000D01*
X100297000Y-124964000D02*
X100297000Y-124464000D01*
X99347000Y-124464000D02*
X99347000Y-124964000D01*
X101946000Y-124364000D02*
X101946000Y-125064000D01*
X100746000Y-125064000D02*
X100746000Y-124364000D01*
X73272000Y-116086000D02*
X73272000Y-117086000D01*
X73272000Y-117356000D02*
X73272000Y-118356000D01*
X73272000Y-118626000D02*
X73272000Y-119626000D01*
X68072000Y-83312000D02*
X65532000Y-83312000D01*
X70892000Y-83592000D02*
X69342000Y-83592000D01*
X68072000Y-83312000D02*
X68072000Y-80772000D01*
X69342000Y-80492000D02*
X70892000Y-80492000D01*
X70892000Y-80492000D02*
X70892000Y-83592000D01*
X68072000Y-80772000D02*
X65532000Y-80772000D01*
X65532000Y-80772000D02*
X65532000Y-83312000D01*
X68072000Y-77724000D02*
X65532000Y-77724000D01*
X70892000Y-78004000D02*
X69342000Y-78004000D01*
X68072000Y-77724000D02*
X68072000Y-75184000D01*
X69342000Y-74904000D02*
X70892000Y-74904000D01*
X70892000Y-74904000D02*
X70892000Y-78004000D01*
X68072000Y-75184000D02*
X65532000Y-75184000D01*
X65532000Y-75184000D02*
X65532000Y-77724000D01*
D15*
G36*
X114367072Y-73007279D02*
X114598137Y-73050181D01*
X114709882Y-73081031D01*
X114998271Y-73192761D01*
X115265405Y-73339950D01*
X115508902Y-73520164D01*
X115726381Y-73730970D01*
X115915461Y-73969932D01*
X116073760Y-74234619D01*
X116198898Y-74522595D01*
X116239283Y-74644250D01*
X116259462Y-74713035D01*
X116274330Y-74772960D01*
X116284701Y-74832442D01*
X116291385Y-74899900D01*
X116295195Y-74983752D01*
X116296941Y-75092418D01*
X116297436Y-75234316D01*
X116297446Y-75247500D01*
X116295703Y-75432130D01*
X116288878Y-75584263D01*
X116274976Y-75713620D01*
X116252003Y-75829923D01*
X116217964Y-75942895D01*
X116170864Y-76062259D01*
X116108708Y-76197736D01*
X116097847Y-76220288D01*
X115941210Y-76499297D01*
X115756348Y-76746829D01*
X115542826Y-76963338D01*
X115300211Y-77149279D01*
X115098899Y-77268949D01*
X114833910Y-77386713D01*
X114550561Y-77470556D01*
X114257440Y-77518979D01*
X113963130Y-77530482D01*
X113717917Y-77510036D01*
X113418013Y-77445962D01*
X113133314Y-77343469D01*
X112866641Y-77204620D01*
X112620817Y-77031479D01*
X112398666Y-76826109D01*
X112203010Y-76590573D01*
X112036673Y-76326936D01*
X111998012Y-76252916D01*
X111881204Y-75979036D01*
X111804795Y-75702028D01*
X111767485Y-75415655D01*
X111766324Y-75143425D01*
X111801721Y-74834710D01*
X111876339Y-74541914D01*
X111990196Y-74264996D01*
X112143308Y-74003914D01*
X112335695Y-73758626D01*
X112404632Y-73684421D01*
X112633356Y-73474591D01*
X112879939Y-73301582D01*
X113148725Y-73162765D01*
X113444060Y-73055514D01*
X113444858Y-73055276D01*
X113651412Y-73009855D01*
X113881863Y-72986875D01*
X114124365Y-72986097D01*
X114367072Y-73007279D01*
X114367072Y-73007279D01*
G37*
X114367072Y-73007279D02*
X114598137Y-73050181D01*
X114709882Y-73081031D01*
X114998271Y-73192761D01*
X115265405Y-73339950D01*
X115508902Y-73520164D01*
X115726381Y-73730970D01*
X115915461Y-73969932D01*
X116073760Y-74234619D01*
X116198898Y-74522595D01*
X116239283Y-74644250D01*
X116259462Y-74713035D01*
X116274330Y-74772960D01*
X116284701Y-74832442D01*
X116291385Y-74899900D01*
X116295195Y-74983752D01*
X116296941Y-75092418D01*
X116297436Y-75234316D01*
X116297446Y-75247500D01*
X116295703Y-75432130D01*
X116288878Y-75584263D01*
X116274976Y-75713620D01*
X116252003Y-75829923D01*
X116217964Y-75942895D01*
X116170864Y-76062259D01*
X116108708Y-76197736D01*
X116097847Y-76220288D01*
X115941210Y-76499297D01*
X115756348Y-76746829D01*
X115542826Y-76963338D01*
X115300211Y-77149279D01*
X115098899Y-77268949D01*
X114833910Y-77386713D01*
X114550561Y-77470556D01*
X114257440Y-77518979D01*
X113963130Y-77530482D01*
X113717917Y-77510036D01*
X113418013Y-77445962D01*
X113133314Y-77343469D01*
X112866641Y-77204620D01*
X112620817Y-77031479D01*
X112398666Y-76826109D01*
X112203010Y-76590573D01*
X112036673Y-76326936D01*
X111998012Y-76252916D01*
X111881204Y-75979036D01*
X111804795Y-75702028D01*
X111767485Y-75415655D01*
X111766324Y-75143425D01*
X111801721Y-74834710D01*
X111876339Y-74541914D01*
X111990196Y-74264996D01*
X112143308Y-74003914D01*
X112335695Y-73758626D01*
X112404632Y-73684421D01*
X112633356Y-73474591D01*
X112879939Y-73301582D01*
X113148725Y-73162765D01*
X113444060Y-73055514D01*
X113444858Y-73055276D01*
X113651412Y-73009855D01*
X113881863Y-72986875D01*
X114124365Y-72986097D01*
X114367072Y-73007279D01*
G36*
X126339808Y-72995486D02*
X126451389Y-72998289D01*
X126540168Y-73004004D01*
X126615901Y-73013483D01*
X126688344Y-73027582D01*
X126753730Y-73043604D01*
X127052946Y-73142657D01*
X127331104Y-73277446D01*
X127585922Y-73445764D01*
X127815116Y-73645405D01*
X128016402Y-73874163D01*
X128187497Y-74129830D01*
X128326117Y-74410200D01*
X128410116Y-74644250D01*
X128430295Y-74713035D01*
X128445164Y-74772960D01*
X128455534Y-74832442D01*
X128462219Y-74899900D01*
X128466028Y-74983752D01*
X128467774Y-75092418D01*
X128468269Y-75234316D01*
X128468279Y-75247500D01*
X128467830Y-75397287D01*
X128465820Y-75513077D01*
X128461586Y-75603197D01*
X128454466Y-75675974D01*
X128443798Y-75739735D01*
X128428918Y-75802807D01*
X128422065Y-75828166D01*
X128323071Y-76114161D01*
X128189636Y-76378346D01*
X128019362Y-76624906D01*
X127862132Y-76804863D01*
X127639037Y-77015168D01*
X127408506Y-77186395D01*
X127165231Y-77321745D01*
X126903905Y-77424422D01*
X126771523Y-77462775D01*
X126614344Y-77494561D01*
X126434837Y-77516093D01*
X126247082Y-77526761D01*
X126065159Y-77525953D01*
X125903150Y-77513057D01*
X125840804Y-77503206D01*
X125527830Y-77423578D01*
X125236525Y-77308638D01*
X124968654Y-77159693D01*
X124725981Y-76978048D01*
X124510271Y-76765008D01*
X124323289Y-76521879D01*
X124178468Y-76273369D01*
X124102626Y-76115745D01*
X124045282Y-75975698D01*
X124004063Y-75842566D01*
X123976596Y-75705690D01*
X123960509Y-75554409D01*
X123953429Y-75378063D01*
X123952516Y-75258083D01*
X123954671Y-75079583D01*
X123961958Y-74932951D01*
X123975970Y-74807868D01*
X123998299Y-74694015D01*
X124030539Y-74581074D01*
X124074282Y-74458728D01*
X124077027Y-74451587D01*
X124178284Y-74225619D01*
X124302236Y-74018952D01*
X124455770Y-73821167D01*
X124587000Y-73679926D01*
X124756248Y-73519307D01*
X124918524Y-73389012D01*
X125084998Y-73281117D01*
X125266841Y-73187698D01*
X125305479Y-73170301D01*
X125451055Y-73108870D01*
X125577579Y-73063308D01*
X125696380Y-73031382D01*
X125818788Y-73010856D01*
X125956134Y-72999497D01*
X126119747Y-72995069D01*
X126195667Y-72994738D01*
X126339808Y-72995486D01*
X126339808Y-72995486D01*
G37*
X126339808Y-72995486D02*
X126451389Y-72998289D01*
X126540168Y-73004004D01*
X126615901Y-73013483D01*
X126688344Y-73027582D01*
X126753730Y-73043604D01*
X127052946Y-73142657D01*
X127331104Y-73277446D01*
X127585922Y-73445764D01*
X127815116Y-73645405D01*
X128016402Y-73874163D01*
X128187497Y-74129830D01*
X128326117Y-74410200D01*
X128410116Y-74644250D01*
X128430295Y-74713035D01*
X128445164Y-74772960D01*
X128455534Y-74832442D01*
X128462219Y-74899900D01*
X128466028Y-74983752D01*
X128467774Y-75092418D01*
X128468269Y-75234316D01*
X128468279Y-75247500D01*
X128467830Y-75397287D01*
X128465820Y-75513077D01*
X128461586Y-75603197D01*
X128454466Y-75675974D01*
X128443798Y-75739735D01*
X128428918Y-75802807D01*
X128422065Y-75828166D01*
X128323071Y-76114161D01*
X128189636Y-76378346D01*
X128019362Y-76624906D01*
X127862132Y-76804863D01*
X127639037Y-77015168D01*
X127408506Y-77186395D01*
X127165231Y-77321745D01*
X126903905Y-77424422D01*
X126771523Y-77462775D01*
X126614344Y-77494561D01*
X126434837Y-77516093D01*
X126247082Y-77526761D01*
X126065159Y-77525953D01*
X125903150Y-77513057D01*
X125840804Y-77503206D01*
X125527830Y-77423578D01*
X125236525Y-77308638D01*
X124968654Y-77159693D01*
X124725981Y-76978048D01*
X124510271Y-76765008D01*
X124323289Y-76521879D01*
X124178468Y-76273369D01*
X124102626Y-76115745D01*
X124045282Y-75975698D01*
X124004063Y-75842566D01*
X123976596Y-75705690D01*
X123960509Y-75554409D01*
X123953429Y-75378063D01*
X123952516Y-75258083D01*
X123954671Y-75079583D01*
X123961958Y-74932951D01*
X123975970Y-74807868D01*
X123998299Y-74694015D01*
X124030539Y-74581074D01*
X124074282Y-74458728D01*
X124077027Y-74451587D01*
X124178284Y-74225619D01*
X124302236Y-74018952D01*
X124455770Y-73821167D01*
X124587000Y-73679926D01*
X124756248Y-73519307D01*
X124918524Y-73389012D01*
X125084998Y-73281117D01*
X125266841Y-73187698D01*
X125305479Y-73170301D01*
X125451055Y-73108870D01*
X125577579Y-73063308D01*
X125696380Y-73031382D01*
X125818788Y-73010856D01*
X125956134Y-72999497D01*
X126119747Y-72995069D01*
X126195667Y-72994738D01*
X126339808Y-72995486D01*
G36*
X110182288Y-70170316D02*
X110378104Y-70172702D01*
X110553072Y-70176851D01*
X110703018Y-70182709D01*
X110823768Y-70190223D01*
X110911146Y-70199338D01*
X110960979Y-70210000D01*
X110964741Y-70211623D01*
X111020125Y-70247426D01*
X111064631Y-70298865D01*
X111102429Y-70373341D01*
X111137687Y-70478259D01*
X111158614Y-70555973D01*
X111209176Y-70732719D01*
X111265359Y-70880401D01*
X111332988Y-71012289D01*
X111412335Y-71133909D01*
X111495766Y-71239122D01*
X111576658Y-71311535D01*
X111666382Y-71358330D01*
X111776306Y-71386691D01*
X111823818Y-71393877D01*
X111919402Y-71404150D01*
X112048495Y-71414703D01*
X112202276Y-71425084D01*
X112371925Y-71434839D01*
X112548624Y-71443514D01*
X112723553Y-71450655D01*
X112887893Y-71455810D01*
X113032824Y-71458523D01*
X113086393Y-71458826D01*
X113269519Y-71462773D01*
X113426269Y-71474018D01*
X113552328Y-71492016D01*
X113643383Y-71516219D01*
X113680434Y-71534146D01*
X113736138Y-71588053D01*
X113774791Y-71668670D01*
X113798264Y-71781142D01*
X113806651Y-71881302D01*
X113807266Y-71997171D01*
X113793092Y-72086741D01*
X113759229Y-72155054D01*
X113700778Y-72207151D01*
X113612840Y-72248072D01*
X113490516Y-72282860D01*
X113396528Y-72303302D01*
X113030487Y-72393454D01*
X112695411Y-72509955D01*
X112387769Y-72654618D01*
X112104028Y-72829255D01*
X111840656Y-73035681D01*
X111684251Y-73182216D01*
X111524463Y-73350604D01*
X111388896Y-73514436D01*
X111274047Y-73680616D01*
X111176415Y-73856052D01*
X111092497Y-74047646D01*
X111018791Y-74262305D01*
X110951795Y-74506935D01*
X110901302Y-74725955D01*
X110866107Y-74877764D01*
X110831382Y-74992447D01*
X110791914Y-75074828D01*
X110742490Y-75129733D01*
X110677899Y-75161985D01*
X110592926Y-75176409D01*
X110482360Y-75177828D01*
X110415917Y-75175172D01*
X110272774Y-75165653D01*
X110163827Y-75151789D01*
X110081002Y-75131524D01*
X110016222Y-75102804D01*
X109961411Y-75063573D01*
X109954824Y-75057796D01*
X109887571Y-74997706D01*
X109872970Y-74683394D01*
X109868065Y-74548882D01*
X109864166Y-74383068D01*
X109861267Y-74193108D01*
X109859360Y-73986155D01*
X109858441Y-73769365D01*
X109858501Y-73549891D01*
X109859534Y-73334889D01*
X109861534Y-73131512D01*
X109864494Y-72946916D01*
X109868408Y-72788254D01*
X109873269Y-72662681D01*
X109874858Y-72633416D01*
X109883202Y-72520598D01*
X109893803Y-72418558D01*
X109905437Y-72336985D01*
X109916885Y-72285573D01*
X109919601Y-72278508D01*
X109965998Y-72217988D01*
X110045011Y-72156724D01*
X110147440Y-72100556D01*
X110264081Y-72055321D01*
X110278045Y-72051068D01*
X110348345Y-72033888D01*
X110449324Y-72013965D01*
X110569598Y-71993323D01*
X110697782Y-71973987D01*
X110754528Y-71966315D01*
X110900825Y-71945909D01*
X111010836Y-71926667D01*
X111090501Y-71906714D01*
X111145758Y-71884177D01*
X111182546Y-71857179D01*
X111206804Y-71823848D01*
X111206993Y-71823494D01*
X111214200Y-71770312D01*
X111193837Y-71708846D01*
X111153441Y-71654473D01*
X111110079Y-71625738D01*
X111051028Y-71614768D01*
X110958941Y-71612324D01*
X110842047Y-71617493D01*
X110708579Y-71629360D01*
X110566765Y-71647009D01*
X110424837Y-71669526D01*
X110291025Y-71695997D01*
X110173560Y-71725506D01*
X110150448Y-71732401D01*
X110016461Y-71785331D01*
X109885562Y-71857720D01*
X109767427Y-71942636D01*
X109671733Y-72033145D01*
X109609288Y-72120138D01*
X109594908Y-72151369D01*
X109582445Y-72188585D01*
X109571685Y-72235164D01*
X109562409Y-72294484D01*
X109554402Y-72369923D01*
X109547448Y-72464861D01*
X109541330Y-72582674D01*
X109535832Y-72726741D01*
X109530736Y-72900441D01*
X109525828Y-73107151D01*
X109520890Y-73350251D01*
X109516990Y-73561113D01*
X109511660Y-73842809D01*
X109506385Y-74085403D01*
X109500948Y-74292128D01*
X109495129Y-74466215D01*
X109488711Y-74610894D01*
X109481474Y-74729398D01*
X109473201Y-74824958D01*
X109463672Y-74900805D01*
X109452671Y-74960171D01*
X109439977Y-75006286D01*
X109425373Y-75042383D01*
X109415638Y-75060518D01*
X109390485Y-75097871D01*
X109360930Y-75126867D01*
X109321637Y-75148508D01*
X109267271Y-75163796D01*
X109192495Y-75173733D01*
X109091975Y-75179322D01*
X108960373Y-75181566D01*
X108792354Y-75181465D01*
X108772301Y-75181359D01*
X108627487Y-75179856D01*
X108490216Y-75177150D01*
X108368488Y-75173495D01*
X108270301Y-75169150D01*
X108203657Y-75164370D01*
X108189294Y-75162647D01*
X108075837Y-75138635D01*
X107977157Y-75099458D01*
X107888833Y-75040769D01*
X107806444Y-74958221D01*
X107725570Y-74847467D01*
X107641790Y-74704159D01*
X107560546Y-74544369D01*
X107449829Y-74304375D01*
X107363103Y-74088734D01*
X107297376Y-73889177D01*
X107249656Y-73697439D01*
X107244194Y-73670509D01*
X107201816Y-73430981D01*
X107176755Y-73229517D01*
X107168994Y-73065561D01*
X107178521Y-72938553D01*
X107205320Y-72847937D01*
X107222046Y-72820160D01*
X107256928Y-72775451D01*
X107290304Y-72741253D01*
X107328456Y-72715856D01*
X107377669Y-72697552D01*
X107444224Y-72684632D01*
X107534404Y-72675387D01*
X107654493Y-72668108D01*
X107806186Y-72661280D01*
X108021349Y-72651765D01*
X108198153Y-72642877D01*
X108340556Y-72634163D01*
X108452519Y-72625174D01*
X108538002Y-72615457D01*
X108600963Y-72604561D01*
X108645362Y-72592034D01*
X108675161Y-72577426D01*
X108694317Y-72560286D01*
X108694530Y-72560023D01*
X108727582Y-72492001D01*
X108727158Y-72420817D01*
X108693598Y-72360910D01*
X108689757Y-72357275D01*
X108673107Y-72345290D01*
X108649223Y-72335667D01*
X108613055Y-72327950D01*
X108559552Y-72321682D01*
X108483663Y-72316405D01*
X108380338Y-72311664D01*
X108244526Y-72307001D01*
X108081215Y-72302239D01*
X107892717Y-72296713D01*
X107741425Y-72291445D01*
X107622216Y-72285939D01*
X107529969Y-72279700D01*
X107459563Y-72272232D01*
X107405875Y-72263040D01*
X107363785Y-72251628D01*
X107328171Y-72237501D01*
X107307556Y-72227400D01*
X107245733Y-72195430D01*
X107260316Y-72002257D01*
X107294077Y-71721853D01*
X107351811Y-71436140D01*
X107430133Y-71157868D01*
X107525658Y-70899784D01*
X107590507Y-70758560D01*
X107663139Y-70621213D01*
X107735316Y-70499151D01*
X107803192Y-70398027D01*
X107862921Y-70323492D01*
X107910657Y-70281198D01*
X107918002Y-70277297D01*
X107962045Y-70262568D01*
X108027982Y-70249274D01*
X108118748Y-70237177D01*
X108237282Y-70226040D01*
X108386520Y-70215624D01*
X108569398Y-70205693D01*
X108788854Y-70196007D01*
X109036586Y-70186722D01*
X109274028Y-70179483D01*
X109511493Y-70174277D01*
X109744808Y-70171050D01*
X109969798Y-70169747D01*
X110182288Y-70170316D01*
X110182288Y-70170316D01*
G37*
X110182288Y-70170316D02*
X110378104Y-70172702D01*
X110553072Y-70176851D01*
X110703018Y-70182709D01*
X110823768Y-70190223D01*
X110911146Y-70199338D01*
X110960979Y-70210000D01*
X110964741Y-70211623D01*
X111020125Y-70247426D01*
X111064631Y-70298865D01*
X111102429Y-70373341D01*
X111137687Y-70478259D01*
X111158614Y-70555973D01*
X111209176Y-70732719D01*
X111265359Y-70880401D01*
X111332988Y-71012289D01*
X111412335Y-71133909D01*
X111495766Y-71239122D01*
X111576658Y-71311535D01*
X111666382Y-71358330D01*
X111776306Y-71386691D01*
X111823818Y-71393877D01*
X111919402Y-71404150D01*
X112048495Y-71414703D01*
X112202276Y-71425084D01*
X112371925Y-71434839D01*
X112548624Y-71443514D01*
X112723553Y-71450655D01*
X112887893Y-71455810D01*
X113032824Y-71458523D01*
X113086393Y-71458826D01*
X113269519Y-71462773D01*
X113426269Y-71474018D01*
X113552328Y-71492016D01*
X113643383Y-71516219D01*
X113680434Y-71534146D01*
X113736138Y-71588053D01*
X113774791Y-71668670D01*
X113798264Y-71781142D01*
X113806651Y-71881302D01*
X113807266Y-71997171D01*
X113793092Y-72086741D01*
X113759229Y-72155054D01*
X113700778Y-72207151D01*
X113612840Y-72248072D01*
X113490516Y-72282860D01*
X113396528Y-72303302D01*
X113030487Y-72393454D01*
X112695411Y-72509955D01*
X112387769Y-72654618D01*
X112104028Y-72829255D01*
X111840656Y-73035681D01*
X111684251Y-73182216D01*
X111524463Y-73350604D01*
X111388896Y-73514436D01*
X111274047Y-73680616D01*
X111176415Y-73856052D01*
X111092497Y-74047646D01*
X111018791Y-74262305D01*
X110951795Y-74506935D01*
X110901302Y-74725955D01*
X110866107Y-74877764D01*
X110831382Y-74992447D01*
X110791914Y-75074828D01*
X110742490Y-75129733D01*
X110677899Y-75161985D01*
X110592926Y-75176409D01*
X110482360Y-75177828D01*
X110415917Y-75175172D01*
X110272774Y-75165653D01*
X110163827Y-75151789D01*
X110081002Y-75131524D01*
X110016222Y-75102804D01*
X109961411Y-75063573D01*
X109954824Y-75057796D01*
X109887571Y-74997706D01*
X109872970Y-74683394D01*
X109868065Y-74548882D01*
X109864166Y-74383068D01*
X109861267Y-74193108D01*
X109859360Y-73986155D01*
X109858441Y-73769365D01*
X109858501Y-73549891D01*
X109859534Y-73334889D01*
X109861534Y-73131512D01*
X109864494Y-72946916D01*
X109868408Y-72788254D01*
X109873269Y-72662681D01*
X109874858Y-72633416D01*
X109883202Y-72520598D01*
X109893803Y-72418558D01*
X109905437Y-72336985D01*
X109916885Y-72285573D01*
X109919601Y-72278508D01*
X109965998Y-72217988D01*
X110045011Y-72156724D01*
X110147440Y-72100556D01*
X110264081Y-72055321D01*
X110278045Y-72051068D01*
X110348345Y-72033888D01*
X110449324Y-72013965D01*
X110569598Y-71993323D01*
X110697782Y-71973987D01*
X110754528Y-71966315D01*
X110900825Y-71945909D01*
X111010836Y-71926667D01*
X111090501Y-71906714D01*
X111145758Y-71884177D01*
X111182546Y-71857179D01*
X111206804Y-71823848D01*
X111206993Y-71823494D01*
X111214200Y-71770312D01*
X111193837Y-71708846D01*
X111153441Y-71654473D01*
X111110079Y-71625738D01*
X111051028Y-71614768D01*
X110958941Y-71612324D01*
X110842047Y-71617493D01*
X110708579Y-71629360D01*
X110566765Y-71647009D01*
X110424837Y-71669526D01*
X110291025Y-71695997D01*
X110173560Y-71725506D01*
X110150448Y-71732401D01*
X110016461Y-71785331D01*
X109885562Y-71857720D01*
X109767427Y-71942636D01*
X109671733Y-72033145D01*
X109609288Y-72120138D01*
X109594908Y-72151369D01*
X109582445Y-72188585D01*
X109571685Y-72235164D01*
X109562409Y-72294484D01*
X109554402Y-72369923D01*
X109547448Y-72464861D01*
X109541330Y-72582674D01*
X109535832Y-72726741D01*
X109530736Y-72900441D01*
X109525828Y-73107151D01*
X109520890Y-73350251D01*
X109516990Y-73561113D01*
X109511660Y-73842809D01*
X109506385Y-74085403D01*
X109500948Y-74292128D01*
X109495129Y-74466215D01*
X109488711Y-74610894D01*
X109481474Y-74729398D01*
X109473201Y-74824958D01*
X109463672Y-74900805D01*
X109452671Y-74960171D01*
X109439977Y-75006286D01*
X109425373Y-75042383D01*
X109415638Y-75060518D01*
X109390485Y-75097871D01*
X109360930Y-75126867D01*
X109321637Y-75148508D01*
X109267271Y-75163796D01*
X109192495Y-75173733D01*
X109091975Y-75179322D01*
X108960373Y-75181566D01*
X108792354Y-75181465D01*
X108772301Y-75181359D01*
X108627487Y-75179856D01*
X108490216Y-75177150D01*
X108368488Y-75173495D01*
X108270301Y-75169150D01*
X108203657Y-75164370D01*
X108189294Y-75162647D01*
X108075837Y-75138635D01*
X107977157Y-75099458D01*
X107888833Y-75040769D01*
X107806444Y-74958221D01*
X107725570Y-74847467D01*
X107641790Y-74704159D01*
X107560546Y-74544369D01*
X107449829Y-74304375D01*
X107363103Y-74088734D01*
X107297376Y-73889177D01*
X107249656Y-73697439D01*
X107244194Y-73670509D01*
X107201816Y-73430981D01*
X107176755Y-73229517D01*
X107168994Y-73065561D01*
X107178521Y-72938553D01*
X107205320Y-72847937D01*
X107222046Y-72820160D01*
X107256928Y-72775451D01*
X107290304Y-72741253D01*
X107328456Y-72715856D01*
X107377669Y-72697552D01*
X107444224Y-72684632D01*
X107534404Y-72675387D01*
X107654493Y-72668108D01*
X107806186Y-72661280D01*
X108021349Y-72651765D01*
X108198153Y-72642877D01*
X108340556Y-72634163D01*
X108452519Y-72625174D01*
X108538002Y-72615457D01*
X108600963Y-72604561D01*
X108645362Y-72592034D01*
X108675161Y-72577426D01*
X108694317Y-72560286D01*
X108694530Y-72560023D01*
X108727582Y-72492001D01*
X108727158Y-72420817D01*
X108693598Y-72360910D01*
X108689757Y-72357275D01*
X108673107Y-72345290D01*
X108649223Y-72335667D01*
X108613055Y-72327950D01*
X108559552Y-72321682D01*
X108483663Y-72316405D01*
X108380338Y-72311664D01*
X108244526Y-72307001D01*
X108081215Y-72302239D01*
X107892717Y-72296713D01*
X107741425Y-72291445D01*
X107622216Y-72285939D01*
X107529969Y-72279700D01*
X107459563Y-72272232D01*
X107405875Y-72263040D01*
X107363785Y-72251628D01*
X107328171Y-72237501D01*
X107307556Y-72227400D01*
X107245733Y-72195430D01*
X107260316Y-72002257D01*
X107294077Y-71721853D01*
X107351811Y-71436140D01*
X107430133Y-71157868D01*
X107525658Y-70899784D01*
X107590507Y-70758560D01*
X107663139Y-70621213D01*
X107735316Y-70499151D01*
X107803192Y-70398027D01*
X107862921Y-70323492D01*
X107910657Y-70281198D01*
X107918002Y-70277297D01*
X107962045Y-70262568D01*
X108027982Y-70249274D01*
X108118748Y-70237177D01*
X108237282Y-70226040D01*
X108386520Y-70215624D01*
X108569398Y-70205693D01*
X108788854Y-70196007D01*
X109036586Y-70186722D01*
X109274028Y-70179483D01*
X109511493Y-70174277D01*
X109744808Y-70171050D01*
X109969798Y-70169747D01*
X110182288Y-70170316D01*
G36*
X132180718Y-67800216D02*
X132297224Y-67806274D01*
X132394309Y-67816826D01*
X132459582Y-67828285D01*
X132586823Y-67858884D01*
X132679723Y-67891156D01*
X132746235Y-67928613D01*
X132794310Y-67974771D01*
X132796081Y-67976998D01*
X132832166Y-68039631D01*
X132871648Y-68137394D01*
X132912337Y-68263454D01*
X132952046Y-68410977D01*
X132988586Y-68573129D01*
X132991406Y-68587022D01*
X133013245Y-68710269D01*
X133020551Y-68800242D01*
X133011870Y-68863929D01*
X132985751Y-68908317D01*
X132940741Y-68940394D01*
X132915557Y-68952000D01*
X132882046Y-68961717D01*
X132828150Y-68970852D01*
X132751708Y-68979511D01*
X132650562Y-68987801D01*
X132522553Y-68995829D01*
X132365520Y-69003700D01*
X132177306Y-69011521D01*
X131955749Y-69019399D01*
X131698692Y-69027440D01*
X131403974Y-69035750D01*
X131069436Y-69044437D01*
X131011083Y-69045893D01*
X130695516Y-69054007D01*
X130419770Y-69061738D01*
X130181337Y-69069219D01*
X129977708Y-69076587D01*
X129806374Y-69083977D01*
X129664827Y-69091523D01*
X129550558Y-69099362D01*
X129461058Y-69107627D01*
X129393819Y-69116456D01*
X129346331Y-69125982D01*
X129316087Y-69136340D01*
X129314061Y-69137351D01*
X129249137Y-69183249D01*
X129175442Y-69253958D01*
X129104327Y-69337045D01*
X129047146Y-69420079D01*
X129033855Y-69444197D01*
X129007776Y-69504330D01*
X128976377Y-69589874D01*
X128945233Y-69685333D01*
X128936017Y-69716176D01*
X128902318Y-69854103D01*
X128878478Y-70005173D01*
X128864499Y-70173471D01*
X128860385Y-70363081D01*
X128866137Y-70578088D01*
X128881759Y-70822577D01*
X128907254Y-71100632D01*
X128937088Y-71369817D01*
X128966999Y-71616854D01*
X128994023Y-71825069D01*
X129018756Y-71997829D01*
X129041795Y-72138501D01*
X129063736Y-72250454D01*
X129085175Y-72337055D01*
X129106709Y-72401671D01*
X129127584Y-72445396D01*
X129223338Y-72568795D01*
X129358021Y-72680154D01*
X129529675Y-72778420D01*
X129736348Y-72862542D01*
X129976083Y-72931467D01*
X130069167Y-72952163D01*
X130155835Y-72965422D01*
X130277582Y-72977253D01*
X130427160Y-72987115D01*
X130597325Y-72994466D01*
X130661833Y-72996384D01*
X130815932Y-72999294D01*
X130960113Y-72999218D01*
X131101107Y-72995659D01*
X131245642Y-72988121D01*
X131400447Y-72976106D01*
X131572252Y-72959120D01*
X131767787Y-72936664D01*
X131993780Y-72908242D01*
X132169071Y-72885150D01*
X132300239Y-72868589D01*
X132419699Y-72855286D01*
X132520113Y-72845916D01*
X132594144Y-72841155D01*
X132634454Y-72841678D01*
X132636590Y-72842106D01*
X132689358Y-72864399D01*
X132743311Y-72899076D01*
X132779186Y-72935024D01*
X132795767Y-72979218D01*
X132799667Y-73045335D01*
X132788777Y-73150373D01*
X132756174Y-73291365D01*
X132701954Y-73467980D01*
X132626212Y-73679890D01*
X132575998Y-73809889D01*
X132490593Y-74020177D01*
X132403706Y-74223062D01*
X132317657Y-74413795D01*
X132234769Y-74587628D01*
X132157363Y-74739813D01*
X132087760Y-74865602D01*
X132028283Y-74960247D01*
X131988382Y-75011628D01*
X131943653Y-75050654D01*
X131879064Y-75096379D01*
X131836583Y-75122554D01*
X131730750Y-75183602D01*
X129825750Y-75183602D01*
X129718269Y-75121954D01*
X129604858Y-75041936D01*
X129518483Y-74949948D01*
X129465820Y-74853505D01*
X129458742Y-74829736D01*
X129447537Y-74779597D01*
X129430568Y-74698211D01*
X129409944Y-74595924D01*
X129387777Y-74483082D01*
X129382667Y-74456648D01*
X129335597Y-74232962D01*
X129286621Y-74043831D01*
X129233313Y-73881478D01*
X129173244Y-73738127D01*
X129134016Y-73660000D01*
X128961000Y-73380472D01*
X128753359Y-73123821D01*
X128512961Y-72891466D01*
X128241676Y-72684827D01*
X127941372Y-72505326D01*
X127613917Y-72354382D01*
X127261181Y-72233416D01*
X127254866Y-72231595D01*
X127089961Y-72188010D01*
X126933874Y-72155820D01*
X126776634Y-72134001D01*
X126608272Y-72121531D01*
X126418816Y-72117387D01*
X126198298Y-72120546D01*
X126177889Y-72121116D01*
X125962623Y-72130120D01*
X125778093Y-72144851D01*
X125612880Y-72167153D01*
X125455565Y-72198867D01*
X125294730Y-72241837D01*
X125152969Y-72286512D01*
X124842225Y-72408012D01*
X124544910Y-72560426D01*
X124265475Y-72740114D01*
X124008368Y-72943438D01*
X123778039Y-73166761D01*
X123578938Y-73406444D01*
X123415514Y-73658849D01*
X123370245Y-73744167D01*
X123290257Y-73917397D01*
X123227188Y-74087886D01*
X123178379Y-74265931D01*
X123141165Y-74461833D01*
X123112885Y-74685889D01*
X123104749Y-74771250D01*
X123093544Y-74895249D01*
X123083924Y-74983267D01*
X123073466Y-75041468D01*
X123059750Y-75076012D01*
X123040353Y-75093062D01*
X123012854Y-75098782D01*
X122975827Y-75099333D01*
X122918877Y-75095167D01*
X122886779Y-75075476D01*
X122862317Y-75029467D01*
X122861586Y-75027723D01*
X122846790Y-74980656D01*
X122833649Y-74912860D01*
X122822042Y-74821978D01*
X122811852Y-74705655D01*
X122802957Y-74561536D01*
X122795239Y-74387265D01*
X122788578Y-74180487D01*
X122782855Y-73938845D01*
X122777949Y-73659985D01*
X122773743Y-73341551D01*
X122773089Y-73283391D01*
X122760472Y-72134199D01*
X122707798Y-72092766D01*
X122637415Y-72056252D01*
X122571797Y-72061771D01*
X122509958Y-72109425D01*
X122506152Y-72113857D01*
X122483977Y-72143645D01*
X122468187Y-72177039D01*
X122457018Y-72222625D01*
X122448707Y-72288990D01*
X122441491Y-72384720D01*
X122437687Y-72447232D01*
X122435019Y-72518768D01*
X122433136Y-72624855D01*
X122431989Y-72760428D01*
X122431528Y-72920425D01*
X122431703Y-73099782D01*
X122432463Y-73293437D01*
X122433759Y-73496326D01*
X122435541Y-73703387D01*
X122437758Y-73909555D01*
X122440361Y-74109769D01*
X122443299Y-74298964D01*
X122446523Y-74472079D01*
X122449983Y-74624049D01*
X122453628Y-74749811D01*
X122457410Y-74844303D01*
X122461276Y-74902461D01*
X122461997Y-74908833D01*
X122465922Y-74971850D01*
X122454310Y-75020973D01*
X122421405Y-75076171D01*
X122408608Y-75094041D01*
X122343068Y-75184000D01*
X119956659Y-75181171D01*
X119640238Y-75180672D01*
X119334287Y-75179946D01*
X119041633Y-75179013D01*
X118765099Y-75177893D01*
X118507512Y-75176605D01*
X118271697Y-75175169D01*
X118060480Y-75173605D01*
X117876685Y-75171930D01*
X117723137Y-75170166D01*
X117602663Y-75168332D01*
X117518088Y-75166447D01*
X117472237Y-75164531D01*
X117466757Y-75163996D01*
X117381670Y-75142583D01*
X117323272Y-75102635D01*
X117315298Y-75093885D01*
X117281538Y-75036242D01*
X117251215Y-74953137D01*
X117229359Y-74861408D01*
X117221000Y-74778159D01*
X117216341Y-74733065D01*
X117203754Y-74656807D01*
X117185326Y-74559351D01*
X117163143Y-74450666D01*
X117139292Y-74340718D01*
X117115858Y-74239474D01*
X117094927Y-74156903D01*
X117081302Y-74110730D01*
X116987905Y-73884904D01*
X116859899Y-73655350D01*
X116703248Y-73430415D01*
X116523918Y-73218448D01*
X116327873Y-73027799D01*
X116276161Y-72983795D01*
X116095245Y-72843892D01*
X115910418Y-72721626D01*
X115715513Y-72614282D01*
X115504361Y-72519143D01*
X115270792Y-72433495D01*
X115008638Y-72354623D01*
X114711729Y-72279812D01*
X114638667Y-72263073D01*
X114478884Y-72220969D01*
X114351196Y-72174423D01*
X114258753Y-72124878D01*
X114204710Y-72073779D01*
X114197626Y-72061056D01*
X114182628Y-72002193D01*
X114174527Y-71916245D01*
X114173103Y-71817236D01*
X114178134Y-71719192D01*
X114189401Y-71636136D01*
X114205108Y-71584973D01*
X114234693Y-71540511D01*
X114275745Y-71505837D01*
X114334326Y-71478937D01*
X114416494Y-71457797D01*
X114528310Y-71440403D01*
X114675833Y-71424742D01*
X114691583Y-71423302D01*
X115001360Y-71389114D01*
X115276318Y-71344924D01*
X115523182Y-71288867D01*
X115748678Y-71219075D01*
X115959531Y-71133684D01*
X116162465Y-71030827D01*
X116215769Y-71000405D01*
X116333962Y-70921772D01*
X116452436Y-70825968D01*
X116562370Y-70721563D01*
X116654943Y-70617130D01*
X116721334Y-70521241D01*
X116734312Y-70496502D01*
X116748355Y-70465569D01*
X116759686Y-70434374D01*
X116768748Y-70397846D01*
X116775985Y-70350913D01*
X116781840Y-70288502D01*
X116786755Y-70205541D01*
X116791175Y-70096958D01*
X116795543Y-69957682D01*
X116800301Y-69782639D01*
X116801832Y-69723918D01*
X116808634Y-69480605D01*
X116815555Y-69276066D01*
X116822903Y-69106742D01*
X116830987Y-68969073D01*
X116840115Y-68859501D01*
X116850595Y-68774466D01*
X116862737Y-68710409D01*
X116876849Y-68663772D01*
X116893240Y-68630994D01*
X116897067Y-68625447D01*
X116969445Y-68557066D01*
X117072487Y-68510152D01*
X117209233Y-68483529D01*
X117277500Y-68478113D01*
X117415962Y-68474128D01*
X117521913Y-68480112D01*
X117604430Y-68498130D01*
X117672593Y-68530248D01*
X117735479Y-68578531D01*
X117741047Y-68583608D01*
X117776165Y-68617969D01*
X117807032Y-68654161D01*
X117834181Y-68695333D01*
X117858146Y-68744631D01*
X117879460Y-68805203D01*
X117898658Y-68880198D01*
X117916273Y-68972763D01*
X117932839Y-69086045D01*
X117948889Y-69223192D01*
X117964957Y-69387352D01*
X117981577Y-69581673D01*
X117999282Y-69809302D01*
X118018607Y-70073388D01*
X118036520Y-70326250D01*
X118054858Y-70582881D01*
X118071183Y-70800816D01*
X118085844Y-70983625D01*
X118099191Y-71134880D01*
X118111573Y-71258150D01*
X118123337Y-71357007D01*
X118134833Y-71435021D01*
X118146410Y-71495764D01*
X118153747Y-71526187D01*
X118193279Y-71604775D01*
X118268051Y-71688069D01*
X118371881Y-71772050D01*
X118498583Y-71852701D01*
X118641974Y-71926002D01*
X118795869Y-71987937D01*
X118924917Y-72027256D01*
X119110001Y-72070483D01*
X119291338Y-72104189D01*
X119457535Y-72126578D01*
X119597203Y-72135850D01*
X119614070Y-72136000D01*
X119692853Y-72134377D01*
X119742001Y-72127003D01*
X119774166Y-72110120D01*
X119801797Y-72080228D01*
X119840331Y-72005387D01*
X119839322Y-71935513D01*
X119800757Y-71877676D01*
X119734632Y-71841443D01*
X119688684Y-71829473D01*
X119610890Y-71812554D01*
X119511157Y-71792714D01*
X119399393Y-71771982D01*
X119369345Y-71766654D01*
X119177617Y-71730180D01*
X119019690Y-71693319D01*
X118887083Y-71653549D01*
X118771318Y-71608349D01*
X118670917Y-71559004D01*
X118628539Y-71535811D01*
X118592062Y-71513243D01*
X118560799Y-71488007D01*
X118534060Y-71456808D01*
X118511156Y-71416352D01*
X118491400Y-71363345D01*
X118474103Y-71294492D01*
X118458575Y-71206500D01*
X118444129Y-71096074D01*
X118430077Y-70959920D01*
X118415728Y-70794743D01*
X118400396Y-70597250D01*
X118383391Y-70364146D01*
X118364025Y-70092137D01*
X118363875Y-70090026D01*
X118344762Y-69817997D01*
X118329074Y-69584802D01*
X118316954Y-69387071D01*
X118308544Y-69221431D01*
X118303986Y-69084511D01*
X118303424Y-68972940D01*
X118307000Y-68883346D01*
X118314856Y-68812358D01*
X118327137Y-68756604D01*
X118343983Y-68712713D01*
X118365538Y-68677313D01*
X118391944Y-68647034D01*
X118423344Y-68618503D01*
X118426246Y-68616053D01*
X118469963Y-68584180D01*
X118514965Y-68566841D01*
X118576525Y-68559865D01*
X118635499Y-68558912D01*
X118758347Y-68569641D01*
X118850178Y-68603929D01*
X118917195Y-68665158D01*
X118956328Y-68734022D01*
X118979215Y-68806604D01*
X119002596Y-68920345D01*
X119026302Y-69074073D01*
X119050163Y-69266620D01*
X119074011Y-69496815D01*
X119086721Y-69635206D01*
X119113542Y-69938995D01*
X119241479Y-70055482D01*
X119433773Y-70212432D01*
X119644828Y-70348520D01*
X119881733Y-70467680D01*
X120151574Y-70573844D01*
X120213707Y-70595061D01*
X120364158Y-70646819D01*
X120479917Y-70691527D01*
X120567139Y-70733251D01*
X120631979Y-70776059D01*
X120680593Y-70824015D01*
X120719136Y-70881186D01*
X120753763Y-70951640D01*
X120753884Y-70951913D01*
X120778293Y-71022737D01*
X120805522Y-71128457D01*
X120834204Y-71261842D01*
X120862975Y-71415661D01*
X120890469Y-71582684D01*
X120915322Y-71755679D01*
X120933479Y-71903166D01*
X120946542Y-72028349D01*
X120959295Y-72167452D01*
X120971321Y-72313908D01*
X120982201Y-72461145D01*
X120991518Y-72602595D01*
X120998854Y-72731687D01*
X121003791Y-72841853D01*
X121005911Y-72926522D01*
X121004796Y-72979125D01*
X121002723Y-72991831D01*
X120965542Y-73038168D01*
X120891878Y-73086775D01*
X120787347Y-73135476D01*
X120657565Y-73182095D01*
X120508148Y-73224458D01*
X120344712Y-73260388D01*
X120279583Y-73271988D01*
X120223248Y-73280705D01*
X120165055Y-73288031D01*
X120100893Y-73294083D01*
X120026647Y-73298980D01*
X119938207Y-73302837D01*
X119831460Y-73305773D01*
X119702294Y-73307905D01*
X119546595Y-73309351D01*
X119360253Y-73310229D01*
X119139154Y-73310654D01*
X118922930Y-73310750D01*
X118668181Y-73310772D01*
X118452512Y-73311037D01*
X118272670Y-73311846D01*
X118125402Y-73313497D01*
X118007453Y-73316290D01*
X117915572Y-73320523D01*
X117846503Y-73326496D01*
X117796995Y-73334508D01*
X117763794Y-73344858D01*
X117743646Y-73357846D01*
X117733299Y-73373771D01*
X117729499Y-73392932D01*
X117728992Y-73415628D01*
X117729000Y-73420566D01*
X117747080Y-73503107D01*
X117801373Y-73563748D01*
X117844597Y-73586938D01*
X117902256Y-73601736D01*
X117997217Y-73614897D01*
X118124478Y-73626376D01*
X118279036Y-73636132D01*
X118455889Y-73644118D01*
X118650036Y-73650293D01*
X118856475Y-73654612D01*
X119070204Y-73657032D01*
X119286221Y-73657509D01*
X119499523Y-73655999D01*
X119705110Y-73652459D01*
X119897978Y-73646846D01*
X120073127Y-73639114D01*
X120225554Y-73629222D01*
X120350257Y-73617124D01*
X120406583Y-73609296D01*
X120613824Y-73567123D01*
X120803586Y-73511284D01*
X120971480Y-73444026D01*
X121113120Y-73367599D01*
X121224116Y-73284252D01*
X121300082Y-73196234D01*
X121328952Y-73136511D01*
X121338492Y-73081262D01*
X121343982Y-72990367D01*
X121345644Y-72870298D01*
X121343701Y-72727528D01*
X121338379Y-72568527D01*
X121329898Y-72399768D01*
X121318484Y-72227722D01*
X121304359Y-72058861D01*
X121287747Y-71899657D01*
X121285656Y-71882000D01*
X121260992Y-71675589D01*
X121241237Y-71506919D01*
X121226086Y-71371719D01*
X121215238Y-71265720D01*
X121208388Y-71184649D01*
X121205235Y-71124237D01*
X121205475Y-71080214D01*
X121208805Y-71048308D01*
X121214923Y-71024249D01*
X121223381Y-71004065D01*
X121258545Y-70951800D01*
X121311324Y-70911052D01*
X121388008Y-70879148D01*
X121494884Y-70853416D01*
X121626650Y-70832715D01*
X121820359Y-70805776D01*
X121981285Y-70780605D01*
X122118819Y-70755315D01*
X122242353Y-70728015D01*
X122361279Y-70696817D01*
X122482880Y-70660493D01*
X122600094Y-70625241D01*
X122691676Y-70602203D01*
X122771710Y-70588936D01*
X122854280Y-70582997D01*
X122936000Y-70581884D01*
X123023804Y-70582994D01*
X123092780Y-70587880D01*
X123155449Y-70599314D01*
X123224334Y-70620069D01*
X123311959Y-70652917D01*
X123380500Y-70680294D01*
X123474800Y-70717349D01*
X123565116Y-70750237D01*
X123654518Y-70779226D01*
X123746072Y-70804583D01*
X123842847Y-70826576D01*
X123947911Y-70845473D01*
X124064332Y-70861541D01*
X124195177Y-70875048D01*
X124343515Y-70886262D01*
X124512414Y-70895449D01*
X124704942Y-70902879D01*
X124924166Y-70908817D01*
X125173155Y-70913533D01*
X125454977Y-70917293D01*
X125772700Y-70920365D01*
X126129391Y-70923017D01*
X126166037Y-70923261D01*
X127819157Y-70934176D01*
X127864662Y-70860548D01*
X127900401Y-70790602D01*
X127905925Y-70735006D01*
X127881172Y-70678397D01*
X127863853Y-70653476D01*
X127817539Y-70590833D01*
X127022478Y-70589938D01*
X126760631Y-70589119D01*
X126491395Y-70587301D01*
X126218867Y-70584576D01*
X125947143Y-70581036D01*
X125680320Y-70576773D01*
X125422496Y-70571879D01*
X125177766Y-70566445D01*
X124950229Y-70560564D01*
X124743980Y-70554328D01*
X124563116Y-70547828D01*
X124411734Y-70541156D01*
X124293932Y-70534405D01*
X124213805Y-70527665D01*
X124206000Y-70526749D01*
X124033259Y-70499718D01*
X123861437Y-70462373D01*
X123696892Y-70416980D01*
X123545983Y-70365801D01*
X123415071Y-70311100D01*
X123310513Y-70255141D01*
X123238671Y-70200188D01*
X123217766Y-70174973D01*
X123188277Y-70103888D01*
X123175339Y-70003929D01*
X123178907Y-69872062D01*
X123198934Y-69705256D01*
X123209778Y-69638333D01*
X123277818Y-69300792D01*
X123360067Y-69002202D01*
X123456965Y-68741482D01*
X123568948Y-68517552D01*
X123696456Y-68329330D01*
X123779395Y-68234331D01*
X123843906Y-68173607D01*
X123910689Y-68120451D01*
X123955071Y-68092159D01*
X124018147Y-68067581D01*
X124105799Y-68047239D01*
X124220923Y-68030889D01*
X124366415Y-68018286D01*
X124545171Y-68009186D01*
X124760086Y-68003345D01*
X125014056Y-68000517D01*
X125042083Y-68000389D01*
X125230475Y-67999812D01*
X125381585Y-68000344D01*
X125500464Y-68002853D01*
X125592162Y-68008210D01*
X125661732Y-68017285D01*
X125714223Y-68030947D01*
X125754686Y-68050067D01*
X125788173Y-68075514D01*
X125819733Y-68108158D01*
X125845977Y-68138838D01*
X125877192Y-68178342D01*
X125902944Y-68218725D01*
X125924387Y-68265186D01*
X125942673Y-68322925D01*
X125958953Y-68397141D01*
X125974381Y-68493036D01*
X125990108Y-68615808D01*
X126007286Y-68770657D01*
X126025818Y-68950416D01*
X126044690Y-69130642D01*
X126061366Y-69273528D01*
X126076809Y-69383946D01*
X126091982Y-69466773D01*
X126107847Y-69526883D01*
X126125366Y-69569149D01*
X126145501Y-69598448D01*
X126155791Y-69608807D01*
X126218092Y-69640606D01*
X126289031Y-69641991D01*
X126351515Y-69613899D01*
X126368298Y-69597182D01*
X126382369Y-69577960D01*
X126393017Y-69556087D01*
X126400210Y-69526828D01*
X126403915Y-69485445D01*
X126404100Y-69427199D01*
X126400732Y-69347354D01*
X126393779Y-69241173D01*
X126383209Y-69103917D01*
X126368988Y-68930849D01*
X126363273Y-68862488D01*
X126351493Y-68713612D01*
X126341841Y-68575167D01*
X126334683Y-68453883D01*
X126330385Y-68356488D01*
X126329314Y-68289714D01*
X126330729Y-68264487D01*
X126364979Y-68178248D01*
X126434312Y-68104762D01*
X126531938Y-68050551D01*
X126565228Y-68039171D01*
X126615797Y-68027051D01*
X126684050Y-68016003D01*
X126772452Y-68005906D01*
X126883466Y-67996641D01*
X127019554Y-67988088D01*
X127183181Y-67980127D01*
X127376810Y-67972639D01*
X127602903Y-67965504D01*
X127863924Y-67958601D01*
X128162337Y-67951812D01*
X128500604Y-67945017D01*
X128502833Y-67944974D01*
X128829005Y-67938518D01*
X129119460Y-67932155D01*
X129380812Y-67925621D01*
X129619675Y-67918653D01*
X129842663Y-67910987D01*
X130056392Y-67902358D01*
X130267475Y-67892504D01*
X130482527Y-67881160D01*
X130708162Y-67868062D01*
X130950994Y-67852947D01*
X131174725Y-67838391D01*
X131444971Y-67821529D01*
X131676917Y-67809309D01*
X131874340Y-67801704D01*
X132041015Y-67798683D01*
X132180718Y-67800216D01*
X132180718Y-67800216D01*
G37*
X132180718Y-67800216D02*
X132297224Y-67806274D01*
X132394309Y-67816826D01*
X132459582Y-67828285D01*
X132586823Y-67858884D01*
X132679723Y-67891156D01*
X132746235Y-67928613D01*
X132794310Y-67974771D01*
X132796081Y-67976998D01*
X132832166Y-68039631D01*
X132871648Y-68137394D01*
X132912337Y-68263454D01*
X132952046Y-68410977D01*
X132988586Y-68573129D01*
X132991406Y-68587022D01*
X133013245Y-68710269D01*
X133020551Y-68800242D01*
X133011870Y-68863929D01*
X132985751Y-68908317D01*
X132940741Y-68940394D01*
X132915557Y-68952000D01*
X132882046Y-68961717D01*
X132828150Y-68970852D01*
X132751708Y-68979511D01*
X132650562Y-68987801D01*
X132522553Y-68995829D01*
X132365520Y-69003700D01*
X132177306Y-69011521D01*
X131955749Y-69019399D01*
X131698692Y-69027440D01*
X131403974Y-69035750D01*
X131069436Y-69044437D01*
X131011083Y-69045893D01*
X130695516Y-69054007D01*
X130419770Y-69061738D01*
X130181337Y-69069219D01*
X129977708Y-69076587D01*
X129806374Y-69083977D01*
X129664827Y-69091523D01*
X129550558Y-69099362D01*
X129461058Y-69107627D01*
X129393819Y-69116456D01*
X129346331Y-69125982D01*
X129316087Y-69136340D01*
X129314061Y-69137351D01*
X129249137Y-69183249D01*
X129175442Y-69253958D01*
X129104327Y-69337045D01*
X129047146Y-69420079D01*
X129033855Y-69444197D01*
X129007776Y-69504330D01*
X128976377Y-69589874D01*
X128945233Y-69685333D01*
X128936017Y-69716176D01*
X128902318Y-69854103D01*
X128878478Y-70005173D01*
X128864499Y-70173471D01*
X128860385Y-70363081D01*
X128866137Y-70578088D01*
X128881759Y-70822577D01*
X128907254Y-71100632D01*
X128937088Y-71369817D01*
X128966999Y-71616854D01*
X128994023Y-71825069D01*
X129018756Y-71997829D01*
X129041795Y-72138501D01*
X129063736Y-72250454D01*
X129085175Y-72337055D01*
X129106709Y-72401671D01*
X129127584Y-72445396D01*
X129223338Y-72568795D01*
X129358021Y-72680154D01*
X129529675Y-72778420D01*
X129736348Y-72862542D01*
X129976083Y-72931467D01*
X130069167Y-72952163D01*
X130155835Y-72965422D01*
X130277582Y-72977253D01*
X130427160Y-72987115D01*
X130597325Y-72994466D01*
X130661833Y-72996384D01*
X130815932Y-72999294D01*
X130960113Y-72999218D01*
X131101107Y-72995659D01*
X131245642Y-72988121D01*
X131400447Y-72976106D01*
X131572252Y-72959120D01*
X131767787Y-72936664D01*
X131993780Y-72908242D01*
X132169071Y-72885150D01*
X132300239Y-72868589D01*
X132419699Y-72855286D01*
X132520113Y-72845916D01*
X132594144Y-72841155D01*
X132634454Y-72841678D01*
X132636590Y-72842106D01*
X132689358Y-72864399D01*
X132743311Y-72899076D01*
X132779186Y-72935024D01*
X132795767Y-72979218D01*
X132799667Y-73045335D01*
X132788777Y-73150373D01*
X132756174Y-73291365D01*
X132701954Y-73467980D01*
X132626212Y-73679890D01*
X132575998Y-73809889D01*
X132490593Y-74020177D01*
X132403706Y-74223062D01*
X132317657Y-74413795D01*
X132234769Y-74587628D01*
X132157363Y-74739813D01*
X132087760Y-74865602D01*
X132028283Y-74960247D01*
X131988382Y-75011628D01*
X131943653Y-75050654D01*
X131879064Y-75096379D01*
X131836583Y-75122554D01*
X131730750Y-75183602D01*
X129825750Y-75183602D01*
X129718269Y-75121954D01*
X129604858Y-75041936D01*
X129518483Y-74949948D01*
X129465820Y-74853505D01*
X129458742Y-74829736D01*
X129447537Y-74779597D01*
X129430568Y-74698211D01*
X129409944Y-74595924D01*
X129387777Y-74483082D01*
X129382667Y-74456648D01*
X129335597Y-74232962D01*
X129286621Y-74043831D01*
X129233313Y-73881478D01*
X129173244Y-73738127D01*
X129134016Y-73660000D01*
X128961000Y-73380472D01*
X128753359Y-73123821D01*
X128512961Y-72891466D01*
X128241676Y-72684827D01*
X127941372Y-72505326D01*
X127613917Y-72354382D01*
X127261181Y-72233416D01*
X127254866Y-72231595D01*
X127089961Y-72188010D01*
X126933874Y-72155820D01*
X126776634Y-72134001D01*
X126608272Y-72121531D01*
X126418816Y-72117387D01*
X126198298Y-72120546D01*
X126177889Y-72121116D01*
X125962623Y-72130120D01*
X125778093Y-72144851D01*
X125612880Y-72167153D01*
X125455565Y-72198867D01*
X125294730Y-72241837D01*
X125152969Y-72286512D01*
X124842225Y-72408012D01*
X124544910Y-72560426D01*
X124265475Y-72740114D01*
X124008368Y-72943438D01*
X123778039Y-73166761D01*
X123578938Y-73406444D01*
X123415514Y-73658849D01*
X123370245Y-73744167D01*
X123290257Y-73917397D01*
X123227188Y-74087886D01*
X123178379Y-74265931D01*
X123141165Y-74461833D01*
X123112885Y-74685889D01*
X123104749Y-74771250D01*
X123093544Y-74895249D01*
X123083924Y-74983267D01*
X123073466Y-75041468D01*
X123059750Y-75076012D01*
X123040353Y-75093062D01*
X123012854Y-75098782D01*
X122975827Y-75099333D01*
X122918877Y-75095167D01*
X122886779Y-75075476D01*
X122862317Y-75029467D01*
X122861586Y-75027723D01*
X122846790Y-74980656D01*
X122833649Y-74912860D01*
X122822042Y-74821978D01*
X122811852Y-74705655D01*
X122802957Y-74561536D01*
X122795239Y-74387265D01*
X122788578Y-74180487D01*
X122782855Y-73938845D01*
X122777949Y-73659985D01*
X122773743Y-73341551D01*
X122773089Y-73283391D01*
X122760472Y-72134199D01*
X122707798Y-72092766D01*
X122637415Y-72056252D01*
X122571797Y-72061771D01*
X122509958Y-72109425D01*
X122506152Y-72113857D01*
X122483977Y-72143645D01*
X122468187Y-72177039D01*
X122457018Y-72222625D01*
X122448707Y-72288990D01*
X122441491Y-72384720D01*
X122437687Y-72447232D01*
X122435019Y-72518768D01*
X122433136Y-72624855D01*
X122431989Y-72760428D01*
X122431528Y-72920425D01*
X122431703Y-73099782D01*
X122432463Y-73293437D01*
X122433759Y-73496326D01*
X122435541Y-73703387D01*
X122437758Y-73909555D01*
X122440361Y-74109769D01*
X122443299Y-74298964D01*
X122446523Y-74472079D01*
X122449983Y-74624049D01*
X122453628Y-74749811D01*
X122457410Y-74844303D01*
X122461276Y-74902461D01*
X122461997Y-74908833D01*
X122465922Y-74971850D01*
X122454310Y-75020973D01*
X122421405Y-75076171D01*
X122408608Y-75094041D01*
X122343068Y-75184000D01*
X119956659Y-75181171D01*
X119640238Y-75180672D01*
X119334287Y-75179946D01*
X119041633Y-75179013D01*
X118765099Y-75177893D01*
X118507512Y-75176605D01*
X118271697Y-75175169D01*
X118060480Y-75173605D01*
X117876685Y-75171930D01*
X117723137Y-75170166D01*
X117602663Y-75168332D01*
X117518088Y-75166447D01*
X117472237Y-75164531D01*
X117466757Y-75163996D01*
X117381670Y-75142583D01*
X117323272Y-75102635D01*
X117315298Y-75093885D01*
X117281538Y-75036242D01*
X117251215Y-74953137D01*
X117229359Y-74861408D01*
X117221000Y-74778159D01*
X117216341Y-74733065D01*
X117203754Y-74656807D01*
X117185326Y-74559351D01*
X117163143Y-74450666D01*
X117139292Y-74340718D01*
X117115858Y-74239474D01*
X117094927Y-74156903D01*
X117081302Y-74110730D01*
X116987905Y-73884904D01*
X116859899Y-73655350D01*
X116703248Y-73430415D01*
X116523918Y-73218448D01*
X116327873Y-73027799D01*
X116276161Y-72983795D01*
X116095245Y-72843892D01*
X115910418Y-72721626D01*
X115715513Y-72614282D01*
X115504361Y-72519143D01*
X115270792Y-72433495D01*
X115008638Y-72354623D01*
X114711729Y-72279812D01*
X114638667Y-72263073D01*
X114478884Y-72220969D01*
X114351196Y-72174423D01*
X114258753Y-72124878D01*
X114204710Y-72073779D01*
X114197626Y-72061056D01*
X114182628Y-72002193D01*
X114174527Y-71916245D01*
X114173103Y-71817236D01*
X114178134Y-71719192D01*
X114189401Y-71636136D01*
X114205108Y-71584973D01*
X114234693Y-71540511D01*
X114275745Y-71505837D01*
X114334326Y-71478937D01*
X114416494Y-71457797D01*
X114528310Y-71440403D01*
X114675833Y-71424742D01*
X114691583Y-71423302D01*
X115001360Y-71389114D01*
X115276318Y-71344924D01*
X115523182Y-71288867D01*
X115748678Y-71219075D01*
X115959531Y-71133684D01*
X116162465Y-71030827D01*
X116215769Y-71000405D01*
X116333962Y-70921772D01*
X116452436Y-70825968D01*
X116562370Y-70721563D01*
X116654943Y-70617130D01*
X116721334Y-70521241D01*
X116734312Y-70496502D01*
X116748355Y-70465569D01*
X116759686Y-70434374D01*
X116768748Y-70397846D01*
X116775985Y-70350913D01*
X116781840Y-70288502D01*
X116786755Y-70205541D01*
X116791175Y-70096958D01*
X116795543Y-69957682D01*
X116800301Y-69782639D01*
X116801832Y-69723918D01*
X116808634Y-69480605D01*
X116815555Y-69276066D01*
X116822903Y-69106742D01*
X116830987Y-68969073D01*
X116840115Y-68859501D01*
X116850595Y-68774466D01*
X116862737Y-68710409D01*
X116876849Y-68663772D01*
X116893240Y-68630994D01*
X116897067Y-68625447D01*
X116969445Y-68557066D01*
X117072487Y-68510152D01*
X117209233Y-68483529D01*
X117277500Y-68478113D01*
X117415962Y-68474128D01*
X117521913Y-68480112D01*
X117604430Y-68498130D01*
X117672593Y-68530248D01*
X117735479Y-68578531D01*
X117741047Y-68583608D01*
X117776165Y-68617969D01*
X117807032Y-68654161D01*
X117834181Y-68695333D01*
X117858146Y-68744631D01*
X117879460Y-68805203D01*
X117898658Y-68880198D01*
X117916273Y-68972763D01*
X117932839Y-69086045D01*
X117948889Y-69223192D01*
X117964957Y-69387352D01*
X117981577Y-69581673D01*
X117999282Y-69809302D01*
X118018607Y-70073388D01*
X118036520Y-70326250D01*
X118054858Y-70582881D01*
X118071183Y-70800816D01*
X118085844Y-70983625D01*
X118099191Y-71134880D01*
X118111573Y-71258150D01*
X118123337Y-71357007D01*
X118134833Y-71435021D01*
X118146410Y-71495764D01*
X118153747Y-71526187D01*
X118193279Y-71604775D01*
X118268051Y-71688069D01*
X118371881Y-71772050D01*
X118498583Y-71852701D01*
X118641974Y-71926002D01*
X118795869Y-71987937D01*
X118924917Y-72027256D01*
X119110001Y-72070483D01*
X119291338Y-72104189D01*
X119457535Y-72126578D01*
X119597203Y-72135850D01*
X119614070Y-72136000D01*
X119692853Y-72134377D01*
X119742001Y-72127003D01*
X119774166Y-72110120D01*
X119801797Y-72080228D01*
X119840331Y-72005387D01*
X119839322Y-71935513D01*
X119800757Y-71877676D01*
X119734632Y-71841443D01*
X119688684Y-71829473D01*
X119610890Y-71812554D01*
X119511157Y-71792714D01*
X119399393Y-71771982D01*
X119369345Y-71766654D01*
X119177617Y-71730180D01*
X119019690Y-71693319D01*
X118887083Y-71653549D01*
X118771318Y-71608349D01*
X118670917Y-71559004D01*
X118628539Y-71535811D01*
X118592062Y-71513243D01*
X118560799Y-71488007D01*
X118534060Y-71456808D01*
X118511156Y-71416352D01*
X118491400Y-71363345D01*
X118474103Y-71294492D01*
X118458575Y-71206500D01*
X118444129Y-71096074D01*
X118430077Y-70959920D01*
X118415728Y-70794743D01*
X118400396Y-70597250D01*
X118383391Y-70364146D01*
X118364025Y-70092137D01*
X118363875Y-70090026D01*
X118344762Y-69817997D01*
X118329074Y-69584802D01*
X118316954Y-69387071D01*
X118308544Y-69221431D01*
X118303986Y-69084511D01*
X118303424Y-68972940D01*
X118307000Y-68883346D01*
X118314856Y-68812358D01*
X118327137Y-68756604D01*
X118343983Y-68712713D01*
X118365538Y-68677313D01*
X118391944Y-68647034D01*
X118423344Y-68618503D01*
X118426246Y-68616053D01*
X118469963Y-68584180D01*
X118514965Y-68566841D01*
X118576525Y-68559865D01*
X118635499Y-68558912D01*
X118758347Y-68569641D01*
X118850178Y-68603929D01*
X118917195Y-68665158D01*
X118956328Y-68734022D01*
X118979215Y-68806604D01*
X119002596Y-68920345D01*
X119026302Y-69074073D01*
X119050163Y-69266620D01*
X119074011Y-69496815D01*
X119086721Y-69635206D01*
X119113542Y-69938995D01*
X119241479Y-70055482D01*
X119433773Y-70212432D01*
X119644828Y-70348520D01*
X119881733Y-70467680D01*
X120151574Y-70573844D01*
X120213707Y-70595061D01*
X120364158Y-70646819D01*
X120479917Y-70691527D01*
X120567139Y-70733251D01*
X120631979Y-70776059D01*
X120680593Y-70824015D01*
X120719136Y-70881186D01*
X120753763Y-70951640D01*
X120753884Y-70951913D01*
X120778293Y-71022737D01*
X120805522Y-71128457D01*
X120834204Y-71261842D01*
X120862975Y-71415661D01*
X120890469Y-71582684D01*
X120915322Y-71755679D01*
X120933479Y-71903166D01*
X120946542Y-72028349D01*
X120959295Y-72167452D01*
X120971321Y-72313908D01*
X120982201Y-72461145D01*
X120991518Y-72602595D01*
X120998854Y-72731687D01*
X121003791Y-72841853D01*
X121005911Y-72926522D01*
X121004796Y-72979125D01*
X121002723Y-72991831D01*
X120965542Y-73038168D01*
X120891878Y-73086775D01*
X120787347Y-73135476D01*
X120657565Y-73182095D01*
X120508148Y-73224458D01*
X120344712Y-73260388D01*
X120279583Y-73271988D01*
X120223248Y-73280705D01*
X120165055Y-73288031D01*
X120100893Y-73294083D01*
X120026647Y-73298980D01*
X119938207Y-73302837D01*
X119831460Y-73305773D01*
X119702294Y-73307905D01*
X119546595Y-73309351D01*
X119360253Y-73310229D01*
X119139154Y-73310654D01*
X118922930Y-73310750D01*
X118668181Y-73310772D01*
X118452512Y-73311037D01*
X118272670Y-73311846D01*
X118125402Y-73313497D01*
X118007453Y-73316290D01*
X117915572Y-73320523D01*
X117846503Y-73326496D01*
X117796995Y-73334508D01*
X117763794Y-73344858D01*
X117743646Y-73357846D01*
X117733299Y-73373771D01*
X117729499Y-73392932D01*
X117728992Y-73415628D01*
X117729000Y-73420566D01*
X117747080Y-73503107D01*
X117801373Y-73563748D01*
X117844597Y-73586938D01*
X117902256Y-73601736D01*
X117997217Y-73614897D01*
X118124478Y-73626376D01*
X118279036Y-73636132D01*
X118455889Y-73644118D01*
X118650036Y-73650293D01*
X118856475Y-73654612D01*
X119070204Y-73657032D01*
X119286221Y-73657509D01*
X119499523Y-73655999D01*
X119705110Y-73652459D01*
X119897978Y-73646846D01*
X120073127Y-73639114D01*
X120225554Y-73629222D01*
X120350257Y-73617124D01*
X120406583Y-73609296D01*
X120613824Y-73567123D01*
X120803586Y-73511284D01*
X120971480Y-73444026D01*
X121113120Y-73367599D01*
X121224116Y-73284252D01*
X121300082Y-73196234D01*
X121328952Y-73136511D01*
X121338492Y-73081262D01*
X121343982Y-72990367D01*
X121345644Y-72870298D01*
X121343701Y-72727528D01*
X121338379Y-72568527D01*
X121329898Y-72399768D01*
X121318484Y-72227722D01*
X121304359Y-72058861D01*
X121287747Y-71899657D01*
X121285656Y-71882000D01*
X121260992Y-71675589D01*
X121241237Y-71506919D01*
X121226086Y-71371719D01*
X121215238Y-71265720D01*
X121208388Y-71184649D01*
X121205235Y-71124237D01*
X121205475Y-71080214D01*
X121208805Y-71048308D01*
X121214923Y-71024249D01*
X121223381Y-71004065D01*
X121258545Y-70951800D01*
X121311324Y-70911052D01*
X121388008Y-70879148D01*
X121494884Y-70853416D01*
X121626650Y-70832715D01*
X121820359Y-70805776D01*
X121981285Y-70780605D01*
X122118819Y-70755315D01*
X122242353Y-70728015D01*
X122361279Y-70696817D01*
X122482880Y-70660493D01*
X122600094Y-70625241D01*
X122691676Y-70602203D01*
X122771710Y-70588936D01*
X122854280Y-70582997D01*
X122936000Y-70581884D01*
X123023804Y-70582994D01*
X123092780Y-70587880D01*
X123155449Y-70599314D01*
X123224334Y-70620069D01*
X123311959Y-70652917D01*
X123380500Y-70680294D01*
X123474800Y-70717349D01*
X123565116Y-70750237D01*
X123654518Y-70779226D01*
X123746072Y-70804583D01*
X123842847Y-70826576D01*
X123947911Y-70845473D01*
X124064332Y-70861541D01*
X124195177Y-70875048D01*
X124343515Y-70886262D01*
X124512414Y-70895449D01*
X124704942Y-70902879D01*
X124924166Y-70908817D01*
X125173155Y-70913533D01*
X125454977Y-70917293D01*
X125772700Y-70920365D01*
X126129391Y-70923017D01*
X126166037Y-70923261D01*
X127819157Y-70934176D01*
X127864662Y-70860548D01*
X127900401Y-70790602D01*
X127905925Y-70735006D01*
X127881172Y-70678397D01*
X127863853Y-70653476D01*
X127817539Y-70590833D01*
X127022478Y-70589938D01*
X126760631Y-70589119D01*
X126491395Y-70587301D01*
X126218867Y-70584576D01*
X125947143Y-70581036D01*
X125680320Y-70576773D01*
X125422496Y-70571879D01*
X125177766Y-70566445D01*
X124950229Y-70560564D01*
X124743980Y-70554328D01*
X124563116Y-70547828D01*
X124411734Y-70541156D01*
X124293932Y-70534405D01*
X124213805Y-70527665D01*
X124206000Y-70526749D01*
X124033259Y-70499718D01*
X123861437Y-70462373D01*
X123696892Y-70416980D01*
X123545983Y-70365801D01*
X123415071Y-70311100D01*
X123310513Y-70255141D01*
X123238671Y-70200188D01*
X123217766Y-70174973D01*
X123188277Y-70103888D01*
X123175339Y-70003929D01*
X123178907Y-69872062D01*
X123198934Y-69705256D01*
X123209778Y-69638333D01*
X123277818Y-69300792D01*
X123360067Y-69002202D01*
X123456965Y-68741482D01*
X123568948Y-68517552D01*
X123696456Y-68329330D01*
X123779395Y-68234331D01*
X123843906Y-68173607D01*
X123910689Y-68120451D01*
X123955071Y-68092159D01*
X124018147Y-68067581D01*
X124105799Y-68047239D01*
X124220923Y-68030889D01*
X124366415Y-68018286D01*
X124545171Y-68009186D01*
X124760086Y-68003345D01*
X125014056Y-68000517D01*
X125042083Y-68000389D01*
X125230475Y-67999812D01*
X125381585Y-68000344D01*
X125500464Y-68002853D01*
X125592162Y-68008210D01*
X125661732Y-68017285D01*
X125714223Y-68030947D01*
X125754686Y-68050067D01*
X125788173Y-68075514D01*
X125819733Y-68108158D01*
X125845977Y-68138838D01*
X125877192Y-68178342D01*
X125902944Y-68218725D01*
X125924387Y-68265186D01*
X125942673Y-68322925D01*
X125958953Y-68397141D01*
X125974381Y-68493036D01*
X125990108Y-68615808D01*
X126007286Y-68770657D01*
X126025818Y-68950416D01*
X126044690Y-69130642D01*
X126061366Y-69273528D01*
X126076809Y-69383946D01*
X126091982Y-69466773D01*
X126107847Y-69526883D01*
X126125366Y-69569149D01*
X126145501Y-69598448D01*
X126155791Y-69608807D01*
X126218092Y-69640606D01*
X126289031Y-69641991D01*
X126351515Y-69613899D01*
X126368298Y-69597182D01*
X126382369Y-69577960D01*
X126393017Y-69556087D01*
X126400210Y-69526828D01*
X126403915Y-69485445D01*
X126404100Y-69427199D01*
X126400732Y-69347354D01*
X126393779Y-69241173D01*
X126383209Y-69103917D01*
X126368988Y-68930849D01*
X126363273Y-68862488D01*
X126351493Y-68713612D01*
X126341841Y-68575167D01*
X126334683Y-68453883D01*
X126330385Y-68356488D01*
X126329314Y-68289714D01*
X126330729Y-68264487D01*
X126364979Y-68178248D01*
X126434312Y-68104762D01*
X126531938Y-68050551D01*
X126565228Y-68039171D01*
X126615797Y-68027051D01*
X126684050Y-68016003D01*
X126772452Y-68005906D01*
X126883466Y-67996641D01*
X127019554Y-67988088D01*
X127183181Y-67980127D01*
X127376810Y-67972639D01*
X127602903Y-67965504D01*
X127863924Y-67958601D01*
X128162337Y-67951812D01*
X128500604Y-67945017D01*
X128502833Y-67944974D01*
X128829005Y-67938518D01*
X129119460Y-67932155D01*
X129380812Y-67925621D01*
X129619675Y-67918653D01*
X129842663Y-67910987D01*
X130056392Y-67902358D01*
X130267475Y-67892504D01*
X130482527Y-67881160D01*
X130708162Y-67868062D01*
X130950994Y-67852947D01*
X131174725Y-67838391D01*
X131444971Y-67821529D01*
X131676917Y-67809309D01*
X131874340Y-67801704D01*
X132041015Y-67798683D01*
X132180718Y-67800216D01*
G36*
X132604908Y-69363608D02*
X132756699Y-69367335D01*
X132878923Y-69378169D01*
X132974921Y-69399900D01*
X133048036Y-69436317D01*
X133101609Y-69491212D01*
X133138982Y-69568373D01*
X133163498Y-69671590D01*
X133178497Y-69804653D01*
X133187323Y-69971351D01*
X133193316Y-70175475D01*
X133194991Y-70241810D01*
X133197835Y-70536989D01*
X133192034Y-70836033D01*
X133178165Y-71131076D01*
X133156799Y-71414254D01*
X133128511Y-71677702D01*
X133093875Y-71913557D01*
X133060637Y-72083083D01*
X133032662Y-72178118D01*
X132992704Y-72256523D01*
X132936170Y-72321025D01*
X132858468Y-72374350D01*
X132755007Y-72419226D01*
X132621195Y-72458380D01*
X132452439Y-72494540D01*
X132331567Y-72516091D01*
X131994915Y-72566303D01*
X131648387Y-72605537D01*
X131302303Y-72633113D01*
X130966987Y-72648350D01*
X130652759Y-72650568D01*
X130418417Y-72642216D01*
X130205343Y-72620382D01*
X130004602Y-72581841D01*
X129822268Y-72528662D01*
X129664416Y-72462912D01*
X129537122Y-72386660D01*
X129457380Y-72315014D01*
X129440156Y-72294558D01*
X129425452Y-72273130D01*
X129412546Y-72246660D01*
X129400715Y-72211079D01*
X129389236Y-72162316D01*
X129377388Y-72096302D01*
X129364447Y-72008967D01*
X129349692Y-71896241D01*
X129332400Y-71754055D01*
X129311849Y-71578339D01*
X129287316Y-71365023D01*
X129284706Y-71342250D01*
X129254642Y-71067848D01*
X129231866Y-70830762D01*
X129216238Y-70626631D01*
X129207616Y-70451094D01*
X129205858Y-70299791D01*
X129210825Y-70168362D01*
X129222373Y-70052445D01*
X129239651Y-69951085D01*
X129278898Y-69792256D01*
X129324545Y-69659378D01*
X129374458Y-69557424D01*
X129426506Y-69491369D01*
X129441827Y-69479551D01*
X129472359Y-69465490D01*
X129520208Y-69454026D01*
X129591207Y-69444430D01*
X129691183Y-69435969D01*
X129825967Y-69427913D01*
X129872444Y-69425546D01*
X130043124Y-69417938D01*
X130248543Y-69410161D01*
X130481107Y-69402400D01*
X130733223Y-69394842D01*
X130997298Y-69387672D01*
X131265740Y-69381075D01*
X131530954Y-69375238D01*
X131785348Y-69370347D01*
X132021329Y-69366587D01*
X132231303Y-69364144D01*
X132407677Y-69363204D01*
X132420207Y-69363199D01*
X132604908Y-69363608D01*
X132604908Y-69363608D01*
G37*
X132604908Y-69363608D02*
X132756699Y-69367335D01*
X132878923Y-69378169D01*
X132974921Y-69399900D01*
X133048036Y-69436317D01*
X133101609Y-69491212D01*
X133138982Y-69568373D01*
X133163498Y-69671590D01*
X133178497Y-69804653D01*
X133187323Y-69971351D01*
X133193316Y-70175475D01*
X133194991Y-70241810D01*
X133197835Y-70536989D01*
X133192034Y-70836033D01*
X133178165Y-71131076D01*
X133156799Y-71414254D01*
X133128511Y-71677702D01*
X133093875Y-71913557D01*
X133060637Y-72083083D01*
X133032662Y-72178118D01*
X132992704Y-72256523D01*
X132936170Y-72321025D01*
X132858468Y-72374350D01*
X132755007Y-72419226D01*
X132621195Y-72458380D01*
X132452439Y-72494540D01*
X132331567Y-72516091D01*
X131994915Y-72566303D01*
X131648387Y-72605537D01*
X131302303Y-72633113D01*
X130966987Y-72648350D01*
X130652759Y-72650568D01*
X130418417Y-72642216D01*
X130205343Y-72620382D01*
X130004602Y-72581841D01*
X129822268Y-72528662D01*
X129664416Y-72462912D01*
X129537122Y-72386660D01*
X129457380Y-72315014D01*
X129440156Y-72294558D01*
X129425452Y-72273130D01*
X129412546Y-72246660D01*
X129400715Y-72211079D01*
X129389236Y-72162316D01*
X129377388Y-72096302D01*
X129364447Y-72008967D01*
X129349692Y-71896241D01*
X129332400Y-71754055D01*
X129311849Y-71578339D01*
X129287316Y-71365023D01*
X129284706Y-71342250D01*
X129254642Y-71067848D01*
X129231866Y-70830762D01*
X129216238Y-70626631D01*
X129207616Y-70451094D01*
X129205858Y-70299791D01*
X129210825Y-70168362D01*
X129222373Y-70052445D01*
X129239651Y-69951085D01*
X129278898Y-69792256D01*
X129324545Y-69659378D01*
X129374458Y-69557424D01*
X129426506Y-69491369D01*
X129441827Y-69479551D01*
X129472359Y-69465490D01*
X129520208Y-69454026D01*
X129591207Y-69444430D01*
X129691183Y-69435969D01*
X129825967Y-69427913D01*
X129872444Y-69425546D01*
X130043124Y-69417938D01*
X130248543Y-69410161D01*
X130481107Y-69402400D01*
X130733223Y-69394842D01*
X130997298Y-69387672D01*
X131265740Y-69381075D01*
X131530954Y-69375238D01*
X131785348Y-69370347D01*
X132021329Y-69366587D01*
X132231303Y-69364144D01*
X132407677Y-69363204D01*
X132420207Y-69363199D01*
X132604908Y-69363608D01*
G36*
X122443070Y-60923240D02*
X122651522Y-60927984D01*
X122851283Y-60934927D01*
X123035775Y-60943917D01*
X123198421Y-60954797D01*
X123332645Y-60967416D01*
X123431868Y-60981619D01*
X123440461Y-60983291D01*
X123556982Y-61023337D01*
X123641097Y-61089401D01*
X123691621Y-61180458D01*
X123698971Y-61207479D01*
X123704069Y-61245185D01*
X123709809Y-61316075D01*
X123716224Y-61420996D01*
X123723347Y-61560797D01*
X123731213Y-61736327D01*
X123739854Y-61948435D01*
X123749305Y-62197968D01*
X123759598Y-62485775D01*
X123770768Y-62812706D01*
X123782848Y-63179607D01*
X123795871Y-63587328D01*
X123806563Y-63929639D01*
X123831339Y-64729694D01*
X123759378Y-64803947D01*
X123629131Y-64912903D01*
X123457751Y-65013581D01*
X123245659Y-65105784D01*
X122993279Y-65189313D01*
X122859142Y-65225963D01*
X122696406Y-65265680D01*
X122540169Y-65298858D01*
X122383765Y-65326254D01*
X122220527Y-65348624D01*
X122043790Y-65366726D01*
X121846886Y-65381316D01*
X121623151Y-65393152D01*
X121365916Y-65402989D01*
X121274417Y-65405869D01*
X120988193Y-65414807D01*
X120741279Y-65423251D01*
X120530658Y-65431393D01*
X120353311Y-65439428D01*
X120206221Y-65447551D01*
X120086370Y-65455955D01*
X119990740Y-65464834D01*
X119916313Y-65474383D01*
X119860072Y-65484796D01*
X119818999Y-65496267D01*
X119808662Y-65500154D01*
X119734232Y-65544367D01*
X119648051Y-65618338D01*
X119557819Y-65714223D01*
X119471238Y-65824181D01*
X119427905Y-65887908D01*
X119327631Y-66069727D01*
X119240005Y-66283382D01*
X119164526Y-66530759D01*
X119100690Y-66813747D01*
X119047995Y-67134230D01*
X119009489Y-67458166D01*
X118989040Y-67641832D01*
X118967342Y-67788061D01*
X118942274Y-67901740D01*
X118911714Y-67987756D01*
X118873538Y-68050996D01*
X118825624Y-68096347D01*
X118765849Y-68128697D01*
X118709894Y-68147969D01*
X118669710Y-68158307D01*
X118626385Y-68165797D01*
X118574043Y-68170538D01*
X118506808Y-68172629D01*
X118418802Y-68172171D01*
X118304150Y-68169260D01*
X118156973Y-68163998D01*
X118039241Y-68159288D01*
X117866490Y-68152763D01*
X117663705Y-68146016D01*
X117443184Y-68139400D01*
X117217223Y-68133267D01*
X116998117Y-68127968D01*
X116808250Y-68124041D01*
X116639286Y-68120332D01*
X116480773Y-68115755D01*
X116338520Y-68110565D01*
X116218335Y-68105012D01*
X116126028Y-68099349D01*
X116067407Y-68093828D01*
X116052777Y-68091260D01*
X115959455Y-68045285D01*
X115878863Y-67959035D01*
X115811033Y-67832624D01*
X115756002Y-67666163D01*
X115713804Y-67459763D01*
X115684472Y-67213536D01*
X115668042Y-66927593D01*
X115665675Y-66836223D01*
X115662538Y-66701871D01*
X115658610Y-66603026D01*
X115653111Y-66532858D01*
X115645258Y-66484541D01*
X115634269Y-66451248D01*
X115619362Y-66426150D01*
X115618591Y-66425110D01*
X115564299Y-66364685D01*
X115513732Y-66339748D01*
X115456876Y-66345746D01*
X115449458Y-66348221D01*
X115408766Y-66367297D01*
X115378036Y-66395773D01*
X115355982Y-66439162D01*
X115341317Y-66502976D01*
X115332756Y-66592729D01*
X115329012Y-66713932D01*
X115328758Y-66865500D01*
X115338956Y-67177807D01*
X115365490Y-67457922D01*
X115408042Y-67703328D01*
X115458028Y-67887200D01*
X115528707Y-68058057D01*
X115618938Y-68194902D01*
X115733955Y-68302800D01*
X115878989Y-68386814D01*
X116033745Y-68444446D01*
X116166322Y-68487575D01*
X116263801Y-68526546D01*
X116332677Y-68565062D01*
X116379449Y-68606829D01*
X116410614Y-68655548D01*
X116412976Y-68660622D01*
X116422855Y-68687313D01*
X116430905Y-68722491D01*
X116437372Y-68770742D01*
X116442504Y-68836655D01*
X116446549Y-68924818D01*
X116449754Y-69039818D01*
X116452367Y-69186245D01*
X116454635Y-69368686D01*
X116455453Y-69447833D01*
X116457019Y-69687652D01*
X116456532Y-69886043D01*
X116453973Y-70043864D01*
X116449323Y-70161973D01*
X116442565Y-70241225D01*
X116438239Y-70267241D01*
X116392886Y-70380277D01*
X116308143Y-70493085D01*
X116186897Y-70603268D01*
X116032037Y-70708429D01*
X115846450Y-70806172D01*
X115725877Y-70858515D01*
X115477579Y-70946072D01*
X115225434Y-71007907D01*
X114954976Y-71047273D01*
X114843158Y-71057109D01*
X114747145Y-71062598D01*
X114616134Y-71067671D01*
X114455420Y-71072293D01*
X114270293Y-71076425D01*
X114066046Y-71080031D01*
X113847971Y-71083075D01*
X113621359Y-71085518D01*
X113391503Y-71087325D01*
X113163695Y-71088458D01*
X112943226Y-71088880D01*
X112735390Y-71088554D01*
X112545477Y-71087444D01*
X112378781Y-71085511D01*
X112240592Y-71082721D01*
X112136204Y-71079034D01*
X112091358Y-71076328D01*
X111987081Y-71066377D01*
X111893575Y-71054068D01*
X111821696Y-71041040D01*
X111784442Y-71030039D01*
X111718217Y-70978876D01*
X111652883Y-70892848D01*
X111592032Y-70779338D01*
X111539252Y-70645729D01*
X111498133Y-70499404D01*
X111479745Y-70403454D01*
X111473726Y-70341737D01*
X111468568Y-70242730D01*
X111464266Y-70111466D01*
X111460814Y-69952981D01*
X111458208Y-69772309D01*
X111456444Y-69574483D01*
X111455515Y-69364539D01*
X111455418Y-69147510D01*
X111456147Y-68928431D01*
X111457698Y-68712335D01*
X111460066Y-68504258D01*
X111463246Y-68309234D01*
X111467233Y-68132296D01*
X111472021Y-67978480D01*
X111477608Y-67852819D01*
X111482279Y-67780566D01*
X111498211Y-67605229D01*
X111518085Y-67461088D01*
X111545669Y-67338720D01*
X111584732Y-67228703D01*
X111639043Y-67121616D01*
X111712370Y-67008037D01*
X111808482Y-66878543D01*
X111878887Y-66788995D01*
X112113076Y-66473581D01*
X112317582Y-66150918D01*
X112499032Y-65809630D01*
X112660882Y-65446095D01*
X112744473Y-65248890D01*
X112818440Y-65089998D01*
X112884103Y-64966838D01*
X112942782Y-64876828D01*
X112967702Y-64845948D01*
X113054070Y-64770495D01*
X113164941Y-64707841D01*
X113292707Y-64658962D01*
X113429759Y-64624833D01*
X113568490Y-64606430D01*
X113701293Y-64604730D01*
X113820561Y-64620707D01*
X113918684Y-64655339D01*
X113988056Y-64709600D01*
X113991946Y-64714566D01*
X114056350Y-64828289D01*
X114103978Y-64976486D01*
X114134842Y-65159774D01*
X114148951Y-65378768D01*
X114146317Y-65634084D01*
X114126951Y-65926339D01*
X114090862Y-66256149D01*
X114038063Y-66624130D01*
X114026508Y-66696166D01*
X113981817Y-66983996D01*
X113946754Y-67242085D01*
X113920133Y-67481621D01*
X113900771Y-67713792D01*
X113887484Y-67949787D01*
X113883671Y-68045893D01*
X113878962Y-68182516D01*
X113876310Y-68283330D01*
X113876241Y-68354829D01*
X113879283Y-68403511D01*
X113885965Y-68435871D01*
X113896812Y-68458406D01*
X113912352Y-68477610D01*
X113919331Y-68485102D01*
X113986286Y-68529631D01*
X114060404Y-68535682D01*
X114131357Y-68503326D01*
X114153020Y-68483487D01*
X114171891Y-68461196D01*
X114185825Y-68435906D01*
X114195934Y-68400663D01*
X114203329Y-68348510D01*
X114209123Y-68272494D01*
X114214426Y-68165659D01*
X114218151Y-68076028D01*
X114223372Y-67956354D01*
X114229255Y-67846884D01*
X114236443Y-67741881D01*
X114245580Y-67635604D01*
X114257307Y-67522315D01*
X114272268Y-67396275D01*
X114291105Y-67251743D01*
X114314463Y-67082981D01*
X114342983Y-66884250D01*
X114377308Y-66649811D01*
X114379834Y-66632666D01*
X114407579Y-66442982D01*
X114429555Y-66287578D01*
X114446427Y-66158895D01*
X114458863Y-66049370D01*
X114467529Y-65951445D01*
X114473092Y-65857558D01*
X114476219Y-65760150D01*
X114477576Y-65651658D01*
X114477830Y-65524523D01*
X114477828Y-65521416D01*
X114477399Y-65369551D01*
X114475848Y-65251812D01*
X114472464Y-65159998D01*
X114466540Y-65085903D01*
X114457366Y-65021323D01*
X114444232Y-64958055D01*
X114426429Y-64887895D01*
X114421461Y-64869407D01*
X114372630Y-64710442D01*
X114317307Y-64567324D01*
X114258674Y-64446642D01*
X114199914Y-64354987D01*
X114146736Y-64300703D01*
X114113852Y-64280278D01*
X114076576Y-64265807D01*
X114026286Y-64255807D01*
X113954363Y-64248794D01*
X113852185Y-64243284D01*
X113800801Y-64241164D01*
X113670781Y-64234533D01*
X113577309Y-64225051D01*
X113514607Y-64210617D01*
X113476896Y-64189131D01*
X113458399Y-64158492D01*
X113453338Y-64116602D01*
X113453333Y-64114870D01*
X113463067Y-64064139D01*
X113493806Y-64001392D01*
X113547857Y-63923640D01*
X113627528Y-63827894D01*
X113735127Y-63711167D01*
X113872959Y-63570471D01*
X113876150Y-63567283D01*
X114054020Y-63396872D01*
X114239890Y-63232144D01*
X114429739Y-63075796D01*
X114619544Y-62930526D01*
X114805283Y-62799033D01*
X114982934Y-62684012D01*
X115148475Y-62588164D01*
X115297882Y-62514185D01*
X115427135Y-62464773D01*
X115532211Y-62442626D01*
X115554339Y-62441666D01*
X115613618Y-62445948D01*
X115664513Y-62461037D01*
X115708266Y-62490299D01*
X115746116Y-62537098D01*
X115779304Y-62604800D01*
X115809069Y-62696770D01*
X115836651Y-62816372D01*
X115863291Y-62966973D01*
X115890228Y-63151936D01*
X115918703Y-63374628D01*
X115928732Y-63457666D01*
X115953910Y-63667039D01*
X115975122Y-63839006D01*
X115993190Y-63978221D01*
X116008934Y-64089339D01*
X116023175Y-64177016D01*
X116036736Y-64245906D01*
X116050436Y-64300664D01*
X116065098Y-64345947D01*
X116081543Y-64386408D01*
X116099182Y-64423842D01*
X116195614Y-64574056D01*
X116329906Y-64713068D01*
X116498744Y-64839511D01*
X116698811Y-64952022D01*
X116926794Y-65049237D01*
X117179379Y-65129790D01*
X117453249Y-65192316D01*
X117745092Y-65235452D01*
X118051591Y-65257831D01*
X118130154Y-65260024D01*
X118234011Y-65261643D01*
X118304334Y-65260742D01*
X118349910Y-65255701D01*
X118379530Y-65244899D01*
X118401983Y-65226717D01*
X118419975Y-65206603D01*
X118462351Y-65133229D01*
X118465574Y-65063445D01*
X118431475Y-65004557D01*
X118361885Y-64963868D01*
X118358871Y-64962877D01*
X118314123Y-64953136D01*
X118236387Y-64940955D01*
X118134848Y-64927589D01*
X118018691Y-64914292D01*
X117956034Y-64907867D01*
X117668556Y-64873463D01*
X117417377Y-64829592D01*
X117197186Y-64774591D01*
X117002675Y-64706798D01*
X116828533Y-64624548D01*
X116669452Y-64526178D01*
X116617609Y-64488583D01*
X116563079Y-64447500D01*
X116517541Y-64410977D01*
X116479682Y-64374792D01*
X116448186Y-64334722D01*
X116421737Y-64286546D01*
X116399020Y-64226041D01*
X116378720Y-64148985D01*
X116359521Y-64051157D01*
X116340109Y-63928334D01*
X116319168Y-63776294D01*
X116295383Y-63590815D01*
X116267438Y-63367675D01*
X116266780Y-63362416D01*
X116239285Y-63126980D01*
X116217239Y-62905147D01*
X116200856Y-62701203D01*
X116190353Y-62519436D01*
X116185944Y-62364133D01*
X116187846Y-62239581D01*
X116196275Y-62150067D01*
X116204097Y-62116319D01*
X116220813Y-62078557D01*
X116247621Y-62044721D01*
X116289918Y-62011557D01*
X116353098Y-61975812D01*
X116442558Y-61934230D01*
X116563695Y-61883559D01*
X116642481Y-61851946D01*
X116913227Y-61749873D01*
X117204132Y-61650390D01*
X117510128Y-61554627D01*
X117826147Y-61463718D01*
X118147120Y-61378795D01*
X118467981Y-61300990D01*
X118783661Y-61231436D01*
X119089092Y-61171266D01*
X119379206Y-61121611D01*
X119648934Y-61083605D01*
X119893209Y-61058380D01*
X120106964Y-61047068D01*
X120239476Y-61048189D01*
X120363220Y-61057484D01*
X120453417Y-61075873D01*
X120518540Y-61107301D01*
X120567059Y-61155710D01*
X120603930Y-61217859D01*
X120635101Y-61299632D01*
X120666760Y-61417185D01*
X120697986Y-61563985D01*
X120727859Y-61733504D01*
X120755459Y-61919210D01*
X120779866Y-62114573D01*
X120800158Y-62313061D01*
X120815416Y-62508145D01*
X120824720Y-62693293D01*
X120827106Y-62801500D01*
X120827407Y-62935938D01*
X120823351Y-63036172D01*
X120811740Y-63110313D01*
X120789374Y-63166473D01*
X120753054Y-63212765D01*
X120699580Y-63257301D01*
X120627824Y-63306812D01*
X120461333Y-63399101D01*
X120258988Y-63478930D01*
X120025759Y-63545043D01*
X119766614Y-63596181D01*
X119486525Y-63631088D01*
X119292068Y-63644651D01*
X119141956Y-63653243D01*
X119028323Y-63663598D01*
X118945315Y-63677448D01*
X118887077Y-63696526D01*
X118847757Y-63722565D01*
X118821498Y-63757297D01*
X118807627Y-63788046D01*
X118802626Y-63854251D01*
X118828799Y-63919229D01*
X118877802Y-63966918D01*
X118906783Y-63978902D01*
X118963402Y-63985866D01*
X119053607Y-63988493D01*
X119168921Y-63987244D01*
X119300870Y-63982582D01*
X119440977Y-63974970D01*
X119580768Y-63964870D01*
X119711766Y-63952743D01*
X119825498Y-63939054D01*
X119913487Y-63924263D01*
X119915261Y-63923888D01*
X120186922Y-63856037D01*
X120431520Y-63774446D01*
X120646425Y-63680555D01*
X120829012Y-63575803D01*
X120976653Y-63461630D01*
X121086722Y-63339476D01*
X121138258Y-63253638D01*
X121155243Y-63216399D01*
X121167270Y-63180872D01*
X121174884Y-63139604D01*
X121178629Y-63085143D01*
X121179048Y-63010036D01*
X121176685Y-62906831D01*
X121172601Y-62782941D01*
X121164863Y-62625154D01*
X121152491Y-62447745D01*
X121136991Y-62269259D01*
X121119870Y-62108239D01*
X121113934Y-62060666D01*
X121090980Y-61862029D01*
X121075140Y-61674250D01*
X121066491Y-61502651D01*
X121065107Y-61352553D01*
X121071064Y-61229278D01*
X121084436Y-61138146D01*
X121100232Y-61092491D01*
X121133043Y-61041214D01*
X121171834Y-61003901D01*
X121224267Y-60977594D01*
X121298002Y-60959335D01*
X121400700Y-60946166D01*
X121500654Y-60937902D01*
X121653900Y-60929339D01*
X121831343Y-60923745D01*
X122026403Y-60920967D01*
X122232505Y-60920850D01*
X122443070Y-60923240D01*
X122443070Y-60923240D01*
G37*
X122443070Y-60923240D02*
X122651522Y-60927984D01*
X122851283Y-60934927D01*
X123035775Y-60943917D01*
X123198421Y-60954797D01*
X123332645Y-60967416D01*
X123431868Y-60981619D01*
X123440461Y-60983291D01*
X123556982Y-61023337D01*
X123641097Y-61089401D01*
X123691621Y-61180458D01*
X123698971Y-61207479D01*
X123704069Y-61245185D01*
X123709809Y-61316075D01*
X123716224Y-61420996D01*
X123723347Y-61560797D01*
X123731213Y-61736327D01*
X123739854Y-61948435D01*
X123749305Y-62197968D01*
X123759598Y-62485775D01*
X123770768Y-62812706D01*
X123782848Y-63179607D01*
X123795871Y-63587328D01*
X123806563Y-63929639D01*
X123831339Y-64729694D01*
X123759378Y-64803947D01*
X123629131Y-64912903D01*
X123457751Y-65013581D01*
X123245659Y-65105784D01*
X122993279Y-65189313D01*
X122859142Y-65225963D01*
X122696406Y-65265680D01*
X122540169Y-65298858D01*
X122383765Y-65326254D01*
X122220527Y-65348624D01*
X122043790Y-65366726D01*
X121846886Y-65381316D01*
X121623151Y-65393152D01*
X121365916Y-65402989D01*
X121274417Y-65405869D01*
X120988193Y-65414807D01*
X120741279Y-65423251D01*
X120530658Y-65431393D01*
X120353311Y-65439428D01*
X120206221Y-65447551D01*
X120086370Y-65455955D01*
X119990740Y-65464834D01*
X119916313Y-65474383D01*
X119860072Y-65484796D01*
X119818999Y-65496267D01*
X119808662Y-65500154D01*
X119734232Y-65544367D01*
X119648051Y-65618338D01*
X119557819Y-65714223D01*
X119471238Y-65824181D01*
X119427905Y-65887908D01*
X119327631Y-66069727D01*
X119240005Y-66283382D01*
X119164526Y-66530759D01*
X119100690Y-66813747D01*
X119047995Y-67134230D01*
X119009489Y-67458166D01*
X118989040Y-67641832D01*
X118967342Y-67788061D01*
X118942274Y-67901740D01*
X118911714Y-67987756D01*
X118873538Y-68050996D01*
X118825624Y-68096347D01*
X118765849Y-68128697D01*
X118709894Y-68147969D01*
X118669710Y-68158307D01*
X118626385Y-68165797D01*
X118574043Y-68170538D01*
X118506808Y-68172629D01*
X118418802Y-68172171D01*
X118304150Y-68169260D01*
X118156973Y-68163998D01*
X118039241Y-68159288D01*
X117866490Y-68152763D01*
X117663705Y-68146016D01*
X117443184Y-68139400D01*
X117217223Y-68133267D01*
X116998117Y-68127968D01*
X116808250Y-68124041D01*
X116639286Y-68120332D01*
X116480773Y-68115755D01*
X116338520Y-68110565D01*
X116218335Y-68105012D01*
X116126028Y-68099349D01*
X116067407Y-68093828D01*
X116052777Y-68091260D01*
X115959455Y-68045285D01*
X115878863Y-67959035D01*
X115811033Y-67832624D01*
X115756002Y-67666163D01*
X115713804Y-67459763D01*
X115684472Y-67213536D01*
X115668042Y-66927593D01*
X115665675Y-66836223D01*
X115662538Y-66701871D01*
X115658610Y-66603026D01*
X115653111Y-66532858D01*
X115645258Y-66484541D01*
X115634269Y-66451248D01*
X115619362Y-66426150D01*
X115618591Y-66425110D01*
X115564299Y-66364685D01*
X115513732Y-66339748D01*
X115456876Y-66345746D01*
X115449458Y-66348221D01*
X115408766Y-66367297D01*
X115378036Y-66395773D01*
X115355982Y-66439162D01*
X115341317Y-66502976D01*
X115332756Y-66592729D01*
X115329012Y-66713932D01*
X115328758Y-66865500D01*
X115338956Y-67177807D01*
X115365490Y-67457922D01*
X115408042Y-67703328D01*
X115458028Y-67887200D01*
X115528707Y-68058057D01*
X115618938Y-68194902D01*
X115733955Y-68302800D01*
X115878989Y-68386814D01*
X116033745Y-68444446D01*
X116166322Y-68487575D01*
X116263801Y-68526546D01*
X116332677Y-68565062D01*
X116379449Y-68606829D01*
X116410614Y-68655548D01*
X116412976Y-68660622D01*
X116422855Y-68687313D01*
X116430905Y-68722491D01*
X116437372Y-68770742D01*
X116442504Y-68836655D01*
X116446549Y-68924818D01*
X116449754Y-69039818D01*
X116452367Y-69186245D01*
X116454635Y-69368686D01*
X116455453Y-69447833D01*
X116457019Y-69687652D01*
X116456532Y-69886043D01*
X116453973Y-70043864D01*
X116449323Y-70161973D01*
X116442565Y-70241225D01*
X116438239Y-70267241D01*
X116392886Y-70380277D01*
X116308143Y-70493085D01*
X116186897Y-70603268D01*
X116032037Y-70708429D01*
X115846450Y-70806172D01*
X115725877Y-70858515D01*
X115477579Y-70946072D01*
X115225434Y-71007907D01*
X114954976Y-71047273D01*
X114843158Y-71057109D01*
X114747145Y-71062598D01*
X114616134Y-71067671D01*
X114455420Y-71072293D01*
X114270293Y-71076425D01*
X114066046Y-71080031D01*
X113847971Y-71083075D01*
X113621359Y-71085518D01*
X113391503Y-71087325D01*
X113163695Y-71088458D01*
X112943226Y-71088880D01*
X112735390Y-71088554D01*
X112545477Y-71087444D01*
X112378781Y-71085511D01*
X112240592Y-71082721D01*
X112136204Y-71079034D01*
X112091358Y-71076328D01*
X111987081Y-71066377D01*
X111893575Y-71054068D01*
X111821696Y-71041040D01*
X111784442Y-71030039D01*
X111718217Y-70978876D01*
X111652883Y-70892848D01*
X111592032Y-70779338D01*
X111539252Y-70645729D01*
X111498133Y-70499404D01*
X111479745Y-70403454D01*
X111473726Y-70341737D01*
X111468568Y-70242730D01*
X111464266Y-70111466D01*
X111460814Y-69952981D01*
X111458208Y-69772309D01*
X111456444Y-69574483D01*
X111455515Y-69364539D01*
X111455418Y-69147510D01*
X111456147Y-68928431D01*
X111457698Y-68712335D01*
X111460066Y-68504258D01*
X111463246Y-68309234D01*
X111467233Y-68132296D01*
X111472021Y-67978480D01*
X111477608Y-67852819D01*
X111482279Y-67780566D01*
X111498211Y-67605229D01*
X111518085Y-67461088D01*
X111545669Y-67338720D01*
X111584732Y-67228703D01*
X111639043Y-67121616D01*
X111712370Y-67008037D01*
X111808482Y-66878543D01*
X111878887Y-66788995D01*
X112113076Y-66473581D01*
X112317582Y-66150918D01*
X112499032Y-65809630D01*
X112660882Y-65446095D01*
X112744473Y-65248890D01*
X112818440Y-65089998D01*
X112884103Y-64966838D01*
X112942782Y-64876828D01*
X112967702Y-64845948D01*
X113054070Y-64770495D01*
X113164941Y-64707841D01*
X113292707Y-64658962D01*
X113429759Y-64624833D01*
X113568490Y-64606430D01*
X113701293Y-64604730D01*
X113820561Y-64620707D01*
X113918684Y-64655339D01*
X113988056Y-64709600D01*
X113991946Y-64714566D01*
X114056350Y-64828289D01*
X114103978Y-64976486D01*
X114134842Y-65159774D01*
X114148951Y-65378768D01*
X114146317Y-65634084D01*
X114126951Y-65926339D01*
X114090862Y-66256149D01*
X114038063Y-66624130D01*
X114026508Y-66696166D01*
X113981817Y-66983996D01*
X113946754Y-67242085D01*
X113920133Y-67481621D01*
X113900771Y-67713792D01*
X113887484Y-67949787D01*
X113883671Y-68045893D01*
X113878962Y-68182516D01*
X113876310Y-68283330D01*
X113876241Y-68354829D01*
X113879283Y-68403511D01*
X113885965Y-68435871D01*
X113896812Y-68458406D01*
X113912352Y-68477610D01*
X113919331Y-68485102D01*
X113986286Y-68529631D01*
X114060404Y-68535682D01*
X114131357Y-68503326D01*
X114153020Y-68483487D01*
X114171891Y-68461196D01*
X114185825Y-68435906D01*
X114195934Y-68400663D01*
X114203329Y-68348510D01*
X114209123Y-68272494D01*
X114214426Y-68165659D01*
X114218151Y-68076028D01*
X114223372Y-67956354D01*
X114229255Y-67846884D01*
X114236443Y-67741881D01*
X114245580Y-67635604D01*
X114257307Y-67522315D01*
X114272268Y-67396275D01*
X114291105Y-67251743D01*
X114314463Y-67082981D01*
X114342983Y-66884250D01*
X114377308Y-66649811D01*
X114379834Y-66632666D01*
X114407579Y-66442982D01*
X114429555Y-66287578D01*
X114446427Y-66158895D01*
X114458863Y-66049370D01*
X114467529Y-65951445D01*
X114473092Y-65857558D01*
X114476219Y-65760150D01*
X114477576Y-65651658D01*
X114477830Y-65524523D01*
X114477828Y-65521416D01*
X114477399Y-65369551D01*
X114475848Y-65251812D01*
X114472464Y-65159998D01*
X114466540Y-65085903D01*
X114457366Y-65021323D01*
X114444232Y-64958055D01*
X114426429Y-64887895D01*
X114421461Y-64869407D01*
X114372630Y-64710442D01*
X114317307Y-64567324D01*
X114258674Y-64446642D01*
X114199914Y-64354987D01*
X114146736Y-64300703D01*
X114113852Y-64280278D01*
X114076576Y-64265807D01*
X114026286Y-64255807D01*
X113954363Y-64248794D01*
X113852185Y-64243284D01*
X113800801Y-64241164D01*
X113670781Y-64234533D01*
X113577309Y-64225051D01*
X113514607Y-64210617D01*
X113476896Y-64189131D01*
X113458399Y-64158492D01*
X113453338Y-64116602D01*
X113453333Y-64114870D01*
X113463067Y-64064139D01*
X113493806Y-64001392D01*
X113547857Y-63923640D01*
X113627528Y-63827894D01*
X113735127Y-63711167D01*
X113872959Y-63570471D01*
X113876150Y-63567283D01*
X114054020Y-63396872D01*
X114239890Y-63232144D01*
X114429739Y-63075796D01*
X114619544Y-62930526D01*
X114805283Y-62799033D01*
X114982934Y-62684012D01*
X115148475Y-62588164D01*
X115297882Y-62514185D01*
X115427135Y-62464773D01*
X115532211Y-62442626D01*
X115554339Y-62441666D01*
X115613618Y-62445948D01*
X115664513Y-62461037D01*
X115708266Y-62490299D01*
X115746116Y-62537098D01*
X115779304Y-62604800D01*
X115809069Y-62696770D01*
X115836651Y-62816372D01*
X115863291Y-62966973D01*
X115890228Y-63151936D01*
X115918703Y-63374628D01*
X115928732Y-63457666D01*
X115953910Y-63667039D01*
X115975122Y-63839006D01*
X115993190Y-63978221D01*
X116008934Y-64089339D01*
X116023175Y-64177016D01*
X116036736Y-64245906D01*
X116050436Y-64300664D01*
X116065098Y-64345947D01*
X116081543Y-64386408D01*
X116099182Y-64423842D01*
X116195614Y-64574056D01*
X116329906Y-64713068D01*
X116498744Y-64839511D01*
X116698811Y-64952022D01*
X116926794Y-65049237D01*
X117179379Y-65129790D01*
X117453249Y-65192316D01*
X117745092Y-65235452D01*
X118051591Y-65257831D01*
X118130154Y-65260024D01*
X118234011Y-65261643D01*
X118304334Y-65260742D01*
X118349910Y-65255701D01*
X118379530Y-65244899D01*
X118401983Y-65226717D01*
X118419975Y-65206603D01*
X118462351Y-65133229D01*
X118465574Y-65063445D01*
X118431475Y-65004557D01*
X118361885Y-64963868D01*
X118358871Y-64962877D01*
X118314123Y-64953136D01*
X118236387Y-64940955D01*
X118134848Y-64927589D01*
X118018691Y-64914292D01*
X117956034Y-64907867D01*
X117668556Y-64873463D01*
X117417377Y-64829592D01*
X117197186Y-64774591D01*
X117002675Y-64706798D01*
X116828533Y-64624548D01*
X116669452Y-64526178D01*
X116617609Y-64488583D01*
X116563079Y-64447500D01*
X116517541Y-64410977D01*
X116479682Y-64374792D01*
X116448186Y-64334722D01*
X116421737Y-64286546D01*
X116399020Y-64226041D01*
X116378720Y-64148985D01*
X116359521Y-64051157D01*
X116340109Y-63928334D01*
X116319168Y-63776294D01*
X116295383Y-63590815D01*
X116267438Y-63367675D01*
X116266780Y-63362416D01*
X116239285Y-63126980D01*
X116217239Y-62905147D01*
X116200856Y-62701203D01*
X116190353Y-62519436D01*
X116185944Y-62364133D01*
X116187846Y-62239581D01*
X116196275Y-62150067D01*
X116204097Y-62116319D01*
X116220813Y-62078557D01*
X116247621Y-62044721D01*
X116289918Y-62011557D01*
X116353098Y-61975812D01*
X116442558Y-61934230D01*
X116563695Y-61883559D01*
X116642481Y-61851946D01*
X116913227Y-61749873D01*
X117204132Y-61650390D01*
X117510128Y-61554627D01*
X117826147Y-61463718D01*
X118147120Y-61378795D01*
X118467981Y-61300990D01*
X118783661Y-61231436D01*
X119089092Y-61171266D01*
X119379206Y-61121611D01*
X119648934Y-61083605D01*
X119893209Y-61058380D01*
X120106964Y-61047068D01*
X120239476Y-61048189D01*
X120363220Y-61057484D01*
X120453417Y-61075873D01*
X120518540Y-61107301D01*
X120567059Y-61155710D01*
X120603930Y-61217859D01*
X120635101Y-61299632D01*
X120666760Y-61417185D01*
X120697986Y-61563985D01*
X120727859Y-61733504D01*
X120755459Y-61919210D01*
X120779866Y-62114573D01*
X120800158Y-62313061D01*
X120815416Y-62508145D01*
X120824720Y-62693293D01*
X120827106Y-62801500D01*
X120827407Y-62935938D01*
X120823351Y-63036172D01*
X120811740Y-63110313D01*
X120789374Y-63166473D01*
X120753054Y-63212765D01*
X120699580Y-63257301D01*
X120627824Y-63306812D01*
X120461333Y-63399101D01*
X120258988Y-63478930D01*
X120025759Y-63545043D01*
X119766614Y-63596181D01*
X119486525Y-63631088D01*
X119292068Y-63644651D01*
X119141956Y-63653243D01*
X119028323Y-63663598D01*
X118945315Y-63677448D01*
X118887077Y-63696526D01*
X118847757Y-63722565D01*
X118821498Y-63757297D01*
X118807627Y-63788046D01*
X118802626Y-63854251D01*
X118828799Y-63919229D01*
X118877802Y-63966918D01*
X118906783Y-63978902D01*
X118963402Y-63985866D01*
X119053607Y-63988493D01*
X119168921Y-63987244D01*
X119300870Y-63982582D01*
X119440977Y-63974970D01*
X119580768Y-63964870D01*
X119711766Y-63952743D01*
X119825498Y-63939054D01*
X119913487Y-63924263D01*
X119915261Y-63923888D01*
X120186922Y-63856037D01*
X120431520Y-63774446D01*
X120646425Y-63680555D01*
X120829012Y-63575803D01*
X120976653Y-63461630D01*
X121086722Y-63339476D01*
X121138258Y-63253638D01*
X121155243Y-63216399D01*
X121167270Y-63180872D01*
X121174884Y-63139604D01*
X121178629Y-63085143D01*
X121179048Y-63010036D01*
X121176685Y-62906831D01*
X121172601Y-62782941D01*
X121164863Y-62625154D01*
X121152491Y-62447745D01*
X121136991Y-62269259D01*
X121119870Y-62108239D01*
X121113934Y-62060666D01*
X121090980Y-61862029D01*
X121075140Y-61674250D01*
X121066491Y-61502651D01*
X121065107Y-61352553D01*
X121071064Y-61229278D01*
X121084436Y-61138146D01*
X121100232Y-61092491D01*
X121133043Y-61041214D01*
X121171834Y-61003901D01*
X121224267Y-60977594D01*
X121298002Y-60959335D01*
X121400700Y-60946166D01*
X121500654Y-60937902D01*
X121653900Y-60929339D01*
X121831343Y-60923745D01*
X122026403Y-60920967D01*
X122232505Y-60920850D01*
X122443070Y-60923240D01*
G36*
X124552276Y-61106747D02*
X124662496Y-61119479D01*
X124792881Y-61138109D01*
X124935067Y-61161124D01*
X125080693Y-61187010D01*
X125221397Y-61214251D01*
X125348815Y-61241333D01*
X125454586Y-61266743D01*
X125530348Y-61288965D01*
X125551738Y-61297217D01*
X125641642Y-61356689D01*
X125717326Y-61443084D01*
X125767725Y-61542222D01*
X125779534Y-61589200D01*
X125783524Y-61623876D01*
X125790723Y-61696963D01*
X125800795Y-61804686D01*
X125813404Y-61943272D01*
X125828213Y-62108947D01*
X125844885Y-62297936D01*
X125863085Y-62506466D01*
X125882474Y-62730763D01*
X125902717Y-62967052D01*
X125909367Y-63045125D01*
X125934873Y-63344259D01*
X125957262Y-63604549D01*
X125976901Y-63829342D01*
X125994159Y-64021984D01*
X126009402Y-64185822D01*
X126022998Y-64324201D01*
X126035314Y-64440467D01*
X126046719Y-64537968D01*
X126057578Y-64620048D01*
X126068261Y-64690055D01*
X126079135Y-64751335D01*
X126090566Y-64807233D01*
X126102922Y-64861096D01*
X126113538Y-64904244D01*
X126175176Y-65099862D01*
X126257383Y-65272776D01*
X126362377Y-65424287D01*
X126492378Y-65555696D01*
X126649607Y-65668304D01*
X126836283Y-65763410D01*
X127054625Y-65842316D01*
X127306855Y-65906323D01*
X127595191Y-65956731D01*
X127921853Y-65994841D01*
X127984250Y-66000440D01*
X128075133Y-66006183D01*
X128206558Y-66011243D01*
X128378767Y-66015624D01*
X128591998Y-66019329D01*
X128846493Y-66022361D01*
X129142492Y-66024724D01*
X129480235Y-66026420D01*
X129859961Y-66027453D01*
X130037417Y-66027695D01*
X130360084Y-66027976D01*
X130643158Y-66028268D01*
X130889377Y-66028770D01*
X131101479Y-66029680D01*
X131282203Y-66031196D01*
X131434289Y-66033518D01*
X131560475Y-66036844D01*
X131663499Y-66041372D01*
X131746101Y-66047301D01*
X131811019Y-66054830D01*
X131860993Y-66064156D01*
X131898761Y-66075479D01*
X131927061Y-66088997D01*
X131948633Y-66104908D01*
X131966216Y-66123412D01*
X131982548Y-66144706D01*
X132000368Y-66168989D01*
X132001166Y-66170045D01*
X132050776Y-66245189D01*
X132108920Y-66348465D01*
X132171775Y-66471376D01*
X132235516Y-66605424D01*
X132296319Y-66742111D01*
X132350359Y-66872941D01*
X132393813Y-66989417D01*
X132422855Y-67083040D01*
X132432225Y-67127843D01*
X132435938Y-67190090D01*
X132420787Y-67235146D01*
X132382203Y-67282549D01*
X132347737Y-67314360D01*
X132305679Y-67341907D01*
X132252333Y-67365811D01*
X132184004Y-67386691D01*
X132096997Y-67405170D01*
X131987615Y-67421868D01*
X131852165Y-67437405D01*
X131686951Y-67452403D01*
X131488277Y-67467483D01*
X131252447Y-67483265D01*
X131148667Y-67489803D01*
X130989067Y-67499633D01*
X130837863Y-67508698D01*
X130692584Y-67517065D01*
X130550756Y-67524801D01*
X130409909Y-67531973D01*
X130267571Y-67538647D01*
X130121270Y-67544891D01*
X129968535Y-67550770D01*
X129806893Y-67556353D01*
X129633873Y-67561705D01*
X129447004Y-67566893D01*
X129243814Y-67571985D01*
X129021830Y-67577046D01*
X128778582Y-67582144D01*
X128511597Y-67587345D01*
X128218405Y-67592717D01*
X127896532Y-67598326D01*
X127543508Y-67604238D01*
X127156861Y-67610521D01*
X126734119Y-67617241D01*
X126272811Y-67624465D01*
X126015750Y-67628460D01*
X125761450Y-67632616D01*
X125512434Y-67637088D01*
X125273095Y-67641772D01*
X125047828Y-67646564D01*
X124841024Y-67651361D01*
X124657076Y-67656058D01*
X124500379Y-67660552D01*
X124375324Y-67664738D01*
X124286306Y-67668513D01*
X124260067Y-67669993D01*
X124139016Y-67678400D01*
X124050222Y-67687002D01*
X123983648Y-67697834D01*
X123929256Y-67712927D01*
X123877011Y-67734316D01*
X123830730Y-67756963D01*
X123707476Y-67834720D01*
X123579227Y-67942366D01*
X123456055Y-68070227D01*
X123348031Y-68208630D01*
X123325691Y-68242013D01*
X123228767Y-68405806D01*
X123143523Y-68581350D01*
X123067733Y-68774911D01*
X122999171Y-68992752D01*
X122935608Y-69241137D01*
X122881999Y-69490166D01*
X122847528Y-69660280D01*
X122819049Y-69794231D01*
X122794753Y-69897465D01*
X122772832Y-69975429D01*
X122751477Y-70033568D01*
X122728879Y-70077327D01*
X122703230Y-70112153D01*
X122672720Y-70143492D01*
X122661628Y-70153680D01*
X122545317Y-70239390D01*
X122398459Y-70317155D01*
X122232787Y-70381173D01*
X122155871Y-70403779D01*
X122046695Y-70425107D01*
X121905722Y-70441260D01*
X121743204Y-70451973D01*
X121569393Y-70456975D01*
X121394541Y-70456000D01*
X121228900Y-70448779D01*
X121082720Y-70435045D01*
X121062750Y-70432356D01*
X120770603Y-70381996D01*
X120494204Y-70316344D01*
X120238337Y-70237173D01*
X120007789Y-70146256D01*
X119807346Y-70045365D01*
X119641794Y-69936273D01*
X119576383Y-69881750D01*
X119459982Y-69775916D01*
X119432175Y-69532500D01*
X119405111Y-69255140D01*
X121036073Y-69255140D01*
X121036490Y-69336552D01*
X121041697Y-69382542D01*
X121044085Y-69388382D01*
X121069499Y-69412095D01*
X121114702Y-69443727D01*
X121163350Y-69472897D01*
X121199098Y-69489226D01*
X121204247Y-69490087D01*
X121233117Y-69483321D01*
X121270964Y-69470312D01*
X121299103Y-69454698D01*
X121321963Y-69428243D01*
X121340670Y-69385991D01*
X121356353Y-69322986D01*
X121370140Y-69234272D01*
X121383160Y-69114893D01*
X121396539Y-68959894D01*
X121401459Y-68897049D01*
X121426703Y-68591488D01*
X121454499Y-68296066D01*
X121483900Y-68019947D01*
X121513960Y-67772291D01*
X121529332Y-67659250D01*
X121548153Y-67516423D01*
X121558224Y-67408826D01*
X121559202Y-67330196D01*
X121550743Y-67274272D01*
X121532501Y-67234793D01*
X121504395Y-67205702D01*
X121429596Y-67168186D01*
X121357741Y-67170074D01*
X121295957Y-67208646D01*
X121251372Y-67281181D01*
X121243458Y-67305332D01*
X121226229Y-67380839D01*
X121207414Y-67487551D01*
X121187503Y-67620343D01*
X121166988Y-67774091D01*
X121146358Y-67943669D01*
X121126105Y-68123951D01*
X121106718Y-68309812D01*
X121088689Y-68496128D01*
X121072508Y-68677773D01*
X121058665Y-68849622D01*
X121047652Y-69006550D01*
X121039957Y-69143431D01*
X121036073Y-69255140D01*
X119405111Y-69255140D01*
X119399511Y-69197752D01*
X119376287Y-68852912D01*
X119362491Y-68505278D01*
X119358111Y-68162148D01*
X119363137Y-67830819D01*
X119377558Y-67518590D01*
X119401362Y-67232759D01*
X119434538Y-66980622D01*
X119436062Y-66971333D01*
X119477529Y-66765654D01*
X119532168Y-66563857D01*
X119597069Y-66373582D01*
X119669325Y-66202466D01*
X119746026Y-66058149D01*
X119824265Y-65948269D01*
X119826639Y-65945547D01*
X119853283Y-65915567D01*
X119878777Y-65889950D01*
X119906572Y-65868252D01*
X119940120Y-65850028D01*
X119982873Y-65834833D01*
X120038281Y-65822222D01*
X120109795Y-65811750D01*
X120200868Y-65802971D01*
X120314950Y-65795442D01*
X120455493Y-65788716D01*
X120625948Y-65782349D01*
X120829767Y-65775896D01*
X121070401Y-65768912D01*
X121232083Y-65764333D01*
X121410206Y-65758782D01*
X121583711Y-65752424D01*
X121745706Y-65745584D01*
X121889296Y-65738584D01*
X122007591Y-65731748D01*
X122093695Y-65725397D01*
X122121083Y-65722672D01*
X122512960Y-65667486D01*
X122866200Y-65596349D01*
X123181475Y-65509028D01*
X123459455Y-65405286D01*
X123700812Y-65284891D01*
X123906217Y-65147608D01*
X124003836Y-65065069D01*
X124045344Y-65025872D01*
X124079289Y-64989175D01*
X124106345Y-64950460D01*
X124127187Y-64905206D01*
X124142490Y-64848895D01*
X124152928Y-64777009D01*
X124159176Y-64685027D01*
X124161907Y-64568431D01*
X124161797Y-64422703D01*
X124159519Y-64243322D01*
X124156094Y-64044911D01*
X124149114Y-63653864D01*
X124142993Y-63302861D01*
X124137726Y-62989624D01*
X124133306Y-62711872D01*
X124129731Y-62467326D01*
X124126993Y-62253705D01*
X124125088Y-62068732D01*
X124124012Y-61910125D01*
X124123759Y-61775605D01*
X124124323Y-61662893D01*
X124125700Y-61569708D01*
X124127886Y-61493772D01*
X124130873Y-61432803D01*
X124134659Y-61384524D01*
X124139237Y-61346653D01*
X124144603Y-61316912D01*
X124149976Y-61295639D01*
X124181353Y-61210157D01*
X124222056Y-61152978D01*
X124280271Y-61119141D01*
X124364189Y-61103686D01*
X124470583Y-61101429D01*
X124552276Y-61106747D01*
X124552276Y-61106747D01*
G37*
X124552276Y-61106747D02*
X124662496Y-61119479D01*
X124792881Y-61138109D01*
X124935067Y-61161124D01*
X125080693Y-61187010D01*
X125221397Y-61214251D01*
X125348815Y-61241333D01*
X125454586Y-61266743D01*
X125530348Y-61288965D01*
X125551738Y-61297217D01*
X125641642Y-61356689D01*
X125717326Y-61443084D01*
X125767725Y-61542222D01*
X125779534Y-61589200D01*
X125783524Y-61623876D01*
X125790723Y-61696963D01*
X125800795Y-61804686D01*
X125813404Y-61943272D01*
X125828213Y-62108947D01*
X125844885Y-62297936D01*
X125863085Y-62506466D01*
X125882474Y-62730763D01*
X125902717Y-62967052D01*
X125909367Y-63045125D01*
X125934873Y-63344259D01*
X125957262Y-63604549D01*
X125976901Y-63829342D01*
X125994159Y-64021984D01*
X126009402Y-64185822D01*
X126022998Y-64324201D01*
X126035314Y-64440467D01*
X126046719Y-64537968D01*
X126057578Y-64620048D01*
X126068261Y-64690055D01*
X126079135Y-64751335D01*
X126090566Y-64807233D01*
X126102922Y-64861096D01*
X126113538Y-64904244D01*
X126175176Y-65099862D01*
X126257383Y-65272776D01*
X126362377Y-65424287D01*
X126492378Y-65555696D01*
X126649607Y-65668304D01*
X126836283Y-65763410D01*
X127054625Y-65842316D01*
X127306855Y-65906323D01*
X127595191Y-65956731D01*
X127921853Y-65994841D01*
X127984250Y-66000440D01*
X128075133Y-66006183D01*
X128206558Y-66011243D01*
X128378767Y-66015624D01*
X128591998Y-66019329D01*
X128846493Y-66022361D01*
X129142492Y-66024724D01*
X129480235Y-66026420D01*
X129859961Y-66027453D01*
X130037417Y-66027695D01*
X130360084Y-66027976D01*
X130643158Y-66028268D01*
X130889377Y-66028770D01*
X131101479Y-66029680D01*
X131282203Y-66031196D01*
X131434289Y-66033518D01*
X131560475Y-66036844D01*
X131663499Y-66041372D01*
X131746101Y-66047301D01*
X131811019Y-66054830D01*
X131860993Y-66064156D01*
X131898761Y-66075479D01*
X131927061Y-66088997D01*
X131948633Y-66104908D01*
X131966216Y-66123412D01*
X131982548Y-66144706D01*
X132000368Y-66168989D01*
X132001166Y-66170045D01*
X132050776Y-66245189D01*
X132108920Y-66348465D01*
X132171775Y-66471376D01*
X132235516Y-66605424D01*
X132296319Y-66742111D01*
X132350359Y-66872941D01*
X132393813Y-66989417D01*
X132422855Y-67083040D01*
X132432225Y-67127843D01*
X132435938Y-67190090D01*
X132420787Y-67235146D01*
X132382203Y-67282549D01*
X132347737Y-67314360D01*
X132305679Y-67341907D01*
X132252333Y-67365811D01*
X132184004Y-67386691D01*
X132096997Y-67405170D01*
X131987615Y-67421868D01*
X131852165Y-67437405D01*
X131686951Y-67452403D01*
X131488277Y-67467483D01*
X131252447Y-67483265D01*
X131148667Y-67489803D01*
X130989067Y-67499633D01*
X130837863Y-67508698D01*
X130692584Y-67517065D01*
X130550756Y-67524801D01*
X130409909Y-67531973D01*
X130267571Y-67538647D01*
X130121270Y-67544891D01*
X129968535Y-67550770D01*
X129806893Y-67556353D01*
X129633873Y-67561705D01*
X129447004Y-67566893D01*
X129243814Y-67571985D01*
X129021830Y-67577046D01*
X128778582Y-67582144D01*
X128511597Y-67587345D01*
X128218405Y-67592717D01*
X127896532Y-67598326D01*
X127543508Y-67604238D01*
X127156861Y-67610521D01*
X126734119Y-67617241D01*
X126272811Y-67624465D01*
X126015750Y-67628460D01*
X125761450Y-67632616D01*
X125512434Y-67637088D01*
X125273095Y-67641772D01*
X125047828Y-67646564D01*
X124841024Y-67651361D01*
X124657076Y-67656058D01*
X124500379Y-67660552D01*
X124375324Y-67664738D01*
X124286306Y-67668513D01*
X124260067Y-67669993D01*
X124139016Y-67678400D01*
X124050222Y-67687002D01*
X123983648Y-67697834D01*
X123929256Y-67712927D01*
X123877011Y-67734316D01*
X123830730Y-67756963D01*
X123707476Y-67834720D01*
X123579227Y-67942366D01*
X123456055Y-68070227D01*
X123348031Y-68208630D01*
X123325691Y-68242013D01*
X123228767Y-68405806D01*
X123143523Y-68581350D01*
X123067733Y-68774911D01*
X122999171Y-68992752D01*
X122935608Y-69241137D01*
X122881999Y-69490166D01*
X122847528Y-69660280D01*
X122819049Y-69794231D01*
X122794753Y-69897465D01*
X122772832Y-69975429D01*
X122751477Y-70033568D01*
X122728879Y-70077327D01*
X122703230Y-70112153D01*
X122672720Y-70143492D01*
X122661628Y-70153680D01*
X122545317Y-70239390D01*
X122398459Y-70317155D01*
X122232787Y-70381173D01*
X122155871Y-70403779D01*
X122046695Y-70425107D01*
X121905722Y-70441260D01*
X121743204Y-70451973D01*
X121569393Y-70456975D01*
X121394541Y-70456000D01*
X121228900Y-70448779D01*
X121082720Y-70435045D01*
X121062750Y-70432356D01*
X120770603Y-70381996D01*
X120494204Y-70316344D01*
X120238337Y-70237173D01*
X120007789Y-70146256D01*
X119807346Y-70045365D01*
X119641794Y-69936273D01*
X119576383Y-69881750D01*
X119459982Y-69775916D01*
X119432175Y-69532500D01*
X119405111Y-69255140D01*
X121036073Y-69255140D01*
X121036490Y-69336552D01*
X121041697Y-69382542D01*
X121044085Y-69388382D01*
X121069499Y-69412095D01*
X121114702Y-69443727D01*
X121163350Y-69472897D01*
X121199098Y-69489226D01*
X121204247Y-69490087D01*
X121233117Y-69483321D01*
X121270964Y-69470312D01*
X121299103Y-69454698D01*
X121321963Y-69428243D01*
X121340670Y-69385991D01*
X121356353Y-69322986D01*
X121370140Y-69234272D01*
X121383160Y-69114893D01*
X121396539Y-68959894D01*
X121401459Y-68897049D01*
X121426703Y-68591488D01*
X121454499Y-68296066D01*
X121483900Y-68019947D01*
X121513960Y-67772291D01*
X121529332Y-67659250D01*
X121548153Y-67516423D01*
X121558224Y-67408826D01*
X121559202Y-67330196D01*
X121550743Y-67274272D01*
X121532501Y-67234793D01*
X121504395Y-67205702D01*
X121429596Y-67168186D01*
X121357741Y-67170074D01*
X121295957Y-67208646D01*
X121251372Y-67281181D01*
X121243458Y-67305332D01*
X121226229Y-67380839D01*
X121207414Y-67487551D01*
X121187503Y-67620343D01*
X121166988Y-67774091D01*
X121146358Y-67943669D01*
X121126105Y-68123951D01*
X121106718Y-68309812D01*
X121088689Y-68496128D01*
X121072508Y-68677773D01*
X121058665Y-68849622D01*
X121047652Y-69006550D01*
X121039957Y-69143431D01*
X121036073Y-69255140D01*
X119405111Y-69255140D01*
X119399511Y-69197752D01*
X119376287Y-68852912D01*
X119362491Y-68505278D01*
X119358111Y-68162148D01*
X119363137Y-67830819D01*
X119377558Y-67518590D01*
X119401362Y-67232759D01*
X119434538Y-66980622D01*
X119436062Y-66971333D01*
X119477529Y-66765654D01*
X119532168Y-66563857D01*
X119597069Y-66373582D01*
X119669325Y-66202466D01*
X119746026Y-66058149D01*
X119824265Y-65948269D01*
X119826639Y-65945547D01*
X119853283Y-65915567D01*
X119878777Y-65889950D01*
X119906572Y-65868252D01*
X119940120Y-65850028D01*
X119982873Y-65834833D01*
X120038281Y-65822222D01*
X120109795Y-65811750D01*
X120200868Y-65802971D01*
X120314950Y-65795442D01*
X120455493Y-65788716D01*
X120625948Y-65782349D01*
X120829767Y-65775896D01*
X121070401Y-65768912D01*
X121232083Y-65764333D01*
X121410206Y-65758782D01*
X121583711Y-65752424D01*
X121745706Y-65745584D01*
X121889296Y-65738584D01*
X122007591Y-65731748D01*
X122093695Y-65725397D01*
X122121083Y-65722672D01*
X122512960Y-65667486D01*
X122866200Y-65596349D01*
X123181475Y-65509028D01*
X123459455Y-65405286D01*
X123700812Y-65284891D01*
X123906217Y-65147608D01*
X124003836Y-65065069D01*
X124045344Y-65025872D01*
X124079289Y-64989175D01*
X124106345Y-64950460D01*
X124127187Y-64905206D01*
X124142490Y-64848895D01*
X124152928Y-64777009D01*
X124159176Y-64685027D01*
X124161907Y-64568431D01*
X124161797Y-64422703D01*
X124159519Y-64243322D01*
X124156094Y-64044911D01*
X124149114Y-63653864D01*
X124142993Y-63302861D01*
X124137726Y-62989624D01*
X124133306Y-62711872D01*
X124129731Y-62467326D01*
X124126993Y-62253705D01*
X124125088Y-62068732D01*
X124124012Y-61910125D01*
X124123759Y-61775605D01*
X124124323Y-61662893D01*
X124125700Y-61569708D01*
X124127886Y-61493772D01*
X124130873Y-61432803D01*
X124134659Y-61384524D01*
X124139237Y-61346653D01*
X124144603Y-61316912D01*
X124149976Y-61295639D01*
X124181353Y-61210157D01*
X124222056Y-61152978D01*
X124280271Y-61119141D01*
X124364189Y-61103686D01*
X124470583Y-61101429D01*
X124552276Y-61106747D01*
G36*
X111057393Y-67776119D02*
X111075517Y-67786553D01*
X111130257Y-67822420D01*
X111115478Y-68439335D01*
X111108725Y-68704806D01*
X111101899Y-68931242D01*
X111094592Y-69121938D01*
X111086392Y-69280192D01*
X111076889Y-69409299D01*
X111065675Y-69512555D01*
X111052338Y-69593258D01*
X111036468Y-69654702D01*
X111017656Y-69700186D01*
X110995492Y-69733004D01*
X110969565Y-69756454D01*
X110950156Y-69768420D01*
X110910316Y-69778390D01*
X110830716Y-69787685D01*
X110713925Y-69796221D01*
X110562513Y-69803912D01*
X110379047Y-69810676D01*
X110166097Y-69816427D01*
X109926233Y-69821080D01*
X109662023Y-69824552D01*
X109376037Y-69826758D01*
X109151208Y-69827527D01*
X108373333Y-69828833D01*
X108373333Y-69731751D01*
X108375545Y-69682860D01*
X108386061Y-69643137D01*
X108410699Y-69602224D01*
X108455279Y-69549763D01*
X108505625Y-69496268D01*
X108661599Y-69345826D01*
X108854255Y-69181932D01*
X109080869Y-69006612D01*
X109338722Y-68821895D01*
X109625093Y-68629806D01*
X109918500Y-68443931D01*
X110025852Y-68376110D01*
X110155629Y-68291679D01*
X110295794Y-68198612D01*
X110434307Y-68104883D01*
X110528514Y-68039890D01*
X110668616Y-67943301D01*
X110779466Y-67869931D01*
X110865708Y-67817629D01*
X110931980Y-67784246D01*
X110982925Y-67767633D01*
X111023182Y-67765640D01*
X111057393Y-67776119D01*
X111057393Y-67776119D01*
G37*
X111057393Y-67776119D02*
X111075517Y-67786553D01*
X111130257Y-67822420D01*
X111115478Y-68439335D01*
X111108725Y-68704806D01*
X111101899Y-68931242D01*
X111094592Y-69121938D01*
X111086392Y-69280192D01*
X111076889Y-69409299D01*
X111065675Y-69512555D01*
X111052338Y-69593258D01*
X111036468Y-69654702D01*
X111017656Y-69700186D01*
X110995492Y-69733004D01*
X110969565Y-69756454D01*
X110950156Y-69768420D01*
X110910316Y-69778390D01*
X110830716Y-69787685D01*
X110713925Y-69796221D01*
X110562513Y-69803912D01*
X110379047Y-69810676D01*
X110166097Y-69816427D01*
X109926233Y-69821080D01*
X109662023Y-69824552D01*
X109376037Y-69826758D01*
X109151208Y-69827527D01*
X108373333Y-69828833D01*
X108373333Y-69731751D01*
X108375545Y-69682860D01*
X108386061Y-69643137D01*
X108410699Y-69602224D01*
X108455279Y-69549763D01*
X108505625Y-69496268D01*
X108661599Y-69345826D01*
X108854255Y-69181932D01*
X109080869Y-69006612D01*
X109338722Y-68821895D01*
X109625093Y-68629806D01*
X109918500Y-68443931D01*
X110025852Y-68376110D01*
X110155629Y-68291679D01*
X110295794Y-68198612D01*
X110434307Y-68104883D01*
X110528514Y-68039890D01*
X110668616Y-67943301D01*
X110779466Y-67869931D01*
X110865708Y-67817629D01*
X110931980Y-67784246D01*
X110982925Y-67767633D01*
X111023182Y-67765640D01*
X111057393Y-67776119D01*
G36*
X126413667Y-61562862D02*
X126495577Y-61571982D01*
X126596223Y-61585136D01*
X126692258Y-61602541D01*
X126791542Y-61626428D01*
X126901938Y-61659025D01*
X127031307Y-61702565D01*
X127187510Y-61759277D01*
X127285750Y-61796150D01*
X127697321Y-61959878D01*
X128073043Y-62126791D01*
X128419398Y-62300392D01*
X128742868Y-62484183D01*
X129049938Y-62681668D01*
X129347088Y-62896349D01*
X129406274Y-62941949D01*
X129773070Y-63241092D01*
X130125840Y-63555738D01*
X130459883Y-63880963D01*
X130770497Y-64211841D01*
X131052980Y-64543448D01*
X131302632Y-64870859D01*
X131442110Y-65074551D01*
X131514602Y-65199064D01*
X131555730Y-65306039D01*
X131567528Y-65403952D01*
X131552027Y-65501281D01*
X131547817Y-65515272D01*
X131538818Y-65542988D01*
X131528648Y-65567029D01*
X131514405Y-65587668D01*
X131493190Y-65605181D01*
X131462101Y-65619842D01*
X131418238Y-65631925D01*
X131358700Y-65641706D01*
X131280586Y-65649458D01*
X131180995Y-65655456D01*
X131057027Y-65659975D01*
X130905781Y-65663289D01*
X130724356Y-65665672D01*
X130509852Y-65667400D01*
X130259366Y-65668746D01*
X129970000Y-65669986D01*
X129910417Y-65670232D01*
X129659550Y-65670965D01*
X129412373Y-65671109D01*
X129173610Y-65670697D01*
X128947987Y-65669764D01*
X128740228Y-65668341D01*
X128555059Y-65666465D01*
X128397203Y-65664166D01*
X128271387Y-65661481D01*
X128182334Y-65658441D01*
X128170667Y-65657864D01*
X127840658Y-65633056D01*
X127549733Y-65595438D01*
X127296504Y-65544620D01*
X127079587Y-65480216D01*
X126897594Y-65401837D01*
X126749139Y-65309095D01*
X126665609Y-65236600D01*
X126606214Y-65170196D01*
X126555365Y-65096183D01*
X126511938Y-65010227D01*
X126474807Y-64907996D01*
X126442848Y-64785157D01*
X126414937Y-64637377D01*
X126389949Y-64460323D01*
X126366758Y-64249663D01*
X126344240Y-64001064D01*
X126343934Y-63997416D01*
X126328688Y-63817377D01*
X126311624Y-63619436D01*
X126293981Y-63417740D01*
X126276999Y-63226436D01*
X126261917Y-63059670D01*
X126258615Y-63023750D01*
X126233893Y-62753639D01*
X126213269Y-62522574D01*
X126196570Y-62327483D01*
X126183620Y-62165294D01*
X126174244Y-62032934D01*
X126168266Y-61927334D01*
X126165513Y-61845420D01*
X126165808Y-61784120D01*
X126168977Y-61740365D01*
X126174845Y-61711081D01*
X126182812Y-61693792D01*
X126228763Y-61628384D01*
X126263846Y-61586863D01*
X126299038Y-61564952D01*
X126345319Y-61558377D01*
X126413667Y-61562862D01*
X126413667Y-61562862D01*
G37*
X126413667Y-61562862D02*
X126495577Y-61571982D01*
X126596223Y-61585136D01*
X126692258Y-61602541D01*
X126791542Y-61626428D01*
X126901938Y-61659025D01*
X127031307Y-61702565D01*
X127187510Y-61759277D01*
X127285750Y-61796150D01*
X127697321Y-61959878D01*
X128073043Y-62126791D01*
X128419398Y-62300392D01*
X128742868Y-62484183D01*
X129049938Y-62681668D01*
X129347088Y-62896349D01*
X129406274Y-62941949D01*
X129773070Y-63241092D01*
X130125840Y-63555738D01*
X130459883Y-63880963D01*
X130770497Y-64211841D01*
X131052980Y-64543448D01*
X131302632Y-64870859D01*
X131442110Y-65074551D01*
X131514602Y-65199064D01*
X131555730Y-65306039D01*
X131567528Y-65403952D01*
X131552027Y-65501281D01*
X131547817Y-65515272D01*
X131538818Y-65542988D01*
X131528648Y-65567029D01*
X131514405Y-65587668D01*
X131493190Y-65605181D01*
X131462101Y-65619842D01*
X131418238Y-65631925D01*
X131358700Y-65641706D01*
X131280586Y-65649458D01*
X131180995Y-65655456D01*
X131057027Y-65659975D01*
X130905781Y-65663289D01*
X130724356Y-65665672D01*
X130509852Y-65667400D01*
X130259366Y-65668746D01*
X129970000Y-65669986D01*
X129910417Y-65670232D01*
X129659550Y-65670965D01*
X129412373Y-65671109D01*
X129173610Y-65670697D01*
X128947987Y-65669764D01*
X128740228Y-65668341D01*
X128555059Y-65666465D01*
X128397203Y-65664166D01*
X128271387Y-65661481D01*
X128182334Y-65658441D01*
X128170667Y-65657864D01*
X127840658Y-65633056D01*
X127549733Y-65595438D01*
X127296504Y-65544620D01*
X127079587Y-65480216D01*
X126897594Y-65401837D01*
X126749139Y-65309095D01*
X126665609Y-65236600D01*
X126606214Y-65170196D01*
X126555365Y-65096183D01*
X126511938Y-65010227D01*
X126474807Y-64907996D01*
X126442848Y-64785157D01*
X126414937Y-64637377D01*
X126389949Y-64460323D01*
X126366758Y-64249663D01*
X126344240Y-64001064D01*
X126343934Y-63997416D01*
X126328688Y-63817377D01*
X126311624Y-63619436D01*
X126293981Y-63417740D01*
X126276999Y-63226436D01*
X126261917Y-63059670D01*
X126258615Y-63023750D01*
X126233893Y-62753639D01*
X126213269Y-62522574D01*
X126196570Y-62327483D01*
X126183620Y-62165294D01*
X126174244Y-62032934D01*
X126168266Y-61927334D01*
X126165513Y-61845420D01*
X126165808Y-61784120D01*
X126168977Y-61740365D01*
X126174845Y-61711081D01*
X126182812Y-61693792D01*
X126228763Y-61628384D01*
X126263846Y-61586863D01*
X126299038Y-61564952D01*
X126345319Y-61558377D01*
X126413667Y-61562862D01*
D14*
X107030500Y-84265000D02*
X106649500Y-84265000D01*
X114650500Y-92520000D02*
X113634500Y-93155000D01*
X106649500Y-84265000D02*
X106649500Y-93155000D01*
X106649500Y-93155000D02*
X113634500Y-93155000D01*
X114650500Y-92520000D02*
X114650500Y-84265000D01*
X114650500Y-84265000D02*
X107030500Y-84265000D01*
X122960000Y-129680000D02*
X121960000Y-130680000D01*
X121960000Y-130680000D02*
X121960000Y-135080000D01*
X121960000Y-135080000D02*
X131960000Y-135080000D01*
X131960000Y-135080000D02*
X131960000Y-129680000D01*
X131960000Y-129680000D02*
X122960000Y-129680000D01*
X123000000Y-123284000D02*
X122000000Y-124284000D01*
X122000000Y-124284000D02*
X122000000Y-128684000D01*
X122000000Y-128684000D02*
X132000000Y-128684000D01*
X132000000Y-128684000D02*
X132000000Y-123284000D01*
X132000000Y-123284000D02*
X123000000Y-123284000D01*
X70930000Y-122014000D02*
X69930000Y-123014000D01*
X69930000Y-123014000D02*
X69930000Y-127414000D01*
X69930000Y-127414000D02*
X79930000Y-127414000D01*
X79930000Y-127414000D02*
X79930000Y-122014000D01*
X79930000Y-122014000D02*
X70930000Y-122014000D01*
X90932000Y-132588000D02*
X89217500Y-132588000D01*
X89217500Y-132588000D02*
X88900000Y-132334000D01*
X88900000Y-132334000D02*
X88900000Y-129984500D01*
X88900000Y-129984500D02*
X89281000Y-129984500D01*
X89281000Y-129984500D02*
X90932000Y-129984500D01*
X90932000Y-129984500D02*
X90932000Y-132588000D01*
X68950000Y-97360000D02*
X69950000Y-98360000D01*
X69950000Y-98360000D02*
X76450000Y-98360000D01*
X76450000Y-98360000D02*
X76450000Y-87560000D01*
X76450000Y-87560000D02*
X68950000Y-87560000D01*
X68950000Y-87560000D02*
X68950000Y-97360000D01*
X90376477Y-140168381D02*
X90376477Y-140882667D01*
X90328857Y-141025524D01*
X90233619Y-141120762D01*
X90090762Y-141168381D01*
X89995524Y-141168381D01*
X90757429Y-140168381D02*
X91376477Y-140168381D01*
X91043143Y-140549333D01*
X91186001Y-140549333D01*
X91281239Y-140596952D01*
X91328858Y-140644571D01*
X91376477Y-140739810D01*
X91376477Y-140977905D01*
X91328858Y-141073143D01*
X91281239Y-141120762D01*
X91186001Y-141168381D01*
X90900286Y-141168381D01*
X90805048Y-141120762D01*
X90757429Y-141073143D01*
X91709810Y-140168381D02*
X92328858Y-140168381D01*
X91995524Y-140549333D01*
X92138382Y-140549333D01*
X92233620Y-140596952D01*
X92281239Y-140644571D01*
X92328858Y-140739810D01*
X92328858Y-140977905D01*
X92281239Y-141073143D01*
X92233620Y-141120762D01*
X92138382Y-141168381D01*
X91852667Y-141168381D01*
X91757429Y-141120762D01*
X91709810Y-141073143D01*
X120774286Y-120971429D02*
X120831429Y-120800000D01*
X120888571Y-120742857D01*
X121002857Y-120685714D01*
X121174286Y-120685714D01*
X121288571Y-120742857D01*
X121345714Y-120800000D01*
X121402857Y-120914286D01*
X121402857Y-121371429D01*
X120202857Y-121371429D01*
X120202857Y-120971429D01*
X120260000Y-120857143D01*
X120317143Y-120800000D01*
X120431429Y-120742857D01*
X120545714Y-120742857D01*
X120660000Y-120800000D01*
X120717143Y-120857143D01*
X120774286Y-120971429D01*
X120774286Y-121371429D01*
X120202857Y-120342857D02*
X120202857Y-119657143D01*
X121402857Y-120000000D02*
X120202857Y-120000000D01*
X121402857Y-119257143D02*
X120202857Y-119257143D01*
X121402857Y-118571428D01*
X120202857Y-118571428D01*
X121402857Y-117371428D02*
X121402857Y-118057143D01*
X121402857Y-117714285D02*
X120202857Y-117714285D01*
X120374286Y-117828571D01*
X120488571Y-117942857D01*
X120545714Y-118057143D01*
D16*
X71561333Y-68143619D02*
X71561333Y-68869333D01*
X71512953Y-69014476D01*
X71416191Y-69111238D01*
X71271048Y-69159619D01*
X71174286Y-69159619D01*
X72480571Y-68482286D02*
X72480571Y-69159619D01*
X72238667Y-68095238D02*
X71996762Y-68820952D01*
X72625714Y-68820952D01*
D14*
X84701143Y-129643143D02*
X84653524Y-129690762D01*
X84510667Y-129738381D01*
X84415429Y-129738381D01*
X84272571Y-129690762D01*
X84177333Y-129595524D01*
X84129714Y-129500286D01*
X84082095Y-129309810D01*
X84082095Y-129166952D01*
X84129714Y-128976476D01*
X84177333Y-128881238D01*
X84272571Y-128786000D01*
X84415429Y-128738381D01*
X84510667Y-128738381D01*
X84653524Y-128786000D01*
X84701143Y-128833619D01*
X85653524Y-129738381D02*
X85082095Y-129738381D01*
X85367809Y-129738381D02*
X85367809Y-128738381D01*
X85272571Y-128881238D01*
X85177333Y-128976476D01*
X85082095Y-129024095D01*
X86558286Y-128738381D02*
X86082095Y-128738381D01*
X86034476Y-129214571D01*
X86082095Y-129166952D01*
X86177333Y-129119333D01*
X86415429Y-129119333D01*
X86510667Y-129166952D01*
X86558286Y-129214571D01*
X86605905Y-129309810D01*
X86605905Y-129547905D01*
X86558286Y-129643143D01*
X86510667Y-129690762D01*
X86415429Y-129738381D01*
X86177333Y-129738381D01*
X86082095Y-129690762D01*
X86034476Y-129643143D01*
X85431334Y-87225143D02*
X85383715Y-87272762D01*
X85240858Y-87320381D01*
X85145620Y-87320381D01*
X85002762Y-87272762D01*
X84907524Y-87177524D01*
X84859905Y-87082286D01*
X84812286Y-86891810D01*
X84812286Y-86748952D01*
X84859905Y-86558476D01*
X84907524Y-86463238D01*
X85002762Y-86368000D01*
X85145620Y-86320381D01*
X85240858Y-86320381D01*
X85383715Y-86368000D01*
X85431334Y-86415619D01*
X86383715Y-87320381D02*
X85812286Y-87320381D01*
X86098000Y-87320381D02*
X86098000Y-86320381D01*
X86002762Y-86463238D01*
X85907524Y-86558476D01*
X85812286Y-86606095D01*
X84923334Y-96623143D02*
X84875715Y-96670762D01*
X84732858Y-96718381D01*
X84637620Y-96718381D01*
X84494762Y-96670762D01*
X84399524Y-96575524D01*
X84351905Y-96480286D01*
X84304286Y-96289810D01*
X84304286Y-96146952D01*
X84351905Y-95956476D01*
X84399524Y-95861238D01*
X84494762Y-95766000D01*
X84637620Y-95718381D01*
X84732858Y-95718381D01*
X84875715Y-95766000D01*
X84923334Y-95813619D01*
X85304286Y-95813619D02*
X85351905Y-95766000D01*
X85447143Y-95718381D01*
X85685239Y-95718381D01*
X85780477Y-95766000D01*
X85828096Y-95813619D01*
X85875715Y-95908857D01*
X85875715Y-96004095D01*
X85828096Y-96146952D01*
X85256667Y-96718381D01*
X85875715Y-96718381D01*
X103411143Y-128142857D02*
X103458762Y-128190476D01*
X103506381Y-128333333D01*
X103506381Y-128428571D01*
X103458762Y-128571429D01*
X103363524Y-128666667D01*
X103268286Y-128714286D01*
X103077810Y-128761905D01*
X102934952Y-128761905D01*
X102744476Y-128714286D01*
X102649238Y-128666667D01*
X102554000Y-128571429D01*
X102506381Y-128428571D01*
X102506381Y-128333333D01*
X102554000Y-128190476D01*
X102601619Y-128142857D01*
X103506381Y-127190476D02*
X103506381Y-127761905D01*
X103506381Y-127476191D02*
X102506381Y-127476191D01*
X102649238Y-127571429D01*
X102744476Y-127666667D01*
X102792095Y-127761905D01*
X102839714Y-126333333D02*
X103506381Y-126333333D01*
X102458762Y-126571429D02*
X103173048Y-126809524D01*
X103173048Y-126190476D01*
X82470667Y-60666381D02*
X82470667Y-61380667D01*
X82423047Y-61523524D01*
X82327809Y-61618762D01*
X82184952Y-61666381D01*
X82089714Y-61666381D01*
X83470667Y-61666381D02*
X82899238Y-61666381D01*
X83184952Y-61666381D02*
X83184952Y-60666381D01*
X83089714Y-60809238D01*
X82994476Y-60904476D01*
X82899238Y-60952095D01*
X119802381Y-91843333D02*
X120516667Y-91843333D01*
X120659524Y-91890953D01*
X120754762Y-91986191D01*
X120802381Y-92129048D01*
X120802381Y-92224286D01*
X119897619Y-91414762D02*
X119850000Y-91367143D01*
X119802381Y-91271905D01*
X119802381Y-91033809D01*
X119850000Y-90938571D01*
X119897619Y-90890952D01*
X119992857Y-90843333D01*
X120088095Y-90843333D01*
X120230952Y-90890952D01*
X120802381Y-91462381D01*
X120802381Y-90843333D01*
X120002381Y-83393333D02*
X120716667Y-83393333D01*
X120859524Y-83440953D01*
X120954762Y-83536191D01*
X121002381Y-83679048D01*
X121002381Y-83774286D01*
X120002381Y-83012381D02*
X120002381Y-82393333D01*
X120383333Y-82726667D01*
X120383333Y-82583809D01*
X120430952Y-82488571D01*
X120478571Y-82440952D01*
X120573810Y-82393333D01*
X120811905Y-82393333D01*
X120907143Y-82440952D01*
X120954762Y-82488571D01*
X121002381Y-82583809D01*
X121002381Y-82869524D01*
X120954762Y-82964762D01*
X120907143Y-83012381D01*
X86294857Y-106318000D02*
X87152000Y-106318000D01*
X87323429Y-106375142D01*
X87437714Y-106489428D01*
X87494857Y-106660857D01*
X87494857Y-106775142D01*
X86294857Y-105175142D02*
X86294857Y-105746571D01*
X86866286Y-105803714D01*
X86809143Y-105746571D01*
X86752000Y-105632285D01*
X86752000Y-105346571D01*
X86809143Y-105232285D01*
X86866286Y-105175142D01*
X86980571Y-105117999D01*
X87266286Y-105117999D01*
X87380571Y-105175142D01*
X87437714Y-105232285D01*
X87494857Y-105346571D01*
X87494857Y-105632285D01*
X87437714Y-105746571D01*
X87380571Y-105803714D01*
X97623334Y-89098381D02*
X97290000Y-88622190D01*
X97051905Y-89098381D02*
X97051905Y-88098381D01*
X97432858Y-88098381D01*
X97528096Y-88146000D01*
X97575715Y-88193619D01*
X97623334Y-88288857D01*
X97623334Y-88431714D01*
X97575715Y-88526952D01*
X97528096Y-88574571D01*
X97432858Y-88622190D01*
X97051905Y-88622190D01*
X98575715Y-89098381D02*
X98004286Y-89098381D01*
X98290000Y-89098381D02*
X98290000Y-88098381D01*
X98194762Y-88241238D01*
X98099524Y-88336476D01*
X98004286Y-88384095D01*
X76287334Y-117038381D02*
X75954000Y-116562190D01*
X75715905Y-117038381D02*
X75715905Y-116038381D01*
X76096858Y-116038381D01*
X76192096Y-116086000D01*
X76239715Y-116133619D01*
X76287334Y-116228857D01*
X76287334Y-116371714D01*
X76239715Y-116466952D01*
X76192096Y-116514571D01*
X76096858Y-116562190D01*
X75715905Y-116562190D01*
X76668286Y-116133619D02*
X76715905Y-116086000D01*
X76811143Y-116038381D01*
X77049239Y-116038381D01*
X77144477Y-116086000D01*
X77192096Y-116133619D01*
X77239715Y-116228857D01*
X77239715Y-116324095D01*
X77192096Y-116466952D01*
X76620667Y-117038381D01*
X77239715Y-117038381D01*
X76287334Y-118308381D02*
X75954000Y-117832190D01*
X75715905Y-118308381D02*
X75715905Y-117308381D01*
X76096858Y-117308381D01*
X76192096Y-117356000D01*
X76239715Y-117403619D01*
X76287334Y-117498857D01*
X76287334Y-117641714D01*
X76239715Y-117736952D01*
X76192096Y-117784571D01*
X76096858Y-117832190D01*
X75715905Y-117832190D01*
X76620667Y-117308381D02*
X77239715Y-117308381D01*
X76906381Y-117689333D01*
X77049239Y-117689333D01*
X77144477Y-117736952D01*
X77192096Y-117784571D01*
X77239715Y-117879810D01*
X77239715Y-118117905D01*
X77192096Y-118213143D01*
X77144477Y-118260762D01*
X77049239Y-118308381D01*
X76763524Y-118308381D01*
X76668286Y-118260762D01*
X76620667Y-118213143D01*
X76287334Y-119578381D02*
X75954000Y-119102190D01*
X75715905Y-119578381D02*
X75715905Y-118578381D01*
X76096858Y-118578381D01*
X76192096Y-118626000D01*
X76239715Y-118673619D01*
X76287334Y-118768857D01*
X76287334Y-118911714D01*
X76239715Y-119006952D01*
X76192096Y-119054571D01*
X76096858Y-119102190D01*
X75715905Y-119102190D01*
X77144477Y-118911714D02*
X77144477Y-119578381D01*
X76906381Y-118530762D02*
X76668286Y-119245048D01*
X77287334Y-119245048D01*
X95758095Y-117562381D02*
X95758095Y-118371905D01*
X95805714Y-118467143D01*
X95853333Y-118514762D01*
X95948571Y-118562381D01*
X96139048Y-118562381D01*
X96234286Y-118514762D01*
X96281905Y-118467143D01*
X96329524Y-118371905D01*
X96329524Y-117562381D01*
X96710476Y-117562381D02*
X97329524Y-117562381D01*
X96996190Y-117943333D01*
X97139048Y-117943333D01*
X97234286Y-117990952D01*
X97281905Y-118038571D01*
X97329524Y-118133810D01*
X97329524Y-118371905D01*
X97281905Y-118467143D01*
X97234286Y-118514762D01*
X97139048Y-118562381D01*
X96853333Y-118562381D01*
X96758095Y-118514762D01*
X96710476Y-118467143D01*
X91813143Y-133707143D02*
X91765524Y-133754762D01*
X91622667Y-133802381D01*
X91527429Y-133802381D01*
X91384571Y-133754762D01*
X91289333Y-133659524D01*
X91241714Y-133564286D01*
X91194095Y-133373810D01*
X91194095Y-133230952D01*
X91241714Y-133040476D01*
X91289333Y-132945238D01*
X91384571Y-132850000D01*
X91527429Y-132802381D01*
X91622667Y-132802381D01*
X91765524Y-132850000D01*
X91813143Y-132897619D01*
X92765524Y-133802381D02*
X92194095Y-133802381D01*
X92479809Y-133802381D02*
X92479809Y-132802381D01*
X92384571Y-132945238D01*
X92289333Y-133040476D01*
X92194095Y-133088095D01*
X93622667Y-132802381D02*
X93432190Y-132802381D01*
X93336952Y-132850000D01*
X93289333Y-132897619D01*
X93194095Y-133040476D01*
X93146476Y-133230952D01*
X93146476Y-133611905D01*
X93194095Y-133707143D01*
X93241714Y-133754762D01*
X93336952Y-133802381D01*
X93527429Y-133802381D01*
X93622667Y-133754762D01*
X93670286Y-133707143D01*
X93717905Y-133611905D01*
X93717905Y-133373810D01*
X93670286Y-133278571D01*
X93622667Y-133230952D01*
X93527429Y-133183333D01*
X93336952Y-133183333D01*
X93241714Y-133230952D01*
X93194095Y-133278571D01*
X93146476Y-133373810D01*
X99655334Y-91289143D02*
X99607715Y-91336762D01*
X99464858Y-91384381D01*
X99369620Y-91384381D01*
X99226762Y-91336762D01*
X99131524Y-91241524D01*
X99083905Y-91146286D01*
X99036286Y-90955810D01*
X99036286Y-90812952D01*
X99083905Y-90622476D01*
X99131524Y-90527238D01*
X99226762Y-90432000D01*
X99369620Y-90384381D01*
X99464858Y-90384381D01*
X99607715Y-90432000D01*
X99655334Y-90479619D01*
X99988667Y-90384381D02*
X100607715Y-90384381D01*
X100274381Y-90765333D01*
X100417239Y-90765333D01*
X100512477Y-90812952D01*
X100560096Y-90860571D01*
X100607715Y-90955810D01*
X100607715Y-91193905D01*
X100560096Y-91289143D01*
X100512477Y-91336762D01*
X100417239Y-91384381D01*
X100131524Y-91384381D01*
X100036286Y-91336762D01*
X99988667Y-91289143D01*
X104481334Y-91289143D02*
X104433715Y-91336762D01*
X104290858Y-91384381D01*
X104195620Y-91384381D01*
X104052762Y-91336762D01*
X103957524Y-91241524D01*
X103909905Y-91146286D01*
X103862286Y-90955810D01*
X103862286Y-90812952D01*
X103909905Y-90622476D01*
X103957524Y-90527238D01*
X104052762Y-90432000D01*
X104195620Y-90384381D01*
X104290858Y-90384381D01*
X104433715Y-90432000D01*
X104481334Y-90479619D01*
X105338477Y-90717714D02*
X105338477Y-91384381D01*
X105100381Y-90336762D02*
X104862286Y-91051048D01*
X105481334Y-91051048D01*
X101433334Y-84685143D02*
X101385715Y-84732762D01*
X101242858Y-84780381D01*
X101147620Y-84780381D01*
X101004762Y-84732762D01*
X100909524Y-84637524D01*
X100861905Y-84542286D01*
X100814286Y-84351810D01*
X100814286Y-84208952D01*
X100861905Y-84018476D01*
X100909524Y-83923238D01*
X101004762Y-83828000D01*
X101147620Y-83780381D01*
X101242858Y-83780381D01*
X101385715Y-83828000D01*
X101433334Y-83875619D01*
X102338096Y-83780381D02*
X101861905Y-83780381D01*
X101814286Y-84256571D01*
X101861905Y-84208952D01*
X101957143Y-84161333D01*
X102195239Y-84161333D01*
X102290477Y-84208952D01*
X102338096Y-84256571D01*
X102385715Y-84351810D01*
X102385715Y-84589905D01*
X102338096Y-84685143D01*
X102290477Y-84732762D01*
X102195239Y-84780381D01*
X101957143Y-84780381D01*
X101861905Y-84732762D01*
X101814286Y-84685143D01*
X105751334Y-83415143D02*
X105703715Y-83462762D01*
X105560858Y-83510381D01*
X105465620Y-83510381D01*
X105322762Y-83462762D01*
X105227524Y-83367524D01*
X105179905Y-83272286D01*
X105132286Y-83081810D01*
X105132286Y-82938952D01*
X105179905Y-82748476D01*
X105227524Y-82653238D01*
X105322762Y-82558000D01*
X105465620Y-82510381D01*
X105560858Y-82510381D01*
X105703715Y-82558000D01*
X105751334Y-82605619D01*
X106608477Y-82510381D02*
X106418000Y-82510381D01*
X106322762Y-82558000D01*
X106275143Y-82605619D01*
X106179905Y-82748476D01*
X106132286Y-82938952D01*
X106132286Y-83319905D01*
X106179905Y-83415143D01*
X106227524Y-83462762D01*
X106322762Y-83510381D01*
X106513239Y-83510381D01*
X106608477Y-83462762D01*
X106656096Y-83415143D01*
X106703715Y-83319905D01*
X106703715Y-83081810D01*
X106656096Y-82986571D01*
X106608477Y-82938952D01*
X106513239Y-82891333D01*
X106322762Y-82891333D01*
X106227524Y-82938952D01*
X106179905Y-82986571D01*
X106132286Y-83081810D01*
X93813334Y-129389143D02*
X93765715Y-129436762D01*
X93622858Y-129484381D01*
X93527620Y-129484381D01*
X93384762Y-129436762D01*
X93289524Y-129341524D01*
X93241905Y-129246286D01*
X93194286Y-129055810D01*
X93194286Y-128912952D01*
X93241905Y-128722476D01*
X93289524Y-128627238D01*
X93384762Y-128532000D01*
X93527620Y-128484381D01*
X93622858Y-128484381D01*
X93765715Y-128532000D01*
X93813334Y-128579619D01*
X94146667Y-128484381D02*
X94813334Y-128484381D01*
X94384762Y-129484381D01*
X84161334Y-130913143D02*
X84113715Y-130960762D01*
X83970858Y-131008381D01*
X83875620Y-131008381D01*
X83732762Y-130960762D01*
X83637524Y-130865524D01*
X83589905Y-130770286D01*
X83542286Y-130579810D01*
X83542286Y-130436952D01*
X83589905Y-130246476D01*
X83637524Y-130151238D01*
X83732762Y-130056000D01*
X83875620Y-130008381D01*
X83970858Y-130008381D01*
X84113715Y-130056000D01*
X84161334Y-130103619D01*
X84732762Y-130436952D02*
X84637524Y-130389333D01*
X84589905Y-130341714D01*
X84542286Y-130246476D01*
X84542286Y-130198857D01*
X84589905Y-130103619D01*
X84637524Y-130056000D01*
X84732762Y-130008381D01*
X84923239Y-130008381D01*
X85018477Y-130056000D01*
X85066096Y-130103619D01*
X85113715Y-130198857D01*
X85113715Y-130246476D01*
X85066096Y-130341714D01*
X85018477Y-130389333D01*
X84923239Y-130436952D01*
X84732762Y-130436952D01*
X84637524Y-130484571D01*
X84589905Y-130532190D01*
X84542286Y-130627429D01*
X84542286Y-130817905D01*
X84589905Y-130913143D01*
X84637524Y-130960762D01*
X84732762Y-131008381D01*
X84923239Y-131008381D01*
X85018477Y-130960762D01*
X85066096Y-130913143D01*
X85113715Y-130817905D01*
X85113715Y-130627429D01*
X85066096Y-130532190D01*
X85018477Y-130484571D01*
X84923239Y-130436952D01*
X93051334Y-116943143D02*
X93003715Y-116990762D01*
X92860858Y-117038381D01*
X92765620Y-117038381D01*
X92622762Y-116990762D01*
X92527524Y-116895524D01*
X92479905Y-116800286D01*
X92432286Y-116609810D01*
X92432286Y-116466952D01*
X92479905Y-116276476D01*
X92527524Y-116181238D01*
X92622762Y-116086000D01*
X92765620Y-116038381D01*
X92860858Y-116038381D01*
X93003715Y-116086000D01*
X93051334Y-116133619D01*
X93527524Y-117038381D02*
X93718000Y-117038381D01*
X93813239Y-116990762D01*
X93860858Y-116943143D01*
X93956096Y-116800286D01*
X94003715Y-116609810D01*
X94003715Y-116228857D01*
X93956096Y-116133619D01*
X93908477Y-116086000D01*
X93813239Y-116038381D01*
X93622762Y-116038381D01*
X93527524Y-116086000D01*
X93479905Y-116133619D01*
X93432286Y-116228857D01*
X93432286Y-116466952D01*
X93479905Y-116562190D01*
X93527524Y-116609810D01*
X93622762Y-116657429D01*
X93813239Y-116657429D01*
X93908477Y-116609810D01*
X93956096Y-116562190D01*
X94003715Y-116466952D01*
X94607143Y-130913143D02*
X94559524Y-130960762D01*
X94416667Y-131008381D01*
X94321429Y-131008381D01*
X94178571Y-130960762D01*
X94083333Y-130865524D01*
X94035714Y-130770286D01*
X93988095Y-130579810D01*
X93988095Y-130436952D01*
X94035714Y-130246476D01*
X94083333Y-130151238D01*
X94178571Y-130056000D01*
X94321429Y-130008381D01*
X94416667Y-130008381D01*
X94559524Y-130056000D01*
X94607143Y-130103619D01*
X95559524Y-131008381D02*
X94988095Y-131008381D01*
X95273809Y-131008381D02*
X95273809Y-130008381D01*
X95178571Y-130151238D01*
X95083333Y-130246476D01*
X94988095Y-130294095D01*
X96178571Y-130008381D02*
X96273810Y-130008381D01*
X96369048Y-130056000D01*
X96416667Y-130103619D01*
X96464286Y-130198857D01*
X96511905Y-130389333D01*
X96511905Y-130627429D01*
X96464286Y-130817905D01*
X96416667Y-130913143D01*
X96369048Y-130960762D01*
X96273810Y-131008381D01*
X96178571Y-131008381D01*
X96083333Y-130960762D01*
X96035714Y-130913143D01*
X95988095Y-130817905D01*
X95940476Y-130627429D01*
X95940476Y-130389333D01*
X95988095Y-130198857D01*
X96035714Y-130103619D01*
X96083333Y-130056000D01*
X96178571Y-130008381D01*
X82649143Y-124935143D02*
X82601524Y-124982762D01*
X82458667Y-125030381D01*
X82363429Y-125030381D01*
X82220571Y-124982762D01*
X82125333Y-124887524D01*
X82077714Y-124792286D01*
X82030095Y-124601810D01*
X82030095Y-124458952D01*
X82077714Y-124268476D01*
X82125333Y-124173238D01*
X82220571Y-124078000D01*
X82363429Y-124030381D01*
X82458667Y-124030381D01*
X82601524Y-124078000D01*
X82649143Y-124125619D01*
X83601524Y-125030381D02*
X83030095Y-125030381D01*
X83315809Y-125030381D02*
X83315809Y-124030381D01*
X83220571Y-124173238D01*
X83125333Y-124268476D01*
X83030095Y-124316095D01*
X84553905Y-125030381D02*
X83982476Y-125030381D01*
X84268190Y-125030381D02*
X84268190Y-124030381D01*
X84172952Y-124173238D01*
X84077714Y-124268476D01*
X83982476Y-124316095D01*
X100157143Y-127942857D02*
X100204762Y-127990476D01*
X100252381Y-128133333D01*
X100252381Y-128228571D01*
X100204762Y-128371429D01*
X100109524Y-128466667D01*
X100014286Y-128514286D01*
X99823810Y-128561905D01*
X99680952Y-128561905D01*
X99490476Y-128514286D01*
X99395238Y-128466667D01*
X99300000Y-128371429D01*
X99252381Y-128228571D01*
X99252381Y-128133333D01*
X99300000Y-127990476D01*
X99347619Y-127942857D01*
X100252381Y-126990476D02*
X100252381Y-127561905D01*
X100252381Y-127276191D02*
X99252381Y-127276191D01*
X99395238Y-127371429D01*
X99490476Y-127466667D01*
X99538095Y-127561905D01*
X99347619Y-126609524D02*
X99300000Y-126561905D01*
X99252381Y-126466667D01*
X99252381Y-126228571D01*
X99300000Y-126133333D01*
X99347619Y-126085714D01*
X99442857Y-126038095D01*
X99538095Y-126038095D01*
X99680952Y-126085714D01*
X100252381Y-126657143D01*
X100252381Y-126038095D01*
X101711143Y-128042857D02*
X101758762Y-128090476D01*
X101806381Y-128233333D01*
X101806381Y-128328571D01*
X101758762Y-128471429D01*
X101663524Y-128566667D01*
X101568286Y-128614286D01*
X101377810Y-128661905D01*
X101234952Y-128661905D01*
X101044476Y-128614286D01*
X100949238Y-128566667D01*
X100854000Y-128471429D01*
X100806381Y-128328571D01*
X100806381Y-128233333D01*
X100854000Y-128090476D01*
X100901619Y-128042857D01*
X101806381Y-127090476D02*
X101806381Y-127661905D01*
X101806381Y-127376191D02*
X100806381Y-127376191D01*
X100949238Y-127471429D01*
X101044476Y-127566667D01*
X101092095Y-127661905D01*
X100806381Y-126757143D02*
X100806381Y-126138095D01*
X101187333Y-126471429D01*
X101187333Y-126328571D01*
X101234952Y-126233333D01*
X101282571Y-126185714D01*
X101377810Y-126138095D01*
X101615905Y-126138095D01*
X101711143Y-126185714D01*
X101758762Y-126233333D01*
X101806381Y-126328571D01*
X101806381Y-126614286D01*
X101758762Y-126709524D01*
X101711143Y-126757143D01*
X71799524Y-116947905D02*
X71799524Y-116147905D01*
X71990000Y-116147905D01*
X72104286Y-116186000D01*
X72180477Y-116262190D01*
X72218572Y-116338381D01*
X72256667Y-116490762D01*
X72256667Y-116605048D01*
X72218572Y-116757429D01*
X72180477Y-116833619D01*
X72104286Y-116909810D01*
X71990000Y-116947905D01*
X71799524Y-116947905D01*
X73018572Y-116947905D02*
X72561429Y-116947905D01*
X72790000Y-116947905D02*
X72790000Y-116147905D01*
X72713810Y-116262190D01*
X72637619Y-116338381D01*
X72561429Y-116376476D01*
X71799524Y-118217905D02*
X71799524Y-117417905D01*
X71990000Y-117417905D01*
X72104286Y-117456000D01*
X72180477Y-117532190D01*
X72218572Y-117608381D01*
X72256667Y-117760762D01*
X72256667Y-117875048D01*
X72218572Y-118027429D01*
X72180477Y-118103619D01*
X72104286Y-118179810D01*
X71990000Y-118217905D01*
X71799524Y-118217905D01*
X72561429Y-117494095D02*
X72599524Y-117456000D01*
X72675715Y-117417905D01*
X72866191Y-117417905D01*
X72942381Y-117456000D01*
X72980477Y-117494095D01*
X73018572Y-117570286D01*
X73018572Y-117646476D01*
X72980477Y-117760762D01*
X72523334Y-118217905D01*
X73018572Y-118217905D01*
X71799524Y-119487905D02*
X71799524Y-118687905D01*
X71990000Y-118687905D01*
X72104286Y-118726000D01*
X72180477Y-118802190D01*
X72218572Y-118878381D01*
X72256667Y-119030762D01*
X72256667Y-119145048D01*
X72218572Y-119297429D01*
X72180477Y-119373619D01*
X72104286Y-119449810D01*
X71990000Y-119487905D01*
X71799524Y-119487905D01*
X72523334Y-118687905D02*
X73018572Y-118687905D01*
X72751905Y-118992667D01*
X72866191Y-118992667D01*
X72942381Y-119030762D01*
X72980477Y-119068857D01*
X73018572Y-119145048D01*
X73018572Y-119335524D01*
X72980477Y-119411714D01*
X72942381Y-119449810D01*
X72866191Y-119487905D01*
X72637619Y-119487905D01*
X72561429Y-119449810D01*
X72523334Y-119411714D01*
X71397905Y-82240381D02*
X71397905Y-81240381D01*
X71778858Y-81240381D01*
X71874096Y-81288000D01*
X71921715Y-81335619D01*
X71969334Y-81430857D01*
X71969334Y-81573714D01*
X71921715Y-81668952D01*
X71874096Y-81716571D01*
X71778858Y-81764190D01*
X71397905Y-81764190D01*
X72921715Y-82240381D02*
X72350286Y-82240381D01*
X72636000Y-82240381D02*
X72636000Y-81240381D01*
X72540762Y-81383238D01*
X72445524Y-81478476D01*
X72350286Y-81526095D01*
X71651905Y-76652381D02*
X71651905Y-75652381D01*
X72032858Y-75652381D01*
X72128096Y-75700000D01*
X72175715Y-75747619D01*
X72223334Y-75842857D01*
X72223334Y-75985714D01*
X72175715Y-76080952D01*
X72128096Y-76128571D01*
X72032858Y-76176190D01*
X71651905Y-76176190D01*
X72604286Y-75747619D02*
X72651905Y-75700000D01*
X72747143Y-75652381D01*
X72985239Y-75652381D01*
X73080477Y-75700000D01*
X73128096Y-75747619D01*
X73175715Y-75842857D01*
X73175715Y-75938095D01*
X73128096Y-76080952D01*
X72556667Y-76652381D01*
X73175715Y-76652381D01*
X109735714Y-93767857D02*
X109735714Y-94739286D01*
X109792857Y-94853571D01*
X109850000Y-94910714D01*
X109964286Y-94967857D01*
X110192857Y-94967857D01*
X110307143Y-94910714D01*
X110364286Y-94853571D01*
X110421429Y-94739286D01*
X110421429Y-93767857D01*
X110935714Y-93882143D02*
X110992857Y-93825000D01*
X111107143Y-93767857D01*
X111392857Y-93767857D01*
X111507143Y-93825000D01*
X111564286Y-93882143D01*
X111621429Y-93996429D01*
X111621429Y-94110714D01*
X111564286Y-94282143D01*
X110878572Y-94967857D01*
X111621429Y-94967857D01*
X120674286Y-133951429D02*
X120731429Y-133780000D01*
X120788571Y-133722857D01*
X120902857Y-133665714D01*
X121074286Y-133665714D01*
X121188571Y-133722857D01*
X121245714Y-133780000D01*
X121302857Y-133894286D01*
X121302857Y-134351429D01*
X120102857Y-134351429D01*
X120102857Y-133951429D01*
X120160000Y-133837143D01*
X120217143Y-133780000D01*
X120331429Y-133722857D01*
X120445714Y-133722857D01*
X120560000Y-133780000D01*
X120617143Y-133837143D01*
X120674286Y-133951429D01*
X120674286Y-134351429D01*
X120102857Y-133322857D02*
X120102857Y-132637143D01*
X121302857Y-132980000D02*
X120102857Y-132980000D01*
X121302857Y-132237143D02*
X120102857Y-132237143D01*
X121302857Y-131551428D01*
X120102857Y-131551428D01*
X120102857Y-131094285D02*
X120102857Y-130351428D01*
X120560000Y-130751428D01*
X120560000Y-130580000D01*
X120617143Y-130465714D01*
X120674286Y-130408571D01*
X120788571Y-130351428D01*
X121074286Y-130351428D01*
X121188571Y-130408571D01*
X121245714Y-130465714D01*
X121302857Y-130580000D01*
X121302857Y-130922857D01*
X121245714Y-131037143D01*
X121188571Y-131094285D01*
X120714286Y-127555429D02*
X120771429Y-127384000D01*
X120828571Y-127326857D01*
X120942857Y-127269714D01*
X121114286Y-127269714D01*
X121228571Y-127326857D01*
X121285714Y-127384000D01*
X121342857Y-127498286D01*
X121342857Y-127955429D01*
X120142857Y-127955429D01*
X120142857Y-127555429D01*
X120200000Y-127441143D01*
X120257143Y-127384000D01*
X120371429Y-127326857D01*
X120485714Y-127326857D01*
X120600000Y-127384000D01*
X120657143Y-127441143D01*
X120714286Y-127555429D01*
X120714286Y-127955429D01*
X120142857Y-126926857D02*
X120142857Y-126241143D01*
X121342857Y-126584000D02*
X120142857Y-126584000D01*
X121342857Y-125841143D02*
X120142857Y-125841143D01*
X121342857Y-125155428D01*
X120142857Y-125155428D01*
X120257143Y-124641143D02*
X120200000Y-124584000D01*
X120142857Y-124469714D01*
X120142857Y-124184000D01*
X120200000Y-124069714D01*
X120257143Y-124012571D01*
X120371429Y-123955428D01*
X120485714Y-123955428D01*
X120657143Y-124012571D01*
X121342857Y-124698285D01*
X121342857Y-123955428D01*
X69272857Y-125371142D02*
X68701429Y-125771142D01*
X69272857Y-126056857D02*
X68072857Y-126056857D01*
X68072857Y-125599714D01*
X68130000Y-125485428D01*
X68187143Y-125428285D01*
X68301429Y-125371142D01*
X68472857Y-125371142D01*
X68587143Y-125428285D01*
X68644286Y-125485428D01*
X68701429Y-125599714D01*
X68701429Y-126056857D01*
X69215714Y-124914000D02*
X69272857Y-124742571D01*
X69272857Y-124456857D01*
X69215714Y-124342571D01*
X69158571Y-124285428D01*
X69044286Y-124228285D01*
X68930000Y-124228285D01*
X68815714Y-124285428D01*
X68758571Y-124342571D01*
X68701429Y-124456857D01*
X68644286Y-124685428D01*
X68587143Y-124799714D01*
X68530000Y-124856857D01*
X68415714Y-124914000D01*
X68301429Y-124914000D01*
X68187143Y-124856857D01*
X68130000Y-124799714D01*
X68072857Y-124685428D01*
X68072857Y-124399714D01*
X68130000Y-124228285D01*
X68072857Y-123885428D02*
X68072857Y-123199714D01*
X69272857Y-123542571D02*
X68072857Y-123542571D01*
X92046429Y-131889428D02*
X92617857Y-131889428D01*
X91417857Y-132289428D02*
X92046429Y-131889428D01*
X91417857Y-131489428D01*
X92617857Y-130460857D02*
X92617857Y-131146572D01*
X92617857Y-130803714D02*
X91417857Y-130803714D01*
X91589286Y-130918000D01*
X91703571Y-131032286D01*
X91760714Y-131146572D01*
X71785714Y-98902857D02*
X71785714Y-99874286D01*
X71842857Y-99988571D01*
X71900000Y-100045714D01*
X72014286Y-100102857D01*
X72242857Y-100102857D01*
X72357143Y-100045714D01*
X72414286Y-99988571D01*
X72471429Y-99874286D01*
X72471429Y-98902857D01*
X73671429Y-100102857D02*
X72985714Y-100102857D01*
X73328572Y-100102857D02*
X73328572Y-98902857D01*
X73214286Y-99074286D01*
X73100000Y-99188571D01*
X72985714Y-99245714D01*
M02*
